<svg version="1" xmlns="http://www.w3.org/2000/svg" width="1669.333" height="1669.333" viewBox="0 0 1252.000000 1252.000000"><path d="M624.6 87.2c-.8 2.5-2.7 13.3-3.4 19.3-.4 3.3-1.1 6.6-1.6 7.3-.4.8-1.2 4.1-1.7 7.5-.5 3.4-1.6 9.8-2.5 14.2-.9 4.4-2 10.7-2.5 14-.5 3.3-1.6 9.8-2.4 14.5-.9 4.7-1.9 11-2.4 14-.4 3-1.3 6.8-1.9 8.3-.7 1.6-1.2 4.1-1.2 5.7 0 1.6-.4 3.1-.9 3.4-1 .6-7.1-4.9-7.1-6.4 0-.6-.4-1-1-1-.5 0-1-.7-1-1.5s-.4-1.5-.9-1.5-1.3-1-1.7-2.3c-.4-1.2-1-2.4-1.4-2.7-1.1-.8-12-15.8-12-16.6 0-.4-1.1-1.7-2.5-3s-2.5-2.6-2.5-2.9c0-1-5.3-7.9-6.7-8.8-.7-.4-1.3-1.3-1.3-2s-1.1-2.4-2.5-3.9-2.5-3.2-2.5-3.8c0-.5-.4-1-.9-1s-1.2-.8-1.5-1.8c-.3-.9-1.6-2.8-2.9-4.2-1.2-1.4-3.3-4.1-4.5-6.1-1.2-1.9-3.3-4.8-4.6-6.2-5.6-6-6.6-2.9-6.7 20.5 0 10.6-.6 25.8-1.3 33.8-.7 8-1.4 22.4-1.5 32-.2 15.1-.4 17.7-1.9 19.3-1.7 1.6-1.9 1.5-5.5-3.3-2.1-2.7-4.2-5-4.7-5-.6 0-1-.7-1-1.5s-.4-1.5-1-1.5c-.5 0-1-.4-1-.9s-1.2-2.2-2.7-3.8c-3.2-3.3-8.3-9.4-8.3-9.8 0-.1-1.7-2-3.8-4.1-2-2.2-5.1-5.7-6.7-7.9-1.7-2.1-4.1-5.1-5.5-6.5-1.4-1.5-4.1-4.6-6-7-1.9-2.4-4.3-5.2-5.2-6.2-1-1-1.8-2.1-1.8-2.4 0-1-2.8-3.4-3.9-3.4-.6 0-1.1-.7-1.1-1.5s-.4-1.5-1-1.5c-.5 0-1-.5-1-1.1 0-.6-.6-1.6-1.2-2.3-.7-.8-3.5-3.9-6.3-7.1-9-10.4-9.3-10.6-10-9.5-.6 1 .2 6.1 2.6 15.5 1.2 4.5 2.3 10.2 3.7 19.1.6 3.4 1.5 7.1 2.1 8.2.6 1.2 1.1 3.8 1.1 5.8 0 2.1.4 5.1.9 6.8 3 9.9 4.1 14.6 4.1 17.3 0 1.7.7 5 1.5 7.3s1.5 6 1.5 8.1c0 2.1.5 4.1 1 4.4.6.3 1 2.6 1 4.9 0 2.4.7 6 1.5 7.9.8 2 1.5 4.8 1.5 6.2 0 1.6-.6 2.5-1.5 2.5-.8 0-1.5-.3-1.5-.8 0-.4-2.3-2.3-5-4.2-2.7-1.9-5-3.8-5-4.3 0-.4-.7-.7-1.5-.7s-1.5-.4-1.5-.8-1.2-1.5-2.7-2.4c-1.6-.9-4.1-2.8-5.8-4.2-1.6-1.4-3.3-2.6-3.7-2.6-.4 0-2-1.2-3.6-2.8-3.5-3.2-6.1-5-8.4-5.8-1-.4-1.8-1-1.8-1.5s-.5-.9-1-.9c-.6 0-2.4-1.2-4.1-2.8-1.8-1.5-3.7-3.2-4.3-3.7-2-1.7-5-3.5-6.8-4.1-1-.4-1.8-1-1.8-1.5s-.7-.9-1.5-.9-1.5-.7-1.5-1.5-.5-1.5-1.1-1.5c-.6 0-1.7-.6-2.4-1.3-3-2.6-4.4-3.7-5-3.7-.3 0-1.4-.8-2.4-1.8-3.7-3.2-5-4.2-6.1-4.2-.5 0-1-.5-1-1 0-.6-.5-1-1-1-.6 0-2.3-1.1-3.8-2.5s-3-2.5-3.4-2.5c-.4 0-2.1-1.4-3.8-3-1.7-1.7-3.7-3-4.5-3-.8 0-1.5-.5-1.5-1 0-.6-.5-1-1-1-.9 0-4.7-3-8.6-6.8-.7-.6-1.7-1.2-2.3-1.2-.6 0-1.1-.5-1.1-1 0-.6-.7-1-1.5-1s-1.5.9-1.5 2 .7 2.3 1.5 2.6c.8.4 1.5 1.8 1.5 3.4 0 1.5.7 3.3 1.5 4 .8.7 1.5 2.3 1.5 3.6 0 1.3.5 2.4 1 2.4.6 0 1 1.1 1 2.5s.5 2.5 1 2.5c.6 0 1 .7 1 1.6 0 1.6 2.3 7.6 4.1 10.4.5.8 1.2 2.2 1.5 3 1.8 4.5 2.7 6.8 4 9.3.8 1.6 1.4 3.7 1.4 4.8 0 1 .4 1.9.8 1.9s1.6 2.6 2.7 5.7c1 3.2 2.4 6.9 3.1 8.3 2.5 5.1 6.4 14.1 6.4 14.8 0 .4 1.1 2.9 2.5 5.7 1.3 2.7 2.5 6 2.5 7.2 0 1.2.4 2.4.9 2.7.4.3 1.9 3.4 3.2 6.8 1.2 3.5 2.6 6.5 3 6.8.4.3.9 2.1 1.1 4 .3 3.2.1 3.5-2.2 3.2-1.4-.1-2.6-.7-2.8-1.2-.2-.6-1.2-1-2.2-1-1 0-3.1-.6-4.7-1.4-1.5-.8-4.8-2-7.3-2.6-2.5-.7-5.7-1.8-7.2-2.6-1.4-.8-3.2-1.4-4-1.4-.8 0-3.8-1.1-6.6-2.5-2.9-1.4-6-2.5-7-2.5s-2.7-.7-3.8-1.5c-1-.8-2.6-1.5-3.5-1.5-.9 0-3-.7-4.5-1.5-1.6-.8-3.7-1.5-4.6-1.5-.9 0-2-.5-2.3-1-.3-.6-1.4-1-2.4-1s-3.2-.7-4.7-1.5c-1.6-.8-3.7-1.5-4.6-1.5-.9 0-2-.5-2.3-1-.3-.6-1.5-1-2.5-1s-3.3-.8-5.2-1.7c-5.4-2.7-6.2-3-9.6-3.7-1.7-.4-3.4-1.2-3.7-1.7-.4-.5-1.9-.9-3.6-.9-1.6 0-2.9-.4-2.9-1 0-.5-1.8-1.3-4-1.6-2.2-.4-4-1-4-1.5s-1-.9-2.3-.9c-1.3 0-3.2-.7-4.3-1.5-1-.8-2.6-1.5-3.5-1.5-.9 0-3-.7-4.5-1.5-1.6-.8-3.7-1.5-4.6-1.5-1 0-1.8-.5-1.8-1 0-.6-.8-1-1.7-1-2 0-10.8-3.2-11.9-4.3-.4-.4-2-.7-3.5-.7s-3-.4-3.3-.9c-.3-.4-3.4-1.8-6.8-3.1-3.5-1.2-7.1-2.6-8-3.1-1-.5-2.6-.9-3.5-.9-1 0-2.7-.7-3.7-1.5-2.1-1.6-6.6-2-6.6-.6 0 .4 1.2 1.7 2.6 2.7 1.4 1 3.2 2.5 3.9 3.1.8.7 1.8 1.3 2.4 1.3.6 0 1.1.5 1.1 1 0 .6 1.1 1.5 2.5 2s2.5 1.4 2.5 2c0 .5.7 1 1.5 1s1.5.4 1.5 1c0 .5.5 1 1 1 .6 0 2.2 1.1 3.6 2.5s3.1 2.5 3.9 2.5c.8 0 1.5.7 1.5 1.5s.5 1.5 1 1.5c1.3 0 19.4 12.9 19.8 14.1.2.5.8.9 1.3.9 1.3 0 10.6 6.8 17.9 13 1.9 1.6 4.1 3 4.8 3 .7 0 1.5.7 1.8 1.5.4.8 1.2 1.5 2 1.5s1.4.4 1.4 1c0 .5.5 1 1.1 1 .6 0 1.7.6 2.4 1.2.8.7 2 1.8 2.7 2.3 7.8 6.1 9.7 7.5 10.2 7.5.4 0 1.9 1.1 3.4 2.5s3.2 2.5 3.9 2.5c.7 0 1.6.6 2 1.3.4.6 3.5 3.2 6.8 5.6 3.3 2.5 6.2 4.8 6.3 5.3.2.4 1.2.8 2.3.8 1.1 0 2.2.7 2.5 1.5.4.8 1.2 1.5 2 1.5s1.4.3 1.4.7c0 .5 2.3 2.4 5 4.3s5 3.8 5 4.2c0 .5.7.8 1.5.8s1.5.4 1.5.9.9 1.3 2.1 1.6c1.1.4 3.6 2.2 5.5 4 1.9 1.9 4.3 3.7 5.4 4 1.1.4 2 1.1 2 1.6s.5.9 1 .9c1.2 0 1.9.5 6.5 4.6l3 2.7-4-.7c-2.2-.4-5.8-1.2-8-1.6-2.2-.5-6.2-1.4-9-1.9-2.7-.6-5.9-1.5-7-2-1.1-.5-3.3-1.2-5-1.5-1.6-.2-5.7-1.2-9-2.1-3.3-.9-8.2-2.1-10.9-2.5-2.7-.5-5.4-1.4-6-2-.5-.5-2.5-1-4.3-1-1.8 0-4.1-.4-5.1-1-2.4-1.3-13.8-4-17.2-4-1.6 0-3.1-.4-3.5-.9-.3-.6-2.6-1.3-5-1.7-2.5-.3-4.8-1-5.1-1.5-.3-.5-2.1-.9-4-.9-2 0-4.5-.5-5.7-1.2-1.2-.6-4-1.5-6.2-1.9-6.8-1.3-14.3-3.4-15.1-4.2-.4-.4-2.7-.7-5-.7-2.4 0-4.6-.5-4.9-1-.8-1.2-5.5-1.3-5.5-.1 0 .5-1 1.1-2.3 1.5-1.2.3-3.2 1.3-4.3 2.3-2.7 2.4-5.5 4.2-7.6 4.9-1 .4-1.8.9-1.8 1.3s-1.7 1.5-3.7 2.6c-2.1 1.1-4.8 2.8-6 3.9-2.3 1.9-5.3 3.8-8.8 5.4-2.7 1.3-7.5 5.9-7.5 7.2 0 .5-.4 1-1 1-.5 0-1.2 1.6-1.6 3.5-.3 1.9-1 3.8-1.5 4.1-.5.3-.9 1.5-.9 2.7 0 1.2-.7 3.1-1.5 4.1-.8 1.1-1.5 2.9-1.5 4.1 0 1.2-.4 2.5-.9 3.1-1 1.1-4.1 10.7-4.1 12.8 0 .9-.4 1.6-.9 1.6s-1.2 1.8-1.6 4c-.4 2.2-1.1 4-1.6 4s-.9.9-.9 2.1c0 1.1-.6 3.3-1.4 4.7-.7 1.5-2.1 5.2-3.1 8.2-1 3-2.2 5.9-2.6 6.4-.5.6-.9 1.9-.9 3 0 2.2-3.1 11-4.3 12.2-.4.4-.7 1.5-.7 2.5 0 .9-.6 3-1.4 4.6-1.9 3.7-5.7 15.1-6.3 18.5-.3 1.6-.9 2.8-1.4 2.8-.4 0-1.1 1.6-1.5 3.6-.4 2-1.6 6-2.6 8.8-1.1 2.8-2.2 6.2-2.5 7.6-.3 1.4-1.2 3.4-1.9 4.5-.8 1.1-1.4 2.9-1.4 4.2 0 1.2-.5 2.5-1 2.8-.5.3-1 1.6-1 2.9 0 1.2-.7 3.1-1.5 4.2-.8 1-1.5 2.7-1.5 3.7 0 .9-.4 2.5-.9 3.5-1.4 2.8-3.3 8.5-3.8 11.4-.3 1.6-.9 2.8-1.3 2.8-.5 0-1.1 1.8-1.5 4-.4 2.2-1 4.2-1.5 4.5-.4.3-1.1 2.1-1.4 4-.4 1.9-1.1 3.5-1.6 3.5-.6 0-1 1.1-1 2.4 0 1.3-.7 3.7-1.5 5.2-.8 1.6-1.5 3.7-1.5 4.6 0 .9-.5 2-1 2.3-.5.3-1 1.9-1 3.6 0 1.6-.4 2.9-1 2.9-.5 0-1.3 1.8-1.6 4-.4 2.2-1 4-1.5 4-1.2 0-1.2 10.7 0 11.4.5.4 1.2 2.4 1.6 4.6.4 2.2 1.1 4.2 1.6 4.6.5.3.9 2.1.9 4s.4 3.4.9 3.4 1.2 2 1.5 4.5c.4 2.4 1.1 4.7 1.7 5 .5.4.9 1.8.9 3.3 0 1.5.7 3.6 1.5 4.6.8 1.1 1.5 3.5 1.5 5.3 0 1.8.4 3.3.9 3.3s1.2 1.2 1.5 2.6c1.5 5.9 4.1-1.9 7.5-22 .5-2.9 1.4-6.3 2-7.4.6-1.1 1.1-3.4 1.1-5.1 0-1.6.4-4 .9-5.3.5-1.3 1.7-5.9 2.6-10.3.8-4.4 2.1-10 2.7-12.5 1.5-6.1 2.8-12.5 3.7-18.5.4-2.8 1.3-6.3 1.9-7.8.7-1.6 1.2-4.2 1.2-5.8 0-1.6.4-3.7 1-4.7 1.1-2 2.9-9.7 3.9-16.7.3-2.8 1.1-5.7 1.6-6.5.5-.8 1.3-3.5 1.7-6 .4-2.5 1.4-7.7 2.3-11.5.8-3.9 2-9.3 2.5-12 1.6-8.8 3.1-15 4-16.7.6-1 1-3.7 1-6.2s.6-4.8 1.4-5.5c.8-.7 1.6-3.3 1.9-5.9.3-2.6 1.3-7.9 2.2-11.7.9-3.9 2-9 2.5-11.5s1.4-7.2 2.1-10.5c.6-3.3 1.5-6.4 2-6.9.5-.6.9-2.7.9-4.7s.7-5 1.5-6.5c.8-1.6 1.5-4.6 1.5-6.7 0-2 .4-4.5.9-5.5.6-.9 1.3-3.4 1.6-5.4.6-4.1 3.3-5.6 7.5-4.3 2.4.7 2.3.3.1 12-.5 2.7-1.2 6.8-1.6 9-.3 2.2-1.2 6.5-2 9.5-.7 3-2.1 9.1-3 13.5-1 4.4-2.1 8.8-2.6 9.7-.5 1-.9 3.5-.9 5.5-.1 2.1-.7 4.9-1.5 6.3-.8 1.4-1.4 4.5-1.5 7 0 2.6-.4 5-.9 5.5-.6.6-1.5 3.7-2.1 7-3 16.6-5.4 27.3-6.2 28.1-.5.4-.8 2.6-.8 4.8-.1 2.3-.7 5.2-1.5 6.6-.8 1.4-1.4 4.4-1.5 6.7 0 2.3-.4 4.4-.9 4.7-.5.3-1.2 3.3-1.6 6.6-.4 3.3-1.1 6-1.6 6s-.9 1.6-.9 3.5c0 4 1.5 4.7 2.4 1 .4-1.4 1.1-2.5 1.6-2.5.6 0 1-1.5 1-3.4 0-2.1.6-3.6 1.5-4 .9-.3 1.5-1.8 1.5-3.5 0-1.6.4-3.2.9-3.6.5-.3 1.2-1.9 1.6-3.5.4-1.7 1.1-3 1.6-3s.9-1.3.9-2.9c0-1.7.4-3.3 1-3.6.5-.3 1-1.6 1-2.9 0-1.2.7-3.1 1.5-4.2.8-1 1.5-2.8 1.5-3.9s.7-2.9 1.5-3.9c.8-1.1 1.5-2.8 1.5-3.8s.4-2.6.9-3.6c2.3-4.1 4.1-8.6 4.1-9.9 0-.8.6-2.7 1.4-4.1.8-1.5 2.1-5 2.9-7.7.9-2.8 2.5-7.5 3.7-10.5 3.8-10 5-13.5 5-15.1 0-.9.7-2.2 1.5-2.9.8-.7 1.5-2.1 1.5-3.1 0-1.1.4-2.7.9-3.7 1.4-2.9 3.3-8.6 3.9-11.7.2-1.7.8-3.2 1.1-3.5 1.2-1 7.1-16.7 7.1-18.8 0-1.2.4-2.2.9-2.2s1.2-1.3 1.6-2.9c1-4.6 2.5-5.2 11.7-4.9l8.3.3.3 3.4c.2 1.9-.1 4.4-.7 5.5-1.3 2.6-3.1 11.5-3.7 18.1-.3 2.7-.9 5.9-1.5 7-1 2.1-2.5 8.8-3.9 17.1-.4 2.8-1.3 6.1-1.9 7.2-.6 1.1-1.1 4-1.1 6.5 0 2.4-.3 4.7-.7 5.1-1.2 1.1-3.5 11.8-6.2 28.4-.6 3.5-1.5 7.2-2.1 8.2-.5 1-1 3.4-1 5.4 0 1.9-.5 4.7-1.1 6.3-.6 1.5-1.4 4.8-1.9 7.3s-1.6 7.4-2.5 11c-2.4 9.5-2.9 14-1.6 14 .6 0 1.1-.8 1.1-1.8 0-.9.7-2.6 1.5-3.6.8-1.1 1.5-2.9 1.5-4 0-1.2.7-3 1.5-4 .8-1.1 1.5-3 1.5-4.2 0-1.2.7-3.5 1.5-5 .8-1.6 1.5-3.9 1.5-5.1 0-1.2.4-2.5 1-2.8.5-.3 1-1.7 1-2.9 0-1.3.7-3.7 1.5-5.2.8-1.6 1.5-3.7 1.5-4.6 0-.9.5-2 1-2.3.6-.3 1-1.8 1-3.2 0-1.3.6-3.7 1.4-5.1.8-1.5 2.2-5.4 3.2-8.7 1-3.3 2.2-6.4 2.6-7 .4-.5.8-2.1.8-3.6s.7-4 1.5-5.5c.8-1.6 1.5-3.9 1.5-5.2 0-1.2.5-2.2 1-2.2.6 0 1-1 1-2.3 0-1.2.7-3.5 1.5-5.1.8-1.5 1.5-3.9 1.5-5.2 0-1.3.5-2.4 1-2.4.6 0 1-.6 1-1.4 0-1.7 2.9-11.5 4.1-13.8.5-1 .9-2.6.9-3.5 0-1 .7-3.1 1.5-4.7.8-1.5 1.5-3.8 1.5-5 0-1.1.7-3 1.5-4 .8-1.1 1.5-3 1.5-4.3 0-1.2 1.2-4.7 2.6-7.8l2.6-5.5h18l-.6 4.7c-.3 2.7-.9 8.2-1.4 12.4-.5 4.1-1.2 8.1-1.7 8.8-.4.8-1.2 4.1-1.6 7.5-2.1 15.5-3 21-3.9 22.7-.6 1-1 3.7-1 6.1 0 2.4-.6 7.2-1.4 10.8-.8 3.6-2 10.5-2.6 15.5-.6 4.9-1.8 11.8-2.6 15.2-.8 3.4-1.4 7.9-1.4 10 0 2.1-.5 5.4-1 7.3-2.7 9.1-4.9 30-3.1 30 .6 0 1.1-.9 1.1-2s.6-3.7 1.4-5.7c3.2-9.2 4.6-14 4.6-16.5 0-1.5.4-2.9.9-3.2.4-.3 1.1-2.9 1.3-5.7.3-2.8 1-5.4 1.5-5.8.6-.3 1.3-2 1.6-3.6 1.3-7 3-13.1 3.8-14 .5-.5.9-2.3.9-4 0-1.6.7-3.9 1.5-4.9.8-1.1 1.5-3.4 1.5-5.1 0-1.7.4-3.5 1-4.1.9-.9 2.4-6.7 3.6-13.9.3-1.7.9-3.9 1.4-5 1.6-3.8 4-12.4 4-14.2 0-1.1.7-2.8 1.5-3.9.8-1 1.5-3.3 1.5-5.1 0-1.7.4-3.4.9-3.8.6-.3 1.3-2.6 1.7-5 .3-2.5 1-4.8 1.5-5.1.5-.3.9-2 .9-3.8 0-1.9.7-4.7 1.5-6.2.8-1.6 1.5-3.9 1.5-5.2 0-1.2.5-2.2 1-2.2.6 0 1-.7 1-1.5 0-1.2 1.7-1.5 8.9-1.5 6.2 0 9.1.4 9.4 1.2.7 2-.5 16.2-1.4 17.2-.5.6-.9 3.9-.9 7.5 0 3.7-.7 9.7-1.5 13.6-.8 3.8-1.5 9.8-1.5 13.3 0 3.4-.4 7-.9 8-.9 1.5-2 10.6-4.2 34.2-1.4 15.7-3 28.5-4 31.6-.5 1.7-.9 5.6-.9 8.8 0 3.2-.7 9.5-1.7 14.2-.9 4.6-1.3 8.7-1 9 1.2 1.2 2.7-.8 2.7-3.6 0-1.6.4-3.1.9-3.4.5-.3 1.2-2.6 1.5-5.1.4-2.4 1.1-4.7 1.7-5 .5-.4.9-2.1.9-4s.4-3.6.9-3.9c.4-.3 1.1-2.6 1.5-5.2.3-2.6 1-5.2 1.5-5.8.4-.6 1.1-3.1 1.4-5.5.3-2.4 1-4.7 1.5-5 .5-.3 1.2-2.4 1.5-4.6.7-5.7 2.7-12.8 3.8-14 .5-.5.9-2 .9-3.5 0-1.4.7-4.8 1.6-7.5 2.9-9 3.4-11.1 3.4-13.2 0-1.1.7-3.4 1.5-4.9.8-1.6 1.5-4.3 1.5-6.1 0-1.7.4-3.4.9-3.8.6-.3 1.3-2.6 1.7-5 .3-2.5 1-4.8 1.5-5.1.5-.3.9-2 .9-3.7 0-1.8.7-4.5 1.5-6.1.8-1.5 1.5-3.7 1.5-4.8 0-1.1.7-4.3 1.6-7.2 2.8-9 3.4-11.2 3.4-13.1 0-1 .8-3.6 1.8-5.6l1.7-3.8 8.6-.1c7.6 0 8.7.2 9.1 1.8.7 2.4-.8 19.7-1.7 21.2-.4.7-1.1 5.3-1.6 10.4-.5 5-1.6 14-2.5 20.1-.9 6-2 14.8-2.4 19.5-.5 4.7-1.6 13.4-2.5 19.5-.9 6-1.9 15-2.3 20-.4 4.9-1.2 9.7-1.7 10.5-.5.8-1.3 5.5-1.7 10.5-.4 4.9-1 11.2-1.4 13.9-.4 3.4-.3 4.7.5 4.2.6-.4 1.1-2.5 1.1-4.7 0-2.3.7-4.7 1.5-5.5.8-.9 1.5-3.2 1.5-5.3 0-2.1.3-4.1.8-4.5.7-.7 2.4-8 4.2-18.1 1.8-10.1 3.5-17.4 4.3-18.1.4-.4.7-2.4.7-4.5s.5-5 1.1-6.6c.7-1.5 1.6-4.8 2-7.3 2.1-11.8 3.2-16.6 4-17.5.5-.5.9-2.8.9-5.1 0-2.4.4-4.5.9-4.8.4-.3 1.1-3.3 1.4-6.7.3-3.4 1-6.6 1.6-7.2.6-.6 1.1-2.8 1.1-5 0-2.1.5-4.8 1.1-5.9.6-1.1 1.5-4.4 2-7.2 2.7-16.7 3.7-18.8 8.3-17 1.8.7 2.3 7.4.6 7.4-.5 0-1 2.1-1 4.6 0 2.5-.5 5.5-1.2 6.7-.6 1.2-1.5 4.2-1.9 6.7-.4 2.5-1.5 7.6-2.4 11.5-.9 3.8-2 9.7-2.6 13-.5 3.2-1.4 6.4-1.9 6.9-.6.6-1 2.5-1 4.4 0 1.8-.5 4.2-1 5.2-.6 1.1-1.3 4.6-1.7 8-.3 3.3-.9 6-1.3 6-.5 0-1 2.4-1.3 5.2-.6 6.3-2.9 16.4-4 17.4-.4.4-.7 2.2-.7 4 0 1.8-.5 4.5-1.2 6.1-.6 1.5-1.5 5-1.9 7.8-1.4 8.6-3.4 17.3-4.1 18.1-.5.4-.8 2.9-.8 5.5s-.4 5-.9 5.3c-.5.3-1.2 3-1.6 6.1-.3 3-1.1 5.7-1.6 6-.5.4-.9 2.4-.9 4.6 0 2.2-.7 5.6-1.5 7.6-.8 1.9-1.5 5-1.5 6.8 0 1.7-.3 3.5-.7 3.9-.5.4-1.3 4-1.9 7.9l-1.1 7.1 3.3 3c1.8 1.7 5.1 4.7 7.4 6.6 2.3 1.9 5.6 4.7 7.2 6.3 1.6 1.5 3.1 2.7 3.3 2.7.5 0 5.2 3.9 8.1 6.7.7.7 1.7 1.3 2.3 1.3.6 0 1.1.7 1.1 1.5s.4 1.5.8 1.5c.5 0 1.7.8 2.8 1.7 1.1 1 4.6 4 7.9 6.8 3.3 2.7 6.2 5.3 6.3 5.7.2.5.7.8 1.2.8.4 0 2.5 1.7 4.7 3.7 5.5 5.3 8.2 7.3 9.3 7.3.6 0 1 .7 1 1.5s.3 1.5.8 1.5c.4 0 1.9 1 3.3 2.3 1.5 1.2 4.8 4 7.5 6.2s6.6 5.7 8.7 7.7c2.2 2.1 4.1 3.8 4.4 3.8.2 0 1 .6 1.7 1.3.7.6 2.8 2.3 4.6 3.7 1.9 1.4 4.6 3.7 6.2 5.2 1.6 1.6 3.1 2.8 3.3 2.8.2 0 1.8 1.2 3.4 2.7 1.7 1.6 4.8 4.4 7.1 6.3 2.3 1.9 5.6 4.8 7.4 6.5 6.4 5.8 9.6 8.5 10.1 8.5.3 0 1.6 1.1 2.9 2.5 1.3 1.4 2.6 2.5 3 2.5.4 0 1.3.6 2 1.2.8.7 3.9 3.5 7.1 6.3 3.2 2.7 7.8 6.9 10.2 9.2 2.5 2.4 4.8 4.3 5.2 4.3.4 0 3.2 2.3 6.1 5 2.9 2.8 5.5 5 5.7 5 .4 0 2.6 1.9 9.5 8.2 1.6 1.6 3.2 2.8 3.5 2.8.2 0 1.8 1.2 3.3 2.7 1.6 1.6 4.8 4.4 7.1 6.3 2.2 1.9 4.7 4.1 5.4 4.7.8.7 1.8 1.3 2.4 1.3.6 0 1.1.7 1.1 1.5s.5 1.5 1 1.5c.6 0 2.3 1.1 3.8 2.4 4.8 4.3 7.6 6.7 11.1 9.4 1.8 1.5 4.8 4 6.6 5.7 5.9 5.4 9.5 8.5 10 8.5.3 0 1.6 1 2.8 2.3 1.2 1.3 4.8 4.5 8 7 3.2 2.6 6.8 5.6 8 6.7 2.6 2.5 4.7 2.5 7.3.2 1.1-.9 4.6-3.9 7.9-6.7 3.3-2.7 6.5-5.4 7.1-6 .6-.5 3-2.6 5.4-4.5 2.4-1.9 5.2-4.3 6.2-5.2 1-1 2.3-1.8 2.8-1.8.6 0 1-.6 1-1.3 0-.8 1.1-2 2.5-2.7 1.4-.7 2.5-1.7 2.5-2.2 0-.4.4-.8 1-.8.5 0 2.4-1.5 4.3-3.3 5-4.8 8.6-7.7 9.7-7.7.6 0 1-.7 1-1.5s.6-1.5 1.3-1.5c1.1-.1 3.5-2.1 14.4-12.1 1.8-1.6 3.5-2.9 3.7-2.9.3 0 1.9-1.2 3.6-2.8 7.7-7 9.1-8.2 9.5-8.2.2 0 1.9-1.5 3.7-3.3 1.8-1.8 5.3-4.8 7.8-6.7 2.5-1.9 5.5-4.5 6.6-5.8 1.2-1.2 2.4-2.2 2.8-2.2.3 0 2.3-1.7 4.4-3.8 5.3-5.1 10.1-9.2 10.8-9.2.4 0 1.7-1.1 3-2.5s2.6-2.5 2.9-2.5c.4 0 1.2-.6 1.9-1.3.8-.6 3.9-3.5 7-6.2 3.2-2.8 7.2-6.4 9.1-8 1.8-1.7 4.7-4.1 6.5-5.5 1.8-1.4 4-3.2 4.9-4 .9-.9 4.1-3.6 7.1-6 5.5-4.5 7.1-5.9 16.5-14.4 2.8-2.5 5.3-4.6 5.8-4.6.4 0 2.3-1.6 4.1-3.5 1.9-1.9 3.9-3.5 4.5-3.5.6 0 1.1-.7 1.1-1.5s.4-1.5 1-1.5c.5 0 1.9-.8 3.1-1.8 1.1-.9 3.3-2.7 4.7-3.9 1.5-1.3 3-2.3 3.5-2.3.4 0 .7-.7.7-1.5s.6-1.5 1.4-1.5c.8 0 1.6-.4 1.8-.8.2-.5 3-3 6.3-5.7 3.3-2.6 7.5-6.3 9.3-8.1 1.8-1.9 3.5-3.4 3.8-3.4.4 0 5.1-4 8-6.8.7-.6 1.5-1.2 1.9-1.2.3 0 1.6-1.1 2.9-2.5 1.3-1.4 2.6-2.5 3-2.5.4 0 1.9-1.2 3.5-2.8 1.6-1.5 4.9-4.6 7.3-6.9l4.4-4.1-1-7c-.6-3.9-1.4-7.4-1.8-7.8-.5-.4-.8-2.4-.8-4.5 0-2-.7-5-1.5-6.5-.8-1.6-1.5-4.8-1.5-7.1s-.4-4.4-.9-4.8c-.5-.3-1.3-3-1.6-6-.4-3.1-1.1-5.8-1.6-6.1-.5-.3-.9-2.7-.9-5.3 0-2.6-.3-5.1-.7-5.5-.8-.8-2.8-9.5-4.2-18.1-.4-2.8-1.3-6.3-1.9-7.8-.7-1.6-1.2-4.3-1.2-6.1 0-1.8-.3-3.6-.7-4-1-1-3.3-10.8-3.9-16.6-.3-2.5-.8-5.2-1.1-6-.8-1.9-3.2-13.2-4-18.5-.3-2.2-.9-4.5-1.4-5.1-.6-.7-1.2-3.6-1.6-6.5-.3-3-.9-5.9-1.3-6.4-.4-.6-1.1-3.6-1.4-6.7-.4-3.2-1.2-6-1.7-6.3-.5-.4-.9-2.4-.9-4.6 0-2.2-.7-5.6-1.5-7.6-.8-1.9-1.5-5.3-1.5-7.4 0-2.1-.4-4.1-1-4.4-1.8-1.1-1.2-6.3.9-7 4.4-1.4 5.3.5 8 17.1.5 2.8 1.4 6.1 2 7.2.6 1.1 1.1 3.8 1.1 5.9 0 2.2.4 4.3 1 4.9.5.5 1.4 3.9 2 7.4 1.3 7.9 2.4 13.4 4.5 22.5.9 3.8 2 9 2.4 11.5.4 2.5 1 5.1 1.5 5.8.4.7 1.2 3.7 1.6 6.5.5 2.9 1.6 8.3 2.5 12.2.9 3.8 1.9 9.2 2.2 12 .3 2.7.9 5.5 1.3 6 .5.6 1.2 3.4 1.6 6.3.4 2.9 1.1 5.5 1.5 5.8.5.3.9 2.3.9 4.4 0 2.1.7 4.5 1.5 5.4.8.8 1.5 3.2 1.5 5.5 0 2.2.5 4.3 1 4.6.6.4 1-1.1 1-3.9 0-2.5-.4-4.8-1-5.1-.5-.3-1-3.6-1-7.3 0-3.7-.5-8.3-1.1-10.2-.6-1.9-1.5-7.6-2-12.5-.4-5-1.5-14-2.4-20-1-6.1-2.1-14.8-2.5-19.5-.5-4.7-1.6-13.5-2.4-19.5-.9-6.1-2-15.1-2.5-20.1-.5-5.1-1.2-9.7-1.6-10.4-.9-1.5-2.4-18.8-1.7-21.2.4-1.6 1.5-1.8 9.1-1.8l8.6.1 1.8 3.8c.9 2 1.7 4.6 1.7 5.6 0 1.9.6 4.1 3.4 13.1.9 2.9 1.6 6.2 1.6 7.5.1 1.3.7 3.5 1.5 4.9.8 1.4 1.4 3.7 1.5 5.3 0 1.5.4 3.5.9 4.5 1.4 3 4.1 11.9 4.1 13.8 0 1.1.6 3.9 1.4 6.4.8 2.5 2 6.5 2.6 9 .6 2.5 1.8 6.5 2.6 9s1.4 5.6 1.4 7c0 1.5.4 3 .9 3.5 1.2 1.2 3.2 8.6 3.8 14.2.3 2.4.9 4.3 1.4 4.3.4 0 1.1 1.7 1.4 3.7.4 2.1 1.3 5.5 2.1 7.6.8 2 1.4 5.1 1.4 6.7 0 1.6.5 3.2 1 3.5.6.3 1 2.1 1 4s.4 3.6.9 4c.6.3 1.3 2.6 1.7 5 .3 2.5 1 4.8 1.5 5.1.5.3.9 1.8.9 3.4 0 2.8 1.5 4.8 2.7 3.6.3-.3-.2-4.3-1.1-8.8-.9-4.6-1.6-10.9-1.6-14 0-3.2-.4-7.7-1-10-1.1-4.9-2.8-18.3-4-30.8-2.1-23-3.2-31.7-4-33.8-.6-1.3-1-5.3-1-9s-.5-8.5-1.1-10.7c-.5-2.2-1.4-8.3-1.9-13.5-.6-5.2-1.4-12.8-1.9-16.9-1.3-11.3-1.4-11.1 9-11.1 7.2 0 8.9.3 8.9 1.5 0 .8.4 1.5.9 1.5s1.2 1.8 1.6 4c.4 2.2 1.1 4.2 1.6 4.6.5.3.9 2 .9 3.7 0 1.8 1.1 6.3 2.5 10.2 1.3 3.8 2.5 8.1 2.5 9.5 0 1.4.7 3.4 1.5 4.4.8 1.1 1.5 2.8 1.5 3.9 0 2.1 2.7 11.4 4.1 13.9.5 1 .9 2.6.9 3.7 0 2.9 3.1 14.5 4.1 15.5.5.6.9 2.2.9 3.7s.7 4 1.5 5.5c.8 1.6 1.5 4.1 1.5 5.5 0 1.4.3 2.9.7 3.3.8.8 2.9 8.2 4 14.1.3 1.6 1.2 3.9 1.9 5 .8 1.1 1.4 3.6 1.4 5.7 0 2 .5 4 1 4.3.6.3 1 2 1 3.6 0 1.7.5 4 1.2 5.2.6 1.2 1.5 3.8 1.9 5.7 2 8.6 3.4 13 4.2 13 1.3 0 .2-14.3-1.7-22.5-.9-3.9-2.1-10.4-2.5-14.5-.5-4.1-1.4-9.8-1.9-12.5-.6-2.8-1.6-8.2-2.1-12-.5-3.9-1.5-9.9-2.2-13.5-.6-3.6-1.5-9.2-1.9-12.5-1.2-9.2-3.1-19.7-4.1-23.1-.5-1.7-.9-4.7-.9-6.7 0-1.9-.5-4.8-1.1-6.4-1-2.5-1.6-5.9-3.5-22.6l-.6-4.7h18l1.6 3.4c.9 1.9 1.6 4.1 1.6 4.9 0 .9.5 1.9 1 2.2.6.3 1 1.6 1 2.9 0 1.2.7 3.1 1.5 4.2.8 1 1.5 3.1 1.5 4.6 0 1.5.4 2.9.9 3.3.5.3 1.2 2 1.6 3.8.9 4.2 2.5 9.5 4.2 13.4.7 1.7 1.3 4 1.3 5.2 0 1.2.5 2.1 1 2.1.6 0 1 1.2 1 2.7.1 1.6.7 3.9 1.5 5.3s1.4 3.5 1.5 4.7c0 1.3.5 2.3 1 2.3.6 0 1 1 1 2.2 0 1.3.7 3.6 1.5 5.2.8 1.5 1.5 4.1 1.5 5.7 0 1.5.5 3.1 1 3.4.6.3 1 1.4 1 2.3 0 .9.7 3 1.5 4.6.8 1.5 1.5 3.8 1.5 5 0 1.1.7 3 1.5 4 .8 1.1 1.5 3.2 1.5 4.7s.5 3.1 1 3.4c.6.3 1 1.4 1 2.3 0 .9.7 3 1.5 4.6.8 1.5 1.5 3.9 1.5 5.2 0 1.2.5 2.6 1 2.9.6.3 1 1.6 1 2.8 0 1.2.7 3.5 1.5 5.1.8 1.5 1.5 3.8 1.5 5 0 1.2.7 3.1 1.5 4.2.8 1 1.5 2.8 1.5 3.8 0 2.5 3.2 9.5 4.4 9.6 1 0 .3-5.3-1.9-14-.9-3.6-2-8.8-2.5-11.6-.4-2.8-1.3-6.1-1.9-7.2-.6-1.1-1.1-3.9-1.1-6.1 0-2.2-.4-4.2-.9-4.6-.5-.3-1.2-3.1-1.6-6.3-.3-3.1-1-6.5-1.5-7.4-.6-1-1-3.7-1-6.1 0-2.4-.4-4.7-.9-5.3-.9-.9-2.6-8.7-4-18.7-.5-3.1-1.3-6.3-1.9-7-.5-.6-1.2-3.2-1.5-5.7-.8-7.1-2.9-16.5-3.7-17-.4-.3-1-3-1.3-6-.6-7-2.5-15.9-3.8-18.6-.6-1.1-.9-3.6-.7-5.5l.3-3.4 8.3-.3c9.2-.3 10.7.3 11.7 4.9.4 1.6 1.1 2.9 1.6 2.9s.9 1.3.9 2.8c0 1.6.7 3.7 1.5 4.8.8 1 1.5 2.6 1.5 3.5 0 1.5 1.8 5.9 4.1 10.1.5 1 .9 2.8.9 4 0 1.3.7 3.2 1.5 4.2.8 1.1 1.5 3 1.5 4.2 0 1.3.5 2.6 1 2.9.6.3 1 1.7 1 3.1 0 1.3.4 2.4.8 2.4.5 0 1.7 2.8 2.7 6.2 1 3.5 2.4 7.6 3.1 9.3.6 1.6 2 5 2.9 7.5.9 2.5 2.1 5.3 2.6 6.2.5 1 .9 2.8.9 4 0 1.3.7 3.2 1.5 4.2.8 1.1 1.5 2.7 1.5 3.7 0 .9.7 3 1.5 4.5.8 1.6 1.5 3.7 1.5 4.6 0 1 .4 1.8.9 1.8s1.1 1.8 1.5 4c.3 2.2 1.1 4 1.6 4 .6 0 1 .8 1 1.9 0 1 .7 3.2 1.5 4.7.8 1.6 1.5 3.7 1.5 4.6 0 .9.5 2 1 2.3.6.3 1 1.9 1 3.6 0 1.6.4 2.9.9 2.9s1.2 1.3 1.6 3c.4 1.6 1.1 3.2 1.6 3.5.5.4.9 2 .9 3.6 0 1.7.6 3.2 1.5 3.5.9.4 1.5 1.9 1.5 3.9s.6 3.5 1.5 3.9c.8.3 1.5 1.5 1.5 2.6s.5 2 1 2c1.3 0 1.3-6.7.1-7.5-.6-.3-1.3-2.7-1.6-5.3-.3-2.6-1-5.5-1.6-6.4-.5-1-.9-3.1-.9-4.8 0-1.7-.7-4.7-1.5-6.7-.8-1.9-1.5-5.3-1.5-7.4 0-2.1-.4-4-.9-4.3-.4-.3-1.1-2.9-1.5-5.8-.4-2.9-1.1-5.7-1.6-6.3-.4-.5-1-3-1.3-5.5-.9-7.3-2.7-16.1-3.7-18.1-.6-1-1-3.5-1-5.6-.1-2.1-.7-4.9-1.5-6.3-.8-1.4-1.4-4-1.5-5.8 0-1.8-.4-4-.9-5-1-1.9-2.8-10.1-4-17.7-.4-2.8-1.2-6-1.9-7.2-.7-1.2-1.2-4.1-1.2-6.5 0-2.4-.4-4.8-.9-5.4-.5-.5-1.1-2.9-1.4-5.4-.3-2.5-.9-6-1.3-7.9-.7-3.6.4-5.1 4.3-5.1 3.1 0 5.3 2.6 5.3 6.5 0 1.9.5 3.7 1 4 .6.3 1 2.8 1 5.4 0 2.6.7 5.6 1.5 6.7.8 1 1.5 4 1.5 6.6 0 2.7.4 4.8.9 4.8.8 0 2.7 8.3 3.7 16.5.3 2.2.8 4.7 1.1 5.5.9 2 3.2 12.3 4.2 18.3.4 2.6 1.3 5.3 1.9 5.9.7.7 1.2 3.3 1.2 5.8 0 2.6.3 5 .7 5.4.8.7 2.6 8.1 4.3 17.1.5 2.7 1.7 8.1 2.5 12 .9 3.8 1.9 9 2.3 11.5.4 2.5 1.2 5.2 1.7 6 .5.8 1.3 3.7 1.6 6.5 1 7 2.8 14.7 3.9 16.7.6 1 1 3.1 1 4.7 0 1.5.7 4.8 1.5 7.1s1.5 6 1.5 8.1c0 2.2.5 3.9 1 3.9.6 0 1 1.5 1 3.4 0 1.8.7 5.3 1.5 7.6s1.5 5.5 1.5 7.1c0 1.5.4 3.8.9 5.1.5 1.3 1.7 5.9 2.6 10.3.9 4.4 2.1 9.8 2.7 12 .6 2.2 1.5 6 1.9 8.5 2.4 13.3 2.9 15.8 4.2 19.2 1.8 5 2.5 5.5 3.3 2.4.3-1.4 1-2.6 1.4-2.6.4 0 1-2.1 1.3-4.7.3-2.6 1-4.9 1.6-5.1.6-.2 1.1-1.7 1.1-3.2 0-1.6.4-3.1.9-3.5.6-.3 1.3-2.6 1.7-5 .3-2.5 1-4.5 1.5-4.5s.9-1.5.9-3.4.4-3.7.9-4c.5-.4 1.2-2.4 1.6-4.6.4-2.2 1.1-4 1.6-4s.9-2.7.9-6-.4-6-1-6c-.5 0-1-.7-1-1.6 0-.9-.6-3-1.4-4.7-.7-1.8-2.2-5.9-3.1-9.2-1-3.3-2.1-6.4-2.6-7-.5-.5-.9-1.8-.9-3 0-1.1-.7-2.9-1.5-3.9-.8-1.1-1.5-3-1.5-4.2 0-1.3-.4-2.5-.9-2.8-.5-.4-1.2-2.4-1.6-4.6-.4-2.2-1-4-1.5-4-.4 0-1-1.2-1.3-2.8-.7-3.7-4.6-15.1-6.3-18.4-.8-1.4-1.4-3.5-1.4-4.6 0-1.2-.4-2.4-1-2.7-.5-.3-1-1.5-1-2.7 0-1.1-.6-3.2-1.4-4.6-.7-1.5-2.1-5.2-3.1-8.2-.9-3-2-6.4-2.4-7.5-2-5.1-3.3-9.2-3.8-11.5-.3-1.4-.9-3-1.3-3.5-.4-.6-1.5-3.5-2.5-6.5s-2.4-6.7-3.1-8.2c-.8-1.4-1.4-3.5-1.4-4.5s-.4-2.3-.9-2.9c-.4-.5-1.6-3.4-2.6-6.4-1-3-2.9-8.4-4.1-12-1.3-3.6-2.4-7.2-2.4-8 0-.8-.7-2.4-1.5-3.4-.8-1.1-1.5-2.7-1.5-3.7 0-.9-.7-3-1.5-4.5-.8-1.6-1.5-3.7-1.5-4.7 0-.9-.4-1.7-1-1.7-.5 0-1-1.3-1-2.8 0-1.5-.4-3.2-.9-3.8-.4-.5-1.6-3.4-2.6-6.4-1-3-2.4-6.7-3.1-8.2-.8-1.4-1.4-3.3-1.4-4.1 0-.8-.7-2.8-1.5-4.3-.8-1.6-1.5-3.7-1.5-4.7 0-.9-.4-1.7-1-1.7-.5 0-1-.5-1-1.1 0-1.6-6.3-6.9-8.2-6.9-1 0-1.8-.4-1.8-.9s-1.7-2-3.7-3.2c-2.1-1.3-4-2.5-4.3-2.8-.3-.4-2.2-1.5-4.2-2.5-2.1-1.1-3.8-2.2-3.8-2.6 0-.4-.8-1-1.7-1.4-2.3-.7-5-2.5-8.2-5.4-1.4-1.2-3.4-2.2-4.3-2.2-1 0-1.8-.5-1.8-1 0-.6-1.1-1-2.4-1-1.4 0-2.8.4-3.1 1-.3.5-2.6 1-5 1s-4.6.4-4.9.9c-.4.5-2.9 1.2-5.6 1.6-2.7.4-5.2 1.1-5.6 1.6-.3.5-2 .9-3.7.9-1.8.1-4.3.7-5.7 1.5-1.4.8-3.8 1.4-5.3 1.5-3 0-12 2.5-14.9 4.1-1 .5-2.9.9-4.2.9-3.1 0-14.5 2.7-16.8 4-1 .6-3 1-4.4 1-1.4 0-4.7.7-7.3 1.5-2.5.7-6.6 1.9-9.1 2.6-2.5.6-6.5 1.8-8.9 2.5-2.5.8-5.6 1.4-7.1 1.4-1.4 0-3 .4-3.5.9-1 .9-7 2.4-17 4.1-2.7.4-5.8 1.1-6.7 1.5-1.3.5-1.8.2-1.8-.9 0-.9 1.1-2.1 2.5-2.6s2.5-1.4 2.5-2c0-.5.7-1 1.5-1s1.5-.4 1.5-.9.9-1.2 1.9-1.6c1.1-.3 3.8-2.4 6.1-4.5 2.4-2.2 4.9-4 5.6-4 .8 0 1.4-.5 1.4-1 0-.6.7-1 1.5-1s1.5-.3 1.5-.8c0-.4 2.3-2.3 5-4.2 2.7-1.9 5-3.8 5-4.3 0-.4.7-.7 1.5-.7s1.5-.4 1.5-1c0-.5 1.1-1.2 2.5-1.6 1.4-.3 2.5-.9 2.5-1.3 0-.3 1.7-1.7 3.7-3.1 4.9-3.3 7.2-5.1 9.2-7.3.8-.9 2-1.7 2.6-1.7.6 0 2.2-1.1 3.7-2.5s3-2.5 3.4-2.5c.7 0 7.5-5.2 11.4-8.7 1.4-1.3 3-2.3 3.7-2.3.7 0 1.3-.5 1.3-1 0-.6.6-1 1.4-1 .8 0 1.6-.7 2-1.5.3-.8 1.1-1.5 1.8-1.5s3.3-1.8 5.8-4 4.8-4 5.2-4c.4 0 1.9-1.1 3.4-2.5s3.3-2.5 3.9-2.5c.7 0 1.5-.7 1.9-1.5.3-.8 1.2-1.5 2.1-1.5.8 0 1.5-.5 1.5-1 0-.6.5-1 1-1 .6 0 2.1-.9 3.3-2.1 3.4-3.2 14.4-10.9 15.6-10.9.6 0 1.1-.7 1.1-1.5s.6-1.5 1.3-1.5c.7 0 2.4-1.1 3.9-2.5s3.2-2.5 3.8-2.5c.5 0 1-.5 1-1 0-.6.5-1 1-1 1.1 0 2.4-1 6.1-4.3 1-.9 2.2-1.7 2.5-1.7.3 0 1.1-.6 1.9-1.3.7-.6 2.5-2.1 3.9-3.1s2.6-2.3 2.6-2.7c0-1.4-4.5-1-6.6.6-1 .8-2.7 1.5-3.7 1.5-.9 0-2.5.4-3.5.9-.9.5-4.5 1.9-8 3.1-3.4 1.3-6.5 2.7-6.8 3.1-.3.5-2.1.9-4 .9s-3.4.4-3.4.9c0 .9-8.8 4.1-11.4 4.1-.9 0-1.6.4-1.6 1 0 .5-.8 1-1.7 1-1 0-3.1.7-4.7 1.5-1.5.8-3.6 1.5-4.5 1.5-.9 0-2.5.7-3.5 1.5-1.1.8-3 1.5-4.3 1.5-1.3 0-2.3.4-2.3.9s-1.8 1.2-4 1.6c-2.2.4-4 1.1-4 1.6s-.8.9-1.7.9c-2.4 0-12.8 3.7-18.6 6.6-1.6.8-3.7 1.4-4.7 1.4s-2.1.4-2.4.9c-.4.5-2.4 1.2-4.6 1.6-2.2.4-4 1.1-4 1.6s-1.1.9-2.4.9c-1.4 0-2.8.4-3.1 1-.3.5-1.6 1-2.9 1-1.2 0-3.1.7-4.2 1.5-1 .8-2.8 1.5-4 1.5-1.1 0-2.9.7-4 1.5-1 .8-2.7 1.5-3.7 1.5-.9 0-4 1.1-6.9 2.5-2.8 1.4-5.8 2.5-6.6 2.5-.8 0-2.6.6-4 1.4-1.5.8-4.7 1.9-7.2 2.6-2.5.6-5.8 1.8-7.3 2.6-1.6.8-3.7 1.4-4.7 1.4s-2 .4-2.2 1c-.1.5-1.4 1.1-2.8 1.2-2.3.3-2.5 0-2.2-3.2.2-1.9.8-3.7 1.3-3.8.5-.2.9-.8.9-1.4 0-1.1 2.3-6.6 4.6-11.1.8-1.6 1.4-3.5 1.4-4.3 0-.9 1.2-4.1 2.6-7.2 1.4-3.1 3.2-7.3 4-9.2.8-1.9 1.9-4.3 2.4-5.2.6-1 1-2.4 1-3.2 0-.7.7-1.9 1.5-2.6.8-.7 1.5-2 1.5-3 0-1.5 1.7-5.9 4.1-10.2.5-1 .9-2.6.9-3.5 0-1 .7-2.7 1.5-3.7.8-1.1 1.5-2.8 1.5-3.8s.5-1.8 1-1.8c.6 0 1-1.1 1-2.5s.7-2.8 1.5-3.1c.8-.4 1.5-1.4 1.5-2.4 0-1.5 1.7-5.9 4.1-10.2.5-1 .9-2.7.9-3.8 0-1.1.5-2 1-2 .6 0 1-1.1 1-2.4 0-1.3.7-2.9 1.5-3.6.8-.7 1.5-2.5 1.5-4 0-1.6.7-3 1.5-3.4.8-.3 1.5-1.5 1.5-2.6s-.7-2-1.5-2-1.5.4-1.5.8-1.2 1.5-2.7 2.4c-1.6.9-3.9 2.7-5.3 4-1.4 1.3-4.1 3.2-6 4.2-1.9 1.1-4.4 2.9-5.5 4.1-1.1 1.2-3.5 3-5.3 4-1.8 1.1-3.2 2.3-3.2 2.7 0 .4-.6.8-1.2.8-1.2 0-4.6 2.5-9 6.4-1 .9-2.2 1.6-2.8 1.6-.5 0-1 .3-1 .8 0 .4-1.6 1.6-3.5 2.6-1.9 1.1-3.5 2.5-3.5 3.3 0 .7-.7 1.3-1.5 1.3s-1.5.4-1.5.9-.8 1.1-1.7 1.5c-2.8.9-8.2 4.7-12.5 8.8-1 1-2.2 1.8-2.8 1.8-.5 0-1 .4-1 .9s-.8 1.1-1.7 1.5c-2.3.7-4.8 2.4-8.4 5.6-4.8 4.3-5.8 5-6.9 5-.5 0-1 .3-1 .8 0 .4-1.8 1.8-4 3.2-2.2 1.4-4 2.8-4 3.2 0 .5-.7.8-1.5.8s-1.5.4-1.5 1c0 .5-.5 1-1 1-.9 0-4.7 3-8.6 6.8-3.3 3.2-4.5-2-1.9-8.1.8-2 1.5-5.4 1.5-7.6 0-2.2.5-4.3 1-4.6.6-.3 1-2.4 1-4.5s.5-5.1 1.1-6.7c.6-1.5 1.5-5.3 1.9-8.3.5-3 1.6-8.4 2.5-12 .9-3.6 2-9 2.5-12 .4-3 1.2-6.9 1.8-8.5.6-1.7 1.6-6.4 2.2-10.5.6-4.1 1.6-9.1 2.2-11 .7-1.9 1.6-5.8 2-8.5.5-2.8 1.1-6.5 1.5-8.3.3-1.7.2-3.2-.3-3.2-.9 0-6.4 6.1-6.4 7.2 0 .4-.7.8-1.5.8s-1.5.4-1.5 1c0 1-2.6 4.4-6.2 8.2-1 1-1.8 2.2-1.8 2.8 0 .5-.4 1-1 1-.5 0-1 .7-1 1.5s-.5 1.5-1.1 1.5c-1.1 0-3.9 2.4-3.9 3.4 0 .3-.8 1.5-1.7 2.5-1 1.1-3.4 3.8-5.3 6.2-1.9 2.3-4.6 5.3-6 6.8-1.4 1.5-4.1 4.7-6 7.1-1.9 2.5-4.9 6-6.7 7.7-1.8 1.8-3.3 3.5-3.3 3.7 0 .5-4.7 6.1-8.2 9.9-1.6 1.6-2.8 3-2.8 3.3 0 .4-1 1.6-6.1 7.4-1.2 1.4-2.8 3.5-3.7 4.8-1.5 2.3-1.5 2.3-3.3.3-1.7-1.8-1.9-3.8-1.9-16.3 0-7.9-.7-22.9-1.5-33.3-.8-10.5-1.5-26.7-1.5-36.2 0-9.4-.4-18.3-1-19.7-1.1-3-3-3.3-5-.8-3.8 4.5-7 9.2-7 10.1 0 .6-.4 1.1-.8 1.1s-1.9 1.8-3.2 4c-1.4 2.2-2.8 4-3.2 4-.5 0-.8.5-.8 1 0 .6-1.1 2.3-2.5 3.8s-2.5 3.1-2.5 3.7c0 .6-.8 1.8-1.7 2.6-2.6 2.2-6.3 7.2-6.3 8.3 0 .5-1 1.8-2.2 3-1.3 1.2-4.4 5.3-7 9.1-2.6 3.9-5.6 8-6.7 9.2-1.2 1.2-2.1 2.5-2.1 2.8 0 .9-8.1 11.9-9.8 13.2-2.1 1.7-3.2.7-3.2-2.8 0-1.6-.7-4.6-1.5-6.6-.8-1.9-1.5-5.5-1.5-7.9 0-2.5-.4-5.2-1-6.2-.5-.9-1.4-5.1-2-9.2-1.9-13.1-2.8-18.3-4.4-26.5-.9-4.4-2-10.8-2.5-14.2-.5-3.4-1.3-6.7-1.7-7.5-.5-.7-1.2-4-1.6-7.3-1.2-10.7-3.3-19.8-4.5-20.3-.7-.2-1.5.2-1.7 1zM561 155.6c0 .8.3 1.4.8 1.4.4 0 2.3 3.4 4.2 7.5 1.9 4.1 3.8 7.5 4.3 7.5.4 0 .7.6.7 1.4 0 .8.6 2.1 1.3 2.8.6.7 2 2.9 2.9 4.8 1 1.9 2.2 4.2 2.7 5 .5.8 1.2 2.2 1.5 3 .3.8 1.9 3.7 3.6 6.5 1.6 2.7 3.2 5.7 3.6 6.5.3.8 1 2.3 1.5 3.2 1.5 2.9 1 4.6-1.3 5.4-1.3.3-3.1 1.3-4 2.1-2.3 2-4.6 1-5.8-2.4-.6-1.6-1.5-3.6-2-4.5-.6-1-1-2.8-1-4 0-1.3-.7-3.2-1.5-4.2-.8-1.1-1.5-2.9-1.5-4.1 0-1.2-.3-2.5-.6-2.8-1.1-1.1-4.3-11.1-4.4-13.5 0-1.2-.4-2.2-1-2.2-.5 0-1.3-1.8-1.6-4-.4-2.2-1-4-1.5-4s-.9-1.3-.9-2.8c0-1.6-.7-3.7-1.5-4.8-.8-1-1.5-3.2-1.5-4.8 0-2.4.2-2.7 1.5-1.6.8.7 1.5 1.9 1.5 2.6zm133 .2c0 .9-.7 2.6-1.5 3.6-.8 1.1-1.5 3.2-1.5 4.8 0 1.5-.4 2.8-.9 2.8s-1.2 1.8-1.6 4c-.4 2.2-1.1 4-1.6 4s-.9 1-.9 2.2c-.1 2.4-3.3 12.4-4.4 13.5-.3.3-.6 1.5-.6 2.6 0 1-.6 3.1-1.4 4.5-.7 1.5-2.2 5.2-3.2 8.2-1 3-2.4 6.1-3.1 6.8-1.4 1.4-5.3.8-5.3-.9 0-.5-.6-.9-1.4-.9-2.8 0-3.9-2.7-2.5-6.2.7-1.8 1.6-3.5 1.9-3.8.4-.3 1.3-1.9 2.1-3.5.9-1.7 3.4-6.4 5.6-10.5 2.3-4.1 4.9-9.1 5.9-11 1.1-1.9 2.1-3.7 2.4-4 1.1-1.2 4-7.3 4-8.6 0-.8.5-1.4 1-1.4.6 0 1-.6 1-1.4 0-.8.6-2.1 1.3-2.8.7-.7 1.6-2.1 2-3.1.8-2.1 2.7-1.3 2.7 1.1zm-142.1 13.5c.6.6 1.1 2.3 1.1 3.8s.7 4 1.5 5.5c.8 1.6 1.5 3.7 1.5 4.6 0 .9.5 2 1 2.3.6.3 1 2.3 1 4.3s.7 4.6 1.5 5.6c.8 1.1 1.5 3.4 1.5 5.2 0 1.8.4 3.5.9 3.9.6.3 1.3 2.6 1.7 5 .3 2.5 1.1 4.5 1.6 4.5s.8 1.7.6 3.7c-.2 3.1-.7 3.9-2.5 4.1-1.3.2-2.3.8-2.3 1.3s-1.3.9-3 .9c-2.5 0-3-.5-3.9-3.8-.5-2-1.2-8-1.4-13.2-.9-16.6-2.7-35.4-3.7-38.6-.6-1.7-.7-4-.3-5 .6-1.6.8-1.3 1.4 1.4.4 1.9 1.2 3.9 1.8 4.5zm151-1.6c-.9 5.1-2.7 24-3.9 41.3-1 13.6-1.5 15-5.1 15-1.6 0-2.9-.4-2.9-.9s-1-1.1-2.2-1.3c-1.9-.2-2.4-1-2.6-4.1-.2-2 .1-3.7.6-3.7s1.3-2 1.6-4.5c.4-2.4 1.1-4.7 1.7-5 .5-.4.9-2.1.9-3.9 0-1.8.7-4.1 1.5-5.2.8-1 1.5-3.6 1.5-5.6 0-2 .5-4 1-4.3.6-.3 1-1.6 1-2.9 0-1.2.7-3.1 1.5-4.2.8-1 1.5-3.3 1.5-4.9 0-1.7.7-3.9 1.5-4.9.8-1.1 1.5-3 1.5-4.4 0-1.3.4-2.1.9-1.8.4.3.5 2.7 0 5.3zm-73.5 44.2c.3.5 5 3 10.3 5.6 5.4 2.6 12.1 5.8 14.8 7.1 2.8 1.3 5.6 2.4 6.3 2.4.6 0 1.2.4 1.2.9s1.4 1.2 3 1.6c1.7.4 3 1.1 3 1.6s.8.9 1.9.9c1 0 2.4.7 3.1 1.5.7.8 2.1 1.5 3.1 1.5 1.1 0 1.9.4 1.9 1 0 .5.5 1 1.2 1 1.8 0 14.8 6.3 14.8 7.2 0 .4 1.1.8 2.4.8 1.4 0 2.7.4 3.1.9.3.5 3.6 2.3 7.3 4.1 3.7 1.7 9 4.1 11.7 5.4 2.8 1.3 5.7 2.7 6.5 3 .8.3 2.2 1 3 1.5.8.5 3.3 1.7 5.5 2.7 2.2 1.1 4.2 2.2 4.3 2.6.2.5 1 .8 1.7.8.8 0 3.5 1.1 6.1 2.5 2.6 1.4 5.3 2.5 5.9 2.5.7 0 1.8.7 2.5 1.5s2.1 1.5 3 1.5c1 0 2 .3 2.2.7.2.5 2 1.6 4.1 2.5 2 1 5.4 2.6 7.5 3.5 2 1 3.9 2.1 4 2.5.2.5 1.4.8 2.7.8 1.2 0 2.8.7 3.5 1.5.7.8 1.7 1.5 2.4 1.5 1.5 0 14 6.2 14.4 7.2.2.4.9.8 1.5.8.7 0 3.5 1.2 6.4 2.7l5.3 2.6v6.1c0 3.4.5 7.7 1.1 9.6.5 1.9 1.4 9.1 1.9 16 .6 6.9 1.7 18.8 2.5 26.5.9 7.7 2 19.2 2.5 25.5 1.5 18 2.6 26.4 3.7 28.5 2.8 5.6 4.2 9.4 4.8 13 1.5 9.6 1.9 19.6 1.2 27-.5 4.4-.9 11.8-.9 16.5-.1 11 2 34.8 3.2 37.8.6 1.3 1 5.8 1 10s.7 10.9 1.5 14.7c.8 3.9 1.5 10.2 1.5 14.1v7.1l-4.6 4.1c-2.5 2.3-4.8 4.2-5.1 4.2-.3 0-1.5 1-2.7 2.3-1.1 1.2-3.9 3.6-6.1 5.2-2.2 1.6-5.2 4.1-6.6 5.5-1.4 1.4-4.5 4.1-6.9 6-2.4 1.9-5.2 4.3-6.2 5.2-1 1-2.1 1.8-2.4 1.8-.4 0-1.6 1-2.8 2.2-1.1 1.3-4.1 3.9-6.6 5.8s-4.6 3.8-4.8 4.2c-.2.5-.9.8-1.6.8-.7 0-1.9 1.1-2.6 2.5-.7 1.4-1.7 2.5-2.2 2.5-.5 0-2.3 1.3-4.1 3-1.8 1.6-3.6 3-4 3-.5 0-2.9 2-5.5 4.5-6.6 6.2-11.6 10.5-12.4 10.5-.4 0-3 2.3-5.9 5.1-2.9 2.8-7 6.2-9.1 7.5-2.1 1.4-4.1 3.1-4.5 3.9-.3.8-.9 1.5-1.3 1.5-.8 0-5.2 3.6-10.2 8.2-1.6 1.6-3.1 2.8-3.4 2.8-.3 0-1.1.6-1.8 1.2-.7.7-3.2 2.9-5.7 4.8-2.4 1.9-5.5 4.6-6.9 6-1.4 1.4-4.5 4-7 5.9-2.5 1.9-5.5 4.5-6.6 5.8-1.2 1.3-2.5 2.3-2.9 2.3-.4 0-1.8 1.1-3.1 2.5s-2.6 2.5-2.9 2.5c-.6 0-2 1.1-5 3.7-.7.7-1.8 1.3-2.4 1.3-.6 0-1.1.7-1.1 1.5s-.5 1.5-1 1.5c-.6 0-2.1 1-3.3 2.3-1.2 1.2-3.9 3.5-6 5-2 1.6-4.9 3.9-6.4 5.3-1.4 1.3-3 2.4-3.4 2.4-.5 0-.9.7-.9 1.5s-.4 1.5-.9 1.5c-.9 0-4.1 2.4-8.2 6.2-1 1-2.1 1.8-2.4 1.8-.3 0-1.6 1.1-2.9 2.5-1.3 1.4-2.8 2.5-3.5 2.5-.6 0-1.1.4-1.1 1 0 .5-.9 1-2 1s-2-.5-2-1c0-.6-.5-1-1.1-1-.7 0-2.2-1.1-3.5-2.5-1.3-1.4-2.6-2.5-2.9-2.5-.3 0-1.4-.8-2.4-1.7-4.1-3.9-7.3-6.3-8.2-6.3-.5 0-.9-.7-.9-1.5s-.5-1.5-1.1-1.5c-.7 0-2.1-1-3.3-2.3-1.1-1.2-3.9-3.6-6.1-5.2-2.2-1.7-4.9-4-6.1-5.3-1.2-1.2-2.4-2.2-2.7-2.2-.4 0-2-1.2-3.6-2.8-4.1-3.7-5.9-5.2-6.5-5.2-.3 0-1.8-1.2-3.4-2.8-1.5-1.5-4.7-4.3-7.1-6.2-2.4-1.9-5.4-4.4-6.7-5.5-4.7-4.2-8.2-7.1-12.4-10.5-2.4-1.9-4.9-4.1-5.6-4.7-.7-.7-1.5-1.3-1.8-1.3-.3 0-1.8-1.2-3.4-2.8-4.6-4.3-9.1-8.2-9.7-8.2-.3 0-1.8-1.2-3.3-2.8-1.5-1.5-4.1-3.6-5.7-4.7-1.6-1.1-4.9-3.9-7.3-6.3-2.4-2.3-4.6-4.2-4.9-4.2-.5 0-2.4-1.6-6.4-5.3-1.6-1.5-3.2-2.7-3.4-2.7-.2 0-1.9-1.6-3.8-3.5s-3.9-3.5-4.6-3.5c-.6 0-3.6-2.5-6.7-5.5s-6-5.5-6.4-5.5c-.5 0-1-.3-1.2-.8-.1-.4-2.3-2.3-4.8-4.2-2.5-1.9-5.4-4.4-6.5-5.5-1.1-1.2-4-3.6-6.5-5.5-5.5-4.3-8.7-6.9-11.4-9.5-1.2-1.1-4.1-3.6-6.6-5.5s-5.5-4.5-6.6-5.8c-1.2-1.2-2.4-2.2-2.7-2.2-.3 0-2.6-1.9-5.1-4.2l-4.6-4.1v-7.6c0-4.2.5-9.4 1.1-11.6.6-2.2 1.5-9 1.9-15 .5-6.1 1.4-17 2.1-24.3 1.2-13 1.2-13.3-.9-15.2-1.2-1.1-2.6-2-3.2-2-1.9 0-.6-4.5 1.3-4.8 3.6-.7 5.7-3.5 5.7-7.7.1-2.2.5-6 1.1-8.5.5-2.5 1.4-9.9 1.9-16.5s1.6-19 2.5-27.5c.9-8.5 2-20.5 2.5-26.5 1.9-25.3 3.2-37.2 4.1-40.1.5-1.7.9-7.1.9-12 .1-4.9.7-11.6 1.5-14.9.8-3.3 1.5-8.7 1.5-12.1v-6.1l5.3-2.6c2.9-1.5 5.7-2.7 6.4-2.7.6 0 1.3-.4 1.5-.8.4-1.1 12.7-7.2 14.5-7.2.7 0 1.3-.4 1.3-.9s1-1.2 2.3-1.6c2.8-.8 12.5-5.2 19.2-8.7 8.5-4.5 19.9-9.8 21-9.8.7 0 1.5-.3 1.7-.8.4-1 6.7-4.2 8.4-4.2.8 0 1.4-.4 1.4-.9s1.4-1.2 3-1.6c1.7-.4 3-1 3-1.3 0-.4 2.1-1.5 4.8-2.6 4.3-1.7 14.7-6.6 18.2-8.5.8-.5 3.3-1.7 5.5-2.7 2.2-1.1 4.2-2.2 4.5-2.5.3-.3 2.8-1.4 5.5-2.4 2.8-1.1 5.2-2.1 5.5-2.4 1-1.1 7.2-4.1 8.5-4.1.7 0 1.5-.3 1.7-.8.3-.6 4.9-3.1 8.8-4.6.8-.3 2.2-1 3-1.5.8-.5 2.6-1.3 4-1.9 5.6-2.3 22.2-10.6 22.6-11.4.7-1.1 6.1-1 6.8.1zM410.9 217c.6 0 1.1.4 1.1 1 0 .5.7 1 1.5 1s1.5.5 1.5 1.1c0 1 2.4 3.9 3.3 3.9.5 0 10.1 8.6 14.9 13.2 1.5 1.6 3 2.8 3.2 2.8.3 0 4 3.4 8.2 7.5 4.2 4.1 8.1 7.5 8.5 7.5.5 0 .9.7.9 1.5s.5 1.5 1 1.5c1.5 0 9 7.1 9 8.4 0 1.3-6.4 5-7.7 4.5-1.1-.5-10.3-10.4-10.3-11.2 0-.3-3.4-4-7.5-8.2-4.1-4.3-7.5-8.1-7.5-8.5 0-.4-3.3-4.2-7.2-8.3-6.4-6.5-11.1-11.9-15.5-17.6-.7-.9-1.2-2.1-1.2-2.6 0-.6.6-.2 1.3.7.7 1 1.8 1.8 2.5 1.8zm433.6-2c.3.5.1 1-.4 1-.6 0-1.1-.5-1.1-1 0-.6.2-1 .4-1 .3 0 .8.4 1.1 1zm-2.5 3.2c0 1.4-6.3 8.9-15.2 18.2-3.2 3.3-5.8 6.3-5.8 6.6 0 .4-1.6 2.3-3.5 4.3s-3.5 4.1-3.5 4.7c0 .5-.6 1-1.2 1-.7.1-3 2.2-5 4.8-6.9 8.6-11.5 13.2-13.1 13.2-1 0-1.7-.4-1.7-.9s-1.1-1.2-2.5-1.5c-1.4-.4-2.5-1.2-2.5-1.8 0-1.3 6.9-8.8 8.2-8.8.4 0 4.8-4.1 9.8-9 5-5 9.3-9 9.6-9 .3 0 1.8-1.2 3.3-2.8 6.3-6.1 11.1-10.2 12.1-10.2.5 0 1-.7 1-1.5s.5-1.5 1.1-1.5c1.4 0 3.9-2.5 3.9-3.9 0-.6.7-1.1 1.5-1.1s1.5-.5 1.5-1c0-.6.5-1 1-1 .6 0 1 .6 1 1.2zm-433 16.6c1.9 2.6 4.1 5.1 4.7 5.5.7.4 1.3 1.5 1.3 2.2 0 .8.5 1.5 1 1.5.6 0 1 .7 1 1.5 0 .9.7 1.8 1.5 2.1.8.4 1.5 1 1.5 1.6 0 .5.6 1.6 1.3 2.3 2.9 3.3 3.7 4.5 3.7 5.5 0 .5.7 1 1.5 1s1.5.5 1.5 1c0 .6.5 1.6 1 2.3 1.4 1.7 6.5 8.5 9.6 13l2.7 3.8-2.1 1.9c-3.3 3.1-5.4 2.5-8.5-2.5-1.5-2.5-2.7-5-2.7-5.4 0-.5-.7-1.1-1.5-1.5-.8-.3-1.5-1.5-1.5-2.6s-.4-2-.8-2c-.5 0-1.8-1.9-3.1-4.3-4.1-7.7-7.4-13.2-8.2-13.5-.5-.2-.9-1.2-.9-2.3 0-1-.3-1.9-.7-1.9-1 0-4.3-5.8-4.3-7.5 0-.7-.4-1.5-.9-1.7-1.1-.4-2.5-4.8-1.4-4.8.4 0 2.4 2.2 4.3 4.8zm439-4c0 .5-.7 1.7-1.5 2.8-.8 1-1.5 2.6-1.5 3.6 0 .9-.3 1.8-.7 2-.5.1-1.7 2.1-2.8 4.3-1.1 2.2-2.6 4.6-3.2 5.3-.7.7-1.3 2-1.3 2.8 0 .8-.4 1.4-.9 1.4s-1.1.8-1.5 1.7c-.6 1.9-2.7 5.5-3.7 6.3-.4.3-.9 1.5-1.3 2.7-.4 1.3-1.2 2.3-1.7 2.3s-.9.9-.9 2c0 1-.6 2.3-1.3 2.7-.7.4-2.1 2.5-3.2 4.5-1.1 2.1-2.3 3.8-2.7 3.8-.5 0-.8.7-.8 1.5s-.9 1.5-2 1.5c-2.1 0-6-2.8-6-4.3 0-1 4.6-7.3 7.7-10.6 1.2-1.2 2.5-3.2 2.8-4.2.4-1 1.1-1.9 1.6-1.9s.9-.7.9-1.5.7-1.5 1.5-1.5 1.5-.5 1.5-1c0-1 .8-2.2 3.8-5.5.6-.7 1.2-1.8 1.2-2.3 0-.6.7-1.2 1.5-1.6.8-.3 1.5-1.1 1.5-1.9 0-.7 1.6-3 3.5-5s3.5-3.9 3.5-4.2c0-.3 1-1.9 2.2-3.5 2.1-2.9 3.8-3.9 3.8-2.2z"/><path d="M620 228.8c-1.9.9-3.7 2-4 2.3-.3.4-1.5.9-2.7 1.3-1.3.4-2.3 1.2-2.3 1.7s-.8.9-1.9.9c-1 0-3.9 1.1-6.5 2.5s-5.4 2.5-6.2 2.5c-.7 0-1.4.4-1.4.9s-1.3 1.2-3 1.6c-1.6.4-3 1.1-3 1.6s-.9.9-2 .9-2.3.7-2.6 1.5c-.4.8-1.7 1.5-3 1.5s-2.4.4-2.4 1c0 .5-1.1 1.2-2.5 1.6-1.4.3-2.5 1-2.5 1.5s-1.3.9-3 .9c-1.6 0-3 .4-3 .9s-1 1.3-2.2 1.7c-1.2.3-3.1 1.5-4.2 2.6l-2.1 1.9 2.3.6c1.2.3 2.2.8 2.2 1.2 0 .7 4.3 3 10.8 5.7 2.3 1 4.2 2.1 4.2 2.6 0 .4 1.1.8 2.5.8s2.5.4 2.5.9 3.3 2.6 7.3 4.6c3.9 1.9 7.9 4 8.7 4.5.8.5 4.5 2.3 8.2 4 3.6 1.7 6.9 3.8 7.2 4.6.3.9.6 20 .6 42.5v41l9.8-.3 9.7-.3.5-42c.3-23.1.7-42.1.8-42.2.1-.1 3.2-1.5 7-3.2 3.7-1.8 7.4-3.6 8.2-4.1.8-.5 3.5-2 6-3.2 2.5-1.3 4.7-2.6 4.8-3.1.2-.4 1.2-.7 2.3-.7 1.1 0 2.2-.7 2.5-1.5.4-.8 1.7-1.5 3-1.5s2.4-.4 2.4-.8c0-.9 7-4.2 8.8-4.2.7 0 1.2-.5 1.2-1 0-.6.6-1 1.4-1 .8 0 2.1-.6 2.8-1.3.7-.7 2.2-1.6 3.2-2 1.9-.7 1.9-.8-.1-2.6-1.1-1-2.9-2.2-4.1-2.5-1.2-.4-2.2-1.2-2.2-1.7s-1.3-.9-3-.9c-1.6 0-3-.4-3-.9s-1.1-1.2-2.5-1.5c-1.4-.4-2.5-1.1-2.5-1.6 0-.6-1.1-1-2.4-1-1.3 0-2.6-.7-3-1.5-.3-.8-1.5-1.5-2.6-1.5s-2-.4-2-.9-1.3-1.2-3-1.6c-1.6-.4-3-1.1-3-1.6s-1.1-.9-2.4-.9c-1.3 0-2.6-.3-2.8-.8-.1-.4-1.9-1.4-3.8-2.3-1.9-.9-7.2-3.5-11.7-5.8-9-4.5-11.1-4.8-16.3-2.3zM676.5 381.2c-93.1 1.4-119.8 2.2-120.3 3.5-.2.7-1 1.3-1.8 1.3s-1.4.3-1.4.8c0 .7-3 2.5-6.2 3.8-1 .3-1.8 1.2-1.8 1.9s-.8 1.5-1.7 1.9c-2.3.7-5 2.5-8.2 5.3-1.4 1.3-3.1 2.3-3.8 2.3-.7 0-1.3.4-1.3 1 0 .5-.4 1-.9 1-.6 0-2.5 1.3-4.3 3-1.8 1.6-3.8 3-4.4 3-.7 0-1.4.4-1.6.8-.1.5-2.8 2.5-5.8 4.4-3 1.9-6.6 4.5-8 5.6-1.4 1.2-3 2.6-3.7 3.2-.7.5-1.7 1-2.3 1-.5 0-1 .4-1 .9s-.9 1.3-2 1.6c-1.1.4-3.2 1.7-4.7 3.1-1.4 1.3-3.2 2.4-3.9 2.4-.8 0-1.4.4-1.4.9s-2.3 2.3-5.1 4.1c-2.8 1.7-6.3 4.2-7.8 5.6-1.4 1.3-3.4 2.7-4.3 3-1 .3-1.8 1-1.8 1.5s-.7.9-1.5.9-1.5.4-1.5.8-1.5 1.6-3.2 2.6c-4.1 2.3-14.2 9.8-14.6 10.8-.2.5-.8.8-1.4.8-.5 0-2.6 1.2-4.6 2.7-7.5 5.5-9.1 8.3-4.8 8.3 1.4 0 2.8.4 3.1 1 .3.5 2.3 1 4.3 1s5 .7 6.6 1.5c1.5.8 3.9 1.5 5.2 1.5 1.6 0 2.4.6 2.4 1.7 0 1.9-4.1 8.3-5.2 8.3-.5 0-.8.5-.8 1 0 .6-1.1 2.3-2.5 3.8s-2.5 3.3-2.5 4c0 .7-.7 1.5-1.5 1.8-.8.4-1.5 1.2-1.5 2s-.4 1.4-1 1.4c-.5 0-1 .9-1 1.9 0 1.7.6 1.8 5.3 1.4 13.5-1.3 26.9-1.5 28-.4.8.8.8 1.1 0 1.1-1.8 0-5.2 7.5-4.2 9.1.7 1.1 6.9 1.5 34.1 1.7 18.3.2 33.9.5 34.6.7 1.4.5 1.6 5.7.2 7.1-1.7 1.7-2.9 10.5-1.5 11 1.8.7 12.4 1.2 46 1.9 24.6.6 30.7 1 33.7 2.4 3.9 1.7 6.8 5.6 6.8 8.9 0 1.2.5 2.4 1 2.7.6.4 1 5.3 1 11.6 0 7 .4 10.9 1.1 10.9.5 0 3.2-2.3 5.8-5 2.6-2.8 5.3-5 6-5 .6 0 1.7 1.1 2.3 2.5.6 1.4 1.5 2.5 2 2.5.4 0 .8.5.8 1 0 1.7 13.4 13.8 16.4 14.9.6.2 1.3.7 1.6 1 .3.3 2.3 1.4 4.5 2.5 2.2 1 5.2 2.5 6.7 3.2 1.4.8 3.6 1.4 4.8 1.4 1.2 0 3 .5 4.1 1 2.4 1.4 31.6 1.4 35.1.1 2.2-.8 2.6-1.8 3.7-9.3 1.4-9.2 2.7-23.5 4.1-43.3.5-7.2 1.3-15 1.9-17.5.6-2.5 1.1-8.2 1.1-12.8 0-9.3 1.8-15.2 4.7-15.2 2 0 10.8-3.2 11.9-4.3.4-.4 1.6-.7 2.6-.7 2.4 0 12-3 13.2-4.1.6-.5 2.2-.9 3.7-.9s3.4-.7 4.3-1.5c.8-.8 1.8-1.5 2.2-1.5.4 0 2.2-1.1 4-2.5 1.8-1.4 3.6-2.5 3.9-2.5.4 0 1.3-.7 2.1-1.5.9-.8 2.8-1.5 4.4-1.5 2.4 0 3.2.7 4.6 4 1 2.2 2.1 4 2.6 4 .4 0 .8 1.2.8 2.7 0 1.6.7 3.7 1.5 4.7.8 1.1 1.5 2.8 1.5 3.8s.5 1.8 1 1.8c.6 0 1 .7 1 1.5 0 1 1 1.5 3 1.5s3-.5 3-1.5c0-.8.5-1.5 1-1.5.6 0 1-1.1 1-2.5s.4-2.5.8-2.5c1 0 4.2-7.1 4.2-9.2 0-.9.7-2.1 1.5-2.8.8-.7 1.5-1.9 1.5-2.7 0-1.8 2.8-11.2 4.1-13.5.5-1 .9-3.7.9-6 0-2.4.5-6.1 1-8.3 1.8-7.2-1.9-27.9-5.2-29.3-.5-.2-.8-1.2-.8-2.3 0-1-.7-1.9-1.5-1.9s-1.5-.5-1.5-1.2c0-1.1-7.5-8.8-8.6-8.8-.3 0-1.2-.7-2-1.5-.9-.8-2.4-1.5-3.5-1.5-1 0-1.9-.5-1.9-1 0-.6-1.1-1-2.4-1-1.3 0-2.9-.6-3.5-1.4-1.2-1.4-1.8-1.6-15.6-3.9-7.4-1.2-10.6-2.2-14.5-4.6-3.7-2.2-12.3-6.1-13.5-6.1-.7 0-1.5-.3-1.7-.8-.7-1.6-7.6-4.1-12.3-4.4-2.7-.2-27.5 0-55 .4zM733 395c0 .5 1.1 1.2 2.5 1.6 1.4.3 2.5 1 2.5 1.5s.8.9 1.9.9c1 0 2.4.7 3.1 1.5.7.8 2.3 1.5 3.6 1.5 1.3 0 2.4.4 2.4 1 0 .5.8 1 1.9 1 1 0 2.4.7 3.1 1.5.7.8 2.1 1.5 3 1.5 1 0 2 .4 2.2 1 .2.5 3.2 1.3 6.8 1.6 3.6.4 7 1 7.5 1.4.6.4 2.7 1 4.8 1.4 2 .4 3.7 1.1 3.7 1.6 0 .6 1.4 1 3 1 1.7 0 3 .4 3 1 0 .5.9 1 2 1s2.3.7 2.6 1.5c.4.8 1 1.5 1.5 1.5 1.3 0 6.9 5.8 6.9 7 0 .6.4 1 .8 1 1.8 0 4.2 9.8 4.2 17-.1 6.8-1.7 16.1-3.1 17.5-.8.7-6.9-1.5-6.9-2.6 0-.5-1.1-.9-2.4-.9-1.4 0-2.8-.5-3.1-1-1.4-2.2-15.5.6-15.5 3.1 0 .5-.5.9-1 .9-1.2 0-7 5.7-7 6.8 0 .4-1.3 1.6-3 2.5-1.6 1-3 2.2-3 2.8 0 .5-1.3.9-2.9.9-1.7 0-3.3.4-3.6 1-.3.5-1.9 1-3.5 1s-3.5.7-4.4 1.5c-.8.8-2.6 1.5-3.9 1.5-1.4 0-3.8.7-5.3 1.5-1.6.8-3.9 1.5-5.1 1.5-1.3 0-2.3.4-2.3 1 0 .5-1 1-2.3 1-1.3 0-3.2.7-4.3 1.5-1 .8-2.8 1.5-4 1.5-2.9 0-4.2 4.9-4.8 18.5-.6 11-.8 12.7-1.9 15.5-.4.8-.8 6.2-1 12-.5 11.6-2.2 30-3.8 40-1.8 11-1 10.2-10.2 9.8-4.5-.3-10.7-1.2-13.7-2.2-3-.9-6.6-2-8-2.3-1.3-.3-3.1-1.2-3.8-2-.7-.7-2-1.3-2.8-1.3-.8 0-1.4-.5-1.4-1 0-.6-.5-1-1-1-1 0-6.2-4.2-8.4-6.8-.6-.7-1.7-1.9-2.3-2.7-.7-.7-1.3-1.8-1.3-2.4 0-.6-.4-1.1-.9-1.1s-2-1.7-3.2-3.8c-2.9-4.6-4.5-5.9-8.6-6.7-1.8-.3-3.3-1.1-3.3-1.7 0-1.8-3.3-8.8-4.2-8.8-.4 0-.8-.5-.8-1.2 0-1.6-5.1-6.8-6.7-6.8-.7 0-1.3-.4-1.3-.8 0-2.3-8.2-4.1-20.5-4.7-27.8-1.2-48.7-2.6-49.8-3.2-1-.6.1-6.4 1.4-7.8.5-.5.9-2.8.9-5.2V506l-11.7-.2c-6.5-.1-13.4-.4-15.3-.6-1.9-.3-10.5-.6-19-.9-8.5-.2-15.9-.8-16.4-1.3-.6-.6.2-2.6 2-5.2 5.8-8.5 5-11-2.9-9-6.3 1.6-21.9 2.3-23.7 1.1-1.1-.8-1.2-1.2-.2-1.6.6-.2 1.2-1.1 1.2-1.9 0-.8.6-1.4 1.3-1.4.7 0 2-1.8 3-4 .9-2.2 2.1-4 2.6-4s1.1-.9 1.4-2c.4-1.6-.2-2.4-2.9-3.5-1.9-.8-5-1.7-6.9-2.1-2.8-.5-3.5-1.1-3.5-3 0-1.5.6-2.4 1.5-2.4.8 0 1.5-.5 1.5-1 0-.6.8-1 1.7-1 1 0 2.7-1 3.8-2.3 2.3-2.5 5.2-4.5 7.8-5.3.9-.4 1.7-1.1 1.7-1.8 0-.6 1.8-2 4-3 2.2-1.1 4-2.3 4-2.8 0-.4.6-.8 1.4-.8.8 0 1.6-.4 1.8-.8.2-.4 2-1.8 4.1-3.1 2-1.2 3.7-2.7 3.7-3.2s.5-.9 1-.9c1 0 2.2-.8 5.5-3.8.7-.6 1.8-1.2 2.4-1.2.6 0 1.1-.4 1.1-1 0-.5 1.1-1.2 2.5-1.6 1.4-.3 2.5-1 2.5-1.5s.7-.9 1.5-.9 1.5-.7 1.5-1.5.5-1.5 1-1.5c1 0 2.2-.8 5.5-3.8.7-.6 1.8-1.2 2.4-1.2.6 0 1.1-.3 1.1-.8 0-.4 1.7-1.6 3.7-2.7s5-3.2 6.5-4.8c1.6-1.5 3.5-2.7 4.3-2.7.8 0 1.5-.5 1.5-1 0-.6.6-1 1.4-1 .8 0 1.6-.7 2-1.5.3-.8 1.2-1.5 2.1-1.5.8 0 1.5-.5 1.5-1 0-.6.6-1 1.4-1 .8 0 1.6-.7 2-1.5.3-.8 1.4-1.5 2.5-1.5s2.2-.4 2.5-.9c.3-.5 26.8-1.2 58.8-1.6 32.1-.4 61.5-1.1 65.3-1.5 10.9-1.1 45.5-1.2 45.5 0z"/><path d="M643.5 400c-7.1.4-28.6 1.1-47.7 1.5-19.2.4-34.8 1.2-34.8 1.6 0 .5-.7.9-1.5.9s-1.5.7-1.5 1.5-.6 1.5-1.3 1.5c-.7 0-2.4 1.1-3.9 2.5s-3 2.5-3.3 2.5c-.3 0-4 2.5-8 5.5-4.1 3-7.7 5.5-8 5.5-.3 0-1.8 1.1-3.3 2.5-1.5 1.4-3.1 2.5-3.7 2.5-.5 0-2.1 1.2-3.4 2.5-1.3 1.4-3 2.5-3.8 2.5-.7 0-2.4 1.1-3.7 2.5-1.3 1.4-2.8 2.5-3.4 2.5-.6 0-1.2.4-1.4.8-.1.4-2 1.8-4 3.1-2.1 1.2-3.8 2.6-3.8 3.1 0 .4-1.1 1.1-2.5 1.4-1.4.4-2.5 1.1-2.5 1.6 0 .6-.5 1-1 1-.6 0-2.3 1.1-3.8 2.5s-3 2.5-3.5 2.5c-.4 0-1.8 1.1-3.1 2.5s-2.8 2.5-3.5 2.5c-.6 0-1.1.4-1.1.9s-1 1.3-2.2 1.7c-1.2.3-2.9 1.3-3.7 2.1-1.2 1.3-1.2 1.6 0 2.4.8.5 2.4.9 3.6.9 1.2 0 2.5.4 2.8 1 .3.5 1.5 1 2.5 1 2.8 0 3.3 1.6 1.3 4.7-1 1.5-2 3-2.3 3.3-1.3 1.2-4 6-4 7.2 0 1 3.2 1.2 14.6 1l14.7-.4-.7 2.9c-.4 1.5-1.1 3-1.5 3.3-.4.3-1.1 1.2-1.5 2-.4.8-1.3 2.6-2.1 4-1.1 1.9-1.1 2.6-.2 3.2.7.4 14.3.8 30.3.8 26.1 0 29.3.2 29.8 1.6.8 2-.3 8.2-1.5 9-.5.3-.9 2.5-.9 4.8 0 3.4.4 4.5 1.9 4.9 1 .2 13 .5 26.6.6 13.5.1 25.8.6 27.1 1.2 1.4.5 3.8.9 5.3.9 1.6 0 3.4.7 4.1 1.5.7.8 1.9 1.5 2.7 1.5 1.9 0 10.3 9 10.3 11.2 0 .9.5 2 1 2.3.6.3 1 1.4 1 2.3 0 2.3 3.5 5.2 6.1 5.2 2.1 0 4.9 2.2 4.9 3.8 0 .6.7 1.2 1.5 1.6.8.3 1.5 1.2 1.5 2 0 1.6 13.3 15.6 14.9 15.6.5 0 1.1.7 1.5 1.5.3.8 1.5 1.5 2.6 1.5s2 .4 2 1c0 .5 1.1 1 2.4 1 1.4 0 3.1.7 4 1.5 1.1 1.1 3.9 1.5 11.5 1.5H704v-7.8c0-4.2.5-9.3 1.1-11.2.6-1.9 1.5-8.9 1.9-15.5 2.1-29.2 3.1-40.2 4-42.9.6-1.6 1-5.5 1-8.6 0-5.9.7-7.2 4.5-8.3 1.1-.3 4.5-1.5 7.5-2.6 3-1.2 6.2-2.1 7.1-2.1.9 0 2.2-.7 2.9-1.5.7-.8 2.5-1.5 4.1-1.5 1.5 0 3.1-.5 3.4-1 .3-.6 1.8-1 3.3-1 1.5 0 3.6-.7 4.6-1.5 1.1-.8 3.3-1.5 4.8-1.5 3.9 0 4.7-2.6 1.6-5.4-2.9-2.7-6.2-3.5-18.8-4.5-9.9-.8-15-2.5-15-5.1 0-1.6 3.4-5.2 6-6.3 4.9-2.2 9.5-5.7 9.8-7.3.4-2.8 3.6-9.4 4.5-9.4.4 0 .7-.4.7-1 0-1.7 8.4-12.9 9.8-13 .6 0 1.2-.6 1.2-1.3 0-.8 1.1-2 2.5-2.7 1.4-.7 2.5-1.8 2.5-2.4 0-.6-3.2-2.6-7-4.5-3.9-1.8-7.3-3.7-7.6-4.2-.3-.5-1.4-.9-2.5-.9-1 0-1.9-.5-1.9-1 0-.6-1.1-1-2.4-1-1.3 0-2.9-.7-3.6-1.5-1.1-1.3-6.6-1.5-39.4-1.3-20.9 0-43.9.4-51.1.8zm102.8 12.1c.4 1.3 0 2.2-1.1 2.6-9 2.9-12.7 6.8-14.6 15.5-.5 2.3-1.2 2.8-3.8 2.8-2.3 0-3.9.8-5.6 2.7-1.9 2.3-2.5 2.5-3.2 1.3-.6-.8-1-3.2-1-5.3 0-2-.4-3.7-1-3.7-.5 0-1-.9-1-2 0-1.2-1-2.5-2.5-3.2-1.4-.6-2.5-1.5-2.5-2 0-.4-1.3-.8-3-.8-2 0-3-.5-3-1.5 0-.8-.3-1.4-.7-1.4-2.7.4-6.3-.3-5.8-1.1 1.1-1.8 11.7-1.1 15.5 1 1.9 1.1 4.3 2.2 5.3 2.6.9.3 1.7 1.3 1.7 2 0 2.7 3 1.2 4.9-2.4.6-1.2 1.8-2.2 2.5-2.2s2.5-1.1 4-2.5 3.6-2.5 4.7-2.5c1 0 1.9-.5 1.9-1 0-.6 1.7-1 3.9-1 3.1 0 4 .4 4.4 2.1zm-64.1 10.7c.6.6.5 1.7-.4 3.1-1.2 2-2 2.1-21.8 2.1-11.3 0-22.1.4-24 1-1.9.5-10.7 1.4-19.5 2-24.9 1.8-37.7 3.5-46.1 6.1-1.7.5-4.4.9-6 .9-1.6 0-3.8.7-4.8 1.5-1.1.8-3.3 1.5-4.8 1.5-1.6 0-3.6.4-4.6.9-.9.5-4.4 1.6-7.7 2.6-3.3.9-6.8 2.1-7.7 2.6-1 .5-3.1.9-4.7.9s-3.1.6-3.5 1.5c-.6 1.6-4.6 2.1-4.6.6 0-.5 1.1-1.2 2.5-1.5 1.4-.4 2.5-1.1 2.5-1.6 0-.6 1.1-1 2.4-1 1.3 0 2.6-.3 2.8-.8.4-1 6.7-4 10.1-4.8 1.5-.3 2.7-1 2.7-1.5s1.4-.9 3-.9c1.7 0 3-.4 3-.9s1.8-1.2 4-1.6c2.2-.4 4.2-1.1 4.6-1.6.3-.5 2.3-.9 4.4-.9 2.1 0 4.1-.4 4.5-.9.3-.5 3-1.3 6-1.6 3.1-.4 5.8-1.1 6.1-1.6.3-.5 2.4-.9 4.7-.9 2.3 0 6.9-.7 10.2-1.5 3.3-.8 8.6-1.4 11.7-1.5 3.1 0 7.8-.5 10.5-1 4.7-1 44.4-2.7 57.1-2.4 3.5.1 6.8.6 7.4 1.2zm14.8 3.4c0 1 .5 1.8 1 1.8.6 0 1 .4 1 1 0 2.4-4.6.9-6.3-2-1.8-3-1.8-3 .5-3.9 2.5-.9 3.8.1 3.8 3.1zm-.5 12.8c.6.4 3.4 1 6.4 1.3 2.9.4 5.6.9 5.9 1.1.3.3-.7 2.1-2.2 4-1.4 1.9-2.6 3.9-2.6 4.5 0 .6-.3 1.1-.7 1.1-.5.1-2.8 3-5.3 6.5s-5.1 6.4-5.7 6.5c-.7 0-1.3.7-1.3 1.5s-.3 1.5-.7 1.5c-.5 0-2.4 2.3-4.3 5s-3.8 5-4.2 5c-.5 0-.8.7-.8 1.5s-.7 1.5-1.5 1.5-1.5.7-1.5 1.5-.3 1.5-.7 1.5c-.5 0-2.3 2.3-4.2 5-1.9 2.8-3.8 5-4.3 5-.4 0-.8.7-.8 1.5s-.3 1.5-.7 1.5c-.5 0-1.9 1.8-3.3 4-1.3 2.2-2.8 4-3.2 4-.4 0-.8.6-.8 1.4 0 .8-.7 1.6-1.5 2-.8.3-1.5 1.2-1.5 2.1 0 .8-.4 1.5-.9 1.5s-1.1.8-1.5 1.7c-.3 1-1.9 4-3.6 6.8-3 4.9-3.5 5.9-4.5 9-.2.8-1.1 1.2-1.9.9-1.1-.4-1.4-1.5-1-3.7.8-4.3 3.7-11.7 4.7-11.7.4 0 .7-.6.7-1.3 0-.8 1.4-3.3 3-5.5 1.7-2.3 3-4.6 3-5.2 0-.5.5-1 1-1 .6 0 1-.5 1-1 0-.6.8-1.8 1.8-2.8 2.9-3.1 6.2-7.2 6.2-7.8 0-.3 1-1.5 2.3-2.7 1.3-1.2 3.2-3.8 4.3-5.7 1-1.9 2.8-4.3 3.8-5.3 2.1-1.9 2.9-3.1 7.5-12.3 1.7-3.3 3.1-7 3.1-8.2 0-1.1.5-2.4 1-2.7.6-.3 1-3.7 1-7.4s.3-7 .6-7.4c.7-.7 6.4.2 7.9 1.3z"/><path d="M758.7 419.7c-2.6 2.5-4.7 5.2-4.7 5.9 0 .7-.7 1.7-1.5 2.2-.9.5-1.3 1.5-1 2.4 1.1 2.9 6.3.3 12.9-6.6 3.5-3.7 6.8-6.6 7.5-6.6.6 0 1.1-.5 1.1-1 0-.6-2.2-1-4.8-1-4.3 0-5.2.4-9.5 4.7z"/><path d="M769 424c-1.9 2.2-4 4-4.5 4-.6 0-1.5.8-2.2 1.9-.6 1-3 2.8-5.3 4-3.5 1.8-4.8 2-7.3 1.1-1.7-.5-3.1-.9-3.2-.8-.9 1.5-3.5 7.9-3.5 8.7 0 .6-.4 1.1-1 1.1-.5 0-1 1-1 2.1 0 2.4-2.6 4.8-5.3 4.9-1 0-2 .7-2.3 1.5-.4.8-1.2 1.5-2 1.5s-1.4.4-1.4.9c0 .4 3.3 1.1 7.2 1.5 4 .4 7.7 1.1 8.2 1.6.6.6 2.2 1 3.7 1 2.6 0 8.8 2.6 10 4.3 1.6 2.2 6.7.9 10.3-2.6 2-2 4.5-3.9 5.6-4.2 1.1-.4 2-1 2-1.5s2.9-1.2 6.5-1.5c4.9-.6 7.8-.3 11.6.9 2.8 1 5.4 1.5 5.7 1.1.3-.3.5-5.2.5-11 0-8.3-.4-10.9-1.7-12.4-.9-.9-1.6-2.3-1.6-2.9 0-.7-.3-1.2-.8-1.2-.4 0-1.2-1-1.7-2.2-1.8-3.9-6.3-5.6-15-5.7l-8-.1-3.5 4zM616 614.9c0 43.1-.2 50.2-1.5 51.5-.8.8-1.5 2.2-1.5 3 0 .9-.4 1.6-.9 1.6-.4 0-1.9 2.2-3.2 5-1.3 2.7-2.7 5-3.1 5-.5 0-.8.7-.8 1.5s-.4 1.5-1 1.5c-.5 0-1 1.5-1 3.2.1 2.7.9 4 5.2 7.3 2.8 2.2 6.3 5.2 7.9 6.7 1.5 1.6 3.1 2.8 3.5 2.8.4 0 1.7 1.1 3 2.5s2.8 2.5 3.5 2.5c.6 0 2.2-1.1 3.5-2.5 1.3-1.4 2.6-2.5 2.9-2.5.3 0 2.3-1.5 4.3-3.4 6.8-6.3 10.7-9.6 11.3-9.6 1.8 0 1.4-4.1-.7-7.6-1.3-2.1-3.3-5.8-4.5-8.2-1.3-2.3-2.6-4.2-3.1-4.2-.4 0-.8-.7-.8-1.6 0-.8-.7-2.2-1.5-3-1.3-1.3-1.5-7.5-1.5-43.5 0-27.3-.3-41.9-1-41.9-.5 0-1 .7-1 1.5s-.7 1.5-1.5 1.5-1.5.5-1.5 1c0 .6-.8 2-1.8 3.1-2.5 2.5-5.1 1.5-5.9-2.2-.3-1.6-1-3.2-1.4-3.5-.5-.3-.9-1.8-.9-3.3 0-1.5-.7-3.6-1.5-4.7-.8-1-1.5-3.3-1.5-5.1 0-1.7-.4-3.5-1-3.8-.7-.4-1 16.3-1 49.4zM369.1 369.6c0 1.1.3 1.4.6.6.3-.7.2-1.6-.1-1.9-.3-.4-.6.2-.5 1.3zM240 378c0 1.6-.4 3-1 3-.5 0-1 1-1 2.3 0 1.3-.7 3.2-1.5 4.3-.8 1-1.5 2.8-1.5 3.9s-.7 2.9-1.5 3.9c-.8 1.1-1.5 3-1.5 4.3 0 1.3-.4 2.3-1 2.3-.5 0-1 1-1 2.3 0 1.3-.7 3.2-1.5 4.3-.8 1-1.5 2.8-1.5 3.9s-.7 2.9-1.5 3.9c-.8 1.1-1.5 3-1.5 4.2 0 1.3-.4 2.6-1 2.9-.5.3-1 1.6-1 2.7 0 1.2-1.1 4.4-2.4 7.2-1.3 2.8-2.7 6.8-3.1 8.8-.4 2.1-1.1 3.8-1.6 3.8s-.9.6-.9 1.4c0 .7-.7 2.7-1.5 4.2-.8 1.6-1.5 3.9-1.5 5.1 0 1.3-.4 2.3-.9 2.3s-1.1 1.2-1.4 2.7c-.7 4.2-5.9 17.7-6.9 18.1-.4.2-.8 1.6-.8 3.2s-.7 3.5-1.5 4.4c-.8.8-1.5 2.3-1.5 3.3 0 1.1-.4 2.3-.8 2.8-.4.6-1.6 3.7-2.7 7-1 3.3-2.2 6.4-2.7 7-.4.5-.8 1.6-.8 2.5 0 .8-.7 2.8-1.5 4.4-.8 1.5-1.5 3.9-1.5 5.2 0 1.3-.4 2.4-1 2.4-.5 0-1.2 1.2-1.6 2.7-.6 2.9-2.8 8.5-4.4 11.5-.6 1-1 2.9-1 4.3s-.4 2.5-.9 2.5-1.1 1.8-1.5 4c-.3 2.2-1.1 4-1.7 4-1.6 0-.6 9 2 18 3.4 12.1 5.5 18.4 6.3 19.4.4.6.8 2.2.8 3.6s.7 3.5 1.5 4.6c.8 1 1.5 3.2 1.5 4.9 0 1.6.7 3.9 1.5 4.9.8 1.1 1.5 3 1.5 4.3 0 1.3.5 2.3 1 2.3.6 0 1-.7 1-1.5s.4-2.3.9-3.3c1-1.8 2.9-11.8 3.8-19.5.3-2.6.9-4.7 1.3-4.7.5 0 1.2-2.6 1.5-5.8.4-3.1 1.1-7.1 1.5-8.7.5-1.7 1.6-6.6 2.5-11 .9-4.4 2.3-10.5 3-13.5.8-3 1.7-7.5 2-10 1.2-8.6 2.2-13.5 3.4-16.3.6-1.6 1.1-4.4 1.1-6.3 0-1.9.4-4.2.9-5.2 1-1.7 2.8-10 4-18.2.4-2.5 1-5.1 1.5-5.8.9-1.4 2.3-9.3 3.4-18.7.4-3.3 1.1-6.6 1.6-7.3.4-.7 1.2-3.7 1.7-6.5 1.5-9.4 3.4-17.5 4.2-18.3.4-.4.7-2.4.7-4.4 0-2.1.7-5.4 1.5-7.3.8-2 1.5-5.3 1.5-7.2 0-2 .4-4.4 1-5.4.5-1 1.4-4.5 2-7.7.6-3.3 1.6-8.2 2.1-10.9 1.8-8.7 2.2-14.5 1-14.5-.6 0-1.1 1.3-1.1 3zM365.5 378.7c-.4 2.1-1 4.8-1.5 5.9-.5 1.2-1.2 4.2-1.5 6.8-.4 2.5-1.1 4.9-1.6 5.2-.5.3-.9 1.5-.9 2.6 0 1.2-.4 3.5-.9 5.2-2.1 7.1-4 14.3-4.5 16.6-.5 2.6-3.5 14-6.1 22.7-3.2 11-4.4 16-5.5 21.8-.7 3.3-1.8 7.5-2.6 9.3-.8 1.8-1.4 4.8-1.4 6.7 0 1.9-.4 3.5-.8 3.5-.7 0-1.6 3.2-4.2 15-.6 2.4-1.5 4.9-2 5.4-.6.6-1 2.5-1 4.2 0 1.8-.4 3.5-.9 3.8-.5.3-1.2 2.7-1.6 5.3-.4 2.7-1 5.2-1.5 5.8-.4.5-1 2.8-1.3 5-.3 2.2-1.3 6.5-2.2 9.5-1 3-2 7.2-2.2 9.3-.3 2-.9 4-1.4 4.3-1.2.7-1.1 5.1.1 5.9.6.3 1 1.5 1 2.5s1.1 4 2.5 6.6c1.4 2.6 2.5 5.2 2.5 5.9 0 1.1 2 5.9 4.1 9.7.5 1 .9 2.4.9 3.2 0 .7.7 1.9 1.5 2.6.8.7 1.5 2.3 1.5 3.6 0 1.2.4 2.5.9 2.9.5.3 1.2 1.9 1.6 3.5.4 1.7 1.1 3 1.6 3s.9 1 .9 2.3c0 2.5 2.6 6.7 4.1 6.7.5 0 .9-2 .9-4.4 0-2.4.5-6.8 1.1-9.7.6-3 1.5-10.4 1.9-16.4.5-6.1 1.6-17.1 2.5-24.5.8-7.4 1.9-19 2.5-25.8.5-6.8 1.4-13.2 2-14.2.5-1 1-5.3 1-9.4 0-4.1.4-8.5 1-9.8.5-1.3 1.4-8.6 2.1-16.3 2.1-26 2.7-33 4.4-46 .9-7.2 2-18.2 2.4-24.5.5-6.3 1.3-12.8 2-14.3 1.3-3.4 1.5-20.7.1-20.7-.5 0-1.2 1.7-1.5 3.7zM884.8 375.6c-1.2 1.2-.9 17 .3 20.1.7 1.5 1.5 7.7 2 13.8.4 6 1.5 17.1 2.4 24.5.9 7.4 2 17.8 2.5 23 .4 5.2 1.3 15.6 1.9 23 .6 7.4 1.6 14.5 2.1 15.8.6 1.3 1 5.8 1 10.2 0 4.3.5 9.1 1.1 10.7.6 1.5 1.5 8.2 2 14.8.5 6.6 1.6 17.8 2.5 25 .8 7.1 1.9 18.2 2.4 24.5.4 6.3 1.3 13.1 1.9 15 .6 1.9 1.1 6.1 1.1 9.2 0 3.2.4 5.8.9 5.8 1.1 0 4.1-4.5 4.1-6.3 0-.8 1.1-3.5 2.5-6.1 1.4-2.6 2.5-5.5 2.5-6.5s.7-2.4 1.5-3.1c.8-.7 1.5-1.9 1.5-2.6 0-1.4.3-2.2 3.3-8.2.9-1.9 1.7-4 1.7-4.7 0-.8 1-3.3 2.3-5.7 3.8-7.2 5.2-12.5 3.9-15.1-.6-1.2-1.3-3.6-1.5-5.2-.3-1.7-1.2-5.5-2.1-8.5-1-3-2.1-7.3-2.6-9.5-2.6-12.1-3.2-14.2-4-15.7-.6-1-1-2.8-1-4 0-1.3-.7-3.6-1.5-5.2-.8-1.5-1.5-4.3-1.5-6.2 0-1.8-.4-3.5-.9-3.8-.5-.4-1.2-2.4-1.6-4.6-.4-2.2-1.1-4.2-1.6-4.6-.5-.3-.9-2.1-.9-4 0-2-.5-4.5-1.2-5.7-.6-1.2-1.5-4.1-2-6.5-.4-2.3-1.2-6.1-1.6-8.5-.5-2.3-1.3-5.8-1.9-7.7-1.9-6-4-13.3-5.2-18-2-7.5-3.9-14.2-5.5-19.9-.9-2.9-1.6-6.6-1.6-8.2 0-1.5-.4-3.1-1-3.4-.5-.3-1-1.5-1-2.6s-.7-4.4-1.6-7.2c-1.4-4.8-1.9-6.7-4.1-15.5-.4-1.9-1.1-3-1.5-2.6zM1010.3 379.7c.3 2.7 1 7 1.6 9.8.5 2.7 1.5 7.6 2.1 10.9.6 3.2 1.5 6.7 2 7.7.6 1 1 3.3 1 5.2 0 1.9.7 5.4 1.5 7.7s1.5 5.7 1.5 7.5c0 1.7.3 3.5.8 3.9.7.8 2.7 9.5 4.1 18.1.4 2.7 1.3 6.3 1.9 7.8.7 1.6 1.2 4.1 1.2 5.8 0 2.9.9 7.5 3 15.9.6 2.5 1.5 6.7 2 9.5.5 2.7 1.6 8.1 2.5 12 .9 3.8 2 9 2.4 11.5.4 2.5 1.1 5.2 1.6 6 .5.8 1.3 3.7 1.6 6.5 2.1 14.5 2.8 18.4 3.4 19.5.4.6 1.1 3.5 1.6 6.3 1.2 7.7 3 15.9 3.9 18.2.5 1.1 1.1 4.7 1.5 8 .3 3.3 1 6.1 1.5 6.3.6.2 1 2.6 1 5.2 0 2.7.4 5.1.9 5.5.5.3 1.2 3.1 1.6 6.3.3 3.1 1 6.5 1.5 7.4.6 1 1 2.5 1 3.3 0 .8.5 1.5 1 1.5.6 0 1-1 1-2.3 0-1.3.7-3.2 1.5-4.3.8-1 1.5-3.3 1.5-4.9 0-1.7.7-3.9 1.5-4.9.8-1.1 1.5-3.2 1.5-4.8 0-1.5.5-2.8 1-2.8.6 0 1-1.5 1-3.3 0-1.8.5-3.8 1-4.3 1.5-1.5 6.1-18.9 6.7-25.2.3-3.3.1-5.2-.6-5.2-.6 0-1.4-1.8-1.7-4-.4-2.2-1.1-4.3-1.5-4.6-.5-.3-.9-1.4-.9-2.5 0-1-.4-2.7-1-3.7-1.6-3-3.8-8.6-4.4-11.5-.4-1.5-1.1-2.7-1.6-2.7-.6 0-1-1.1-1-2.4 0-1.3-.7-3.7-1.5-5.2-.8-1.6-1.5-3.7-1.5-4.6 0-.9-.4-2-1-2.3-.5-.3-1-1.4-1-2.4s-.7-3.2-1.5-4.7c-.8-1.6-1.5-3.7-1.5-4.6 0-.9-.4-2-1-2.3-.5-.3-1-1.4-1-2.4s-.7-2.4-1.5-3.1c-.8-.7-1.5-2.8-1.5-4.6 0-1.9-.4-3.4-.8-3.4-.5 0-1.9-3.2-3.1-7-1.3-3.9-2.7-7.3-3.2-7.6-.5-.3-.9-1.8-.9-3.5 0-1.6-.4-2.9-1-2.9-.5 0-1-1-1-2.3 0-1.2-.7-3.5-1.5-5.1-.8-1.5-1.5-3.5-1.5-4.2 0-.8-.4-1.4-1-1.4-.5 0-1-1-1-2.3 0-1.2-1.4-5.3-3-9.2-1.7-3.8-3-7.7-3-8.7 0-.9-.4-2-1-2.3-.5-.3-1-1.6-1-2.8 0-1.2-.7-3.1-1.5-4.1-.8-1.1-1.5-3.1-1.5-4.4 0-1.3-.7-3-1.5-3.8-.8-.9-1.5-2.6-1.5-4 0-1.3-.4-2.4-1-2.4-.5 0-1-1-1-2.3 0-1.2-.7-3.1-1.5-4.1-.8-1.1-1.5-2.9-1.5-4 0-1.2-.7-3-1.5-4-.8-1.1-1.5-3-1.5-4.3 0-1.3-.4-2.3-1-2.3-.5 0-1-1.4-1-3 0-1.7-.5-3-1.1-3-.7 0-.9 1.6-.6 4.7zM280.7 378.3c-.9 1.1-1.7 3.4-1.7 4.9 0 1.5-.4 2.8-1 2.8-.5 0-1.3 1.8-1.6 4-.4 2.2-1 4-1.5 4s-.9 1.3-.9 2.9c0 1.6-.7 3.6-1.5 4.5-.8.8-1.5 2.2-1.5 3.1 0 2.1-8 25.7-9.1 26.9-.5.6-.9 2.1-.9 3.5 0 1.5-.7 3.5-1.5 4.5-.8 1.1-1.5 3.2-1.5 4.6 0 1.5-.3 3-.7 3.4-1.3 1.2-4.3 10-4.3 12.3 0 1.3-.4 2.3-1 2.3-.5 0-1 1-1 2.2 0 1.3-.7 3.6-1.5 5.2-.8 1.5-1.5 3.9-1.5 5.2 0 1.3-.4 2.4-1 2.4-.5 0-1.3 1.8-1.6 4-.4 2.2-1 4-1.4 4-.4 0-1 1.8-1.4 4-.3 2.2-1.1 4-1.6 4-.6 0-1 1.5-1 3.4s-.4 3.7-.9 4c-.5.3-1.1 1.8-1.4 3.3-.5 2.8-1.9 7.1-4.3 12.8-2.1 5.1-4.4 12.5-4.4 14 0 .8-.4 1.5-.9 1.5s-1.1 1.5-1.4 3.2c-.4 3.2-2.2 8.7-3.7 11.9-.8 1.7.8 9 2.8 12.6.6 1.2 1.2 3.1 1.2 4.2 0 1.2.4 2.1 1 2.1.5 0 1.3 1.8 1.6 4 .4 2.2 1 4 1.5 4s.9.7.9 1.5.6 2.9 1.4 4.7c.8 1.8 2.2 6 3.2 9.3 1 3.3 2.2 6.4 2.6 6.9.4.6.8 2 .8 3.2 0 3 1.5 3.8 3.4 1.8 1-.9 1.6-3.3 1.6-5.9 0-2.4.5-5.6 1.1-7.2.6-1.5 1.5-5.5 1.9-8.8 1.4-10.9 3.1-20 4-22 .5-1.1 1.1-4.5 1.4-7.5.2-3 1.2-9.3 2.1-14 .8-4.7 2-11.2 2.4-14.5.5-3.3 1.4-7.8 2-10 .6-2.2 1.1-5.7 1.1-7.7s.5-4 1-4.3c.6-.3 1-2.5 1-4.8s.5-5.8 1.1-7.7c.7-1.9 1.5-6.4 2-10 1.8-14.6 3-21.6 3.9-23.8.6-1.3 1-4 1-6s.5-5.3 1-7.2c.6-1.9 1.5-6.2 2-9.5 2.3-15 3.1-19.2 4-21.9.6-1.6 1-4.7 1-6.8 0-2.2.5-4.8 1.1-5.9.9-1.8 3.2-18.9 2.6-19.5-.1-.2-1 .7-2 1.9zM321.8 376.6c-.5.4-.8 2.2-.8 3.9 0 1.8-.7 3.8-1.5 4.5-.9.7-1.5 2.9-1.5 5.1 0 2.1-.4 4.1-1 4.4-.5.3-1 1.8-1 3.3 0 1.5-.7 4-1.5 5.6-.8 1.5-1.5 4.6-1.5 6.7 0 2.1-.4 4.1-1 4.4-.5.3-1 1.8-1 3.3-.1 1.5-.7 3.8-1.5 5.2-.8 1.4-1.5 4.1-1.5 6 0 1.9-.7 4.6-1.5 6-.8 1.4-1.4 3.7-1.5 5.3 0 1.5-.4 3.5-.9 4.5-1.3 2.6-4.8 16.3-6 23.2-.4 2.5-1.1 5.2-1.6 6-.5.8-1.2 3.2-1.6 5.5-.4 2.2-1.5 6.5-2.4 9.5-.9 3-2.1 7.7-2.7 10.5-.5 2.7-1.4 5.4-1.9 6-.5.5-.9 2.3-.9 4 0 1.7-.4 3.5-.9 4-.8.9-1.5 3.9-4 17.3-.4 2.4-1.3 4.8-1.9 5.4-.7.7-1.2 2.6-1.2 4.3 0 1.6-.7 4.8-1.5 7-1.8 5.2-1.9 8 0 9.9.8.8 1.5 1.9 1.5 2.5 0 .6.6 1.1 1.4 1.1.8 0 2.3 1.1 3.4 2.5s2.4 2.5 2.9 2.5 2 1.1 3.3 2.5c1.3 1.4 2.9 2.5 3.7 2.5.7 0 1.3.6 1.3 1.3 0 .8 1.1 2 2.5 2.7 1.4.7 2.5 1.9 2.5 2.7 0 .7.4 1.3.9 1.3 1.1 0 2.1-2.5 2.1-5.4 0-1.2.4-2.6.9-3.2.5-.5 1.2-5.9 1.4-11.9.3-6.1 1-13.3 1.5-16 .6-2.8 1.3-9.1 1.6-14 .3-5 1.2-14.6 2.1-21.5.9-6.9 2-17.7 2.5-24 1.9-24.6 3.1-35.5 4-36.4.6-.6 1-5.3 1-10.5.1-5.3.7-12.3 1.5-15.6.8-3.3 1.5-9.3 1.5-13.3s.5-8.2 1-9.3c1.2-2.1.9-22.5-.2-21.3zM929.4 386.7c.8 16.7 2.3 32.4 3.5 36.3.6 1.9 1.1 7.5 1.1 12.3 0 4.9.4 9.7 1 10.7.9 1.8 2.3 14.6 4 37 .4 6.3 1.5 17.3 2.4 24.5.9 7.1 2.1 18.8 2.6 25.8s1.4 13.6 2 14.7c.5 1 1 6.2 1 11.4 0 5.3.4 10.4.9 11.4.5.9 1.3 3.2 1.8 5l.8 3.2 4-3.7c2.2-2.1 6.9-6.3 10.5-9.3 10.6-8.8 11.3-9.8 10.5-15-.4-2.5-1.1-4.9-1.6-5.4-.5-.6-.9-2.7-.9-4.8 0-2.1-.4-3.8-1-3.8-.5 0-1.2-1.7-1.5-3.8-.4-2-1.5-7.3-2.6-11.7-1.1-4.4-2.3-9.1-2.5-10.5-.3-1.4-.9-3.4-1.4-4.5-.8-1.9-1.7-5.2-4-16.3-.5-2.3-1.4-5.1-2-6.1-.5-1.1-1-3.5-1-5.5 0-1.9-.5-3.6-1.1-3.8-.9-.3-1.4-2.6-3.6-15.8-.3-1.9-.9-4-1.4-4.5-1-1.3-2.9-8.7-3.6-14-.3-2.2-1.2-4.9-1.9-6-.8-1.1-1.4-3.5-1.4-5.5-.1-1.9-.7-4.6-1.5-6-.8-1.4-1.4-3.7-1.5-5.2 0-1.5-.4-3-1-3.3-.5-.3-1-2.3-1-4.4 0-2.1-.7-5.2-1.5-6.7-.8-1.6-1.5-4.1-1.5-5.6s-.4-3-1-3.3c-.5-.3-1-2.1-1-3.9 0-1.8-.7-4.1-1.5-5.2-.8-1-1.5-3.3-1.5-5.1 0-1.7-.5-3.5-1.1-3.8-.7-.5-.9 2.6-.5 10.2zM969 378.6c.6 1.4 1 4.5 1 6.9 0 2.4.5 5.6 1.1 7.2.6 1.5 1.5 5.5 2 8.8.5 3.3 1.5 9.8 2.4 14.5.8 4.7 1.9 11.4 2.5 15 .5 3.6 1.4 7.8 1.9 9.4.6 1.5 1.1 4.5 1.1 6.7s.4 4.8.9 5.7c.5.9 1.4 5.5 2.1 10.2.6 4.7 1.6 11.2 2 14.5.5 3.3 1.4 8.5 2 11.5.6 3 1.5 7.7 2 10.5.5 2.7 1.4 7.5 2 10.5.6 3 1.5 8.2 2 11.5.5 3.3 1.6 9.8 2.5 14.5.9 4.7 2 11.4 2.5 15 1.1 8.3 2.9 17.6 4.1 21.6.5 1.7.9 4.8.9 7 .1 2.1.7 5.7 1.5 7.9s1.5 5.9 1.5 8.2c0 4.1 2.3 7.9 4.1 6.8.5-.4.9-1.7.9-3s.5-2.7 1-3c.6-.3 1-1.4 1-2.3 0-.9.7-3 1.5-4.6.8-1.5 1.5-3.8 1.5-5 0-1.2.7-3.1 1.5-4.2.8-1 1.5-2.7 1.5-3.7 0-1.7.3-2.4 3.3-8.5.9-1.9 1.7-4.1 1.7-5.1 0-.9.7-2.6 1.5-3.7.8-1 1.5-3 1.5-4.5 0-1.4.5-3 1.2-3.7.8-.8.9-1.8.1-3.4-1.8-4-3.5-9.2-4.1-12.3-.2-1.7-1.1-3.9-1.8-5-.8-1.1-1.4-2.8-1.4-3.7 0-1-.4-2.6-.9-3.6-1.2-2.4-3.2-8.3-3.8-11.2-.3-1.4-1.2-3.4-1.9-4.5-.8-1.1-1.4-2.9-1.4-4.2 0-1.2-.4-2.5-1-2.8-.5-.3-1-1.7-1-2.9 0-1.3-.7-3.7-1.5-5.2-.8-1.6-1.5-3.9-1.5-5.2 0-1.2-.4-2.2-.9-2.2s-1.1-1.8-1.5-4c-.3-2.2-1.1-4-1.6-4-.6 0-1-1.1-1-2.4 0-1.3-.7-3.7-1.5-5.2-.8-1.6-1.5-3.9-1.5-5.2 0-1.2-.4-2.2-.9-2.2s-1.1-1.5-1.3-3.3c-.5-3.1-3.7-13-6.3-19.2-2-4.8-5.7-15.8-6.3-18.5-.2-1.4-.8-3-1.2-3.5-.5-.6-1.1-2.7-1.5-4.8-.4-2-1.1-3.7-1.6-3.7s-.9-1.2-.9-2.8c0-1.5-.7-3.6-1.5-4.6-.8-1.1-1.5-3-1.5-4.2 0-1.2-.7-3.5-1.5-5-.8-1.6-1.5-3.7-1.5-4.7 0-.9-.4-1.7-.9-1.7-.4 0-1.1-1.6-1.4-3.5-.5-3.1-2.6-6.5-4.1-6.5-.3 0-.1 1.2.4 2.6z"/><path d="M268.6 575.7c-1.4 21.6-3.5 29.1-8.3 29.3-.7 0-1.6.6-2 1.2-.9 1.5-4.1 3.6-6.5 4.4-1 .4-1.8.9-1.8 1.3s-1.6 1.5-3.5 2.5c-1.9 1.1-3.5 2.2-3.5 2.6 0 .4-.8 1-1.7 1.4-2.5.8-5.3 2.7-7.9 5.3-1.1 1.3-2.8 2.3-3.5 2.3-.8 0-2.5 1-3.9 2.3-1.4 1.2-3.7 3-5.2 4-1.6 1-2.8 2.2-2.8 2.7 0 1.2 2.5 3.7 6.5 6.5 1.6 1.1 4.8 3.9 7.2 6.2 2.4 2.4 4.5 4.3 4.8 4.3.4 0 4.5 3.4 7.6 6.2 1 1 2.1 1.8 2.4 1.8.9 0 6.5 6 6.5 7 0 .5.5 1 1.1 1 1.5 0 5.9 3.5 12.4 9.7 2.9 2.9 5.8 5.3 6.4 5.3.6 0 1.1.5 1.1 1 0 .6 1.1 1.5 2.5 2s2.5 1.3 2.5 1.8 1.1 1.5 2.5 2.2c1.4.7 2.5 1.9 2.5 2.7 0 .7.7 1.3 1.5 1.3s1.5.4 1.5.8 2.4 2.6 5.2 4.7c2.9 2.2 6.4 5.1 7.8 6.5 1.4 1.4 5.3 4.7 8.8 7.5 3.4 2.7 6.2 5.3 6.2 5.7 0 .5.4.8 1 .8.5 0 2.9 1.9 5.4 4.2 2.4 2.4 6.3 5.9 8.6 7.7 2.3 1.9 4.8 4.1 5.6 4.8.7.7 1.7 1.3 2.3 1.3.6 0 1.1.7 1.1 1.5s.6 1.5 1.3 1.5c.7 0 2.1 1.1 3.1 2.5s2.3 2.5 2.8 2.5c1 0 1.9.7 10.2 8.4 2.7 2.6 5.2 4.6 5.6 4.6.5 0 1 .4 1.2.8.2.4 2.3 2.3 4.7 4.2 2.5 1.9 6.1 5.2 8 7.2 2 2.1 4.1 3.8 4.6 3.8.6 0 4.1 3 7.8 6.5 3.7 3.6 7.2 6.5 7.7 6.5.4 0 1 .3 1.2.7.2.5 3.5 3.5 7.3 6.8 3.9 3.3 8.5 7.4 10.3 9.2 1.8 1.8 3.7 3.3 4.1 3.3.5 0 1.1.7 1.5 1.5.3.8 1.1 1.5 1.8 1.5.8 0 2 .8 2.9 1.7 1.6 1.9 6.1 5.9 14.4 12.8 2.6 2.2 6 5.1 7.5 6.5 1.4 1.4 5.2 4.5 8.4 7l5.9 4.5 2.6-3.5c1.4-1.8 3.8-4.7 5.4-6.2 1.5-1.6 2.7-3.1 2.7-3.4 0-.3 1.1-1.7 2.5-3.2 1.4-1.5 2.5-3.2 2.5-3.9 0-.7.4-1.3.8-1.3.5 0 2.4-2.1 4.2-4.8 1.9-2.6 4.2-5.6 5.2-6.7 6.5-7.2 8.8-10.2 8.8-11.3 0-2.1 3.3-1.3 6.6 1.6 1.7 1.5 4.6 4.1 6.6 5.8 4.1 3.6 5.2 6 3.2 6.8-.8.3-1.4 1.2-1.4 2.1 0 .8-.3 1.5-.8 1.5-.4 0-1.6 1.6-2.6 3.5-1.1 1.9-2.2 3.5-2.6 3.5-.4 0-1 .8-1.4 1.7-.7 2.3-2.4 4.8-5.6 8.4-4 4.5-5 5.8-5 6.5 0 .4-1.1 2.2-2.5 4-1.4 1.8-2.5 3.7-2.5 4.3 0 .6-.7 1.1-1.5 1.1-1 0-1.5 1-1.5 2.8 0 3 .1 3.1 9.3 7.1 2.6 1.2 6.6 3 9 4.1 2.4 1.1 5.1 2 6 2 .9 0 1.7.4 1.7.9s1.3 1.2 3 1.6c1.6.4 3.2 1.1 3.5 1.6.4.5 1.3.9 2.1.9.9 0 2.2.7 3 1.5.9.8 2.6 1.5 4 1.5 1.3 0 2.4.4 2.4.9s1.4 1.2 3 1.6c1.7.4 3 1.1 3 1.6s.9.9 1.9.9c1.1 0 4.1 1.1 6.7 2.5 2.6 1.4 5.5 2.5 6.6 2.5 1 0 2.1.7 2.4 1.5.4.8 1.7 1.5 3 1.5s2.4.4 2.4.9 1.4 1.3 3.2 1.6c1.8.4 3.9 1.1 4.8 1.6.8.4 4.2 2 7.5 3.5 3.3 1.4 8.1 3.6 10.6 4.9 2.6 1.3 6.1 2.6 7.8 3 1.7.4 3.1 1.1 3.1 1.6s.9.9 2.1.9c1.1 0 2.7.7 3.5 1.5.9.8 2.4 1.5 3.4 1.5 1.1 0 3.9 1.1 6.4 2.5 2.5 1.4 5.2 2.5 6 2.5.9 0 1.6.4 1.6.8 0 .5 1.7 1.4 3.7 2 3.9 1.2 12.3-.1 12.3-1.9 0-.5.7-.9 1.5-.9.9 0 2.6-.6 3.8-1.4 1.2-.8 4.6-2.2 7.5-3.1 2.8-1 5.2-2.1 5.2-2.6s1.1-.9 2.5-.9 2.5-.4 2.5-.9 1.2-1.2 2.7-1.6c1.5-.3 5.2-1.8 8.3-3.2 16.5-7.6 23-10.3 24.6-10.3.8 0 1.4-.5 1.4-1 0-.6 1.1-1 2.4-1 1.3 0 2.9-.7 3.6-1.5.7-.8 2-1.5 3-1.5s2.3-.7 3-1.5c.7-.8 2.1-1.5 3.1-1.5s2.1-.5 2.4-1c.3-.6 1.4-1 2.4-1s3.8-1.1 6.2-2.3c2.4-1.3 5.6-2.7 7.2-3.1 1.5-.3 2.7-1.1 2.7-1.6 0-.6.9-1 1.9-1 1.1 0 2.2-.4 2.6-.9.3-.5 1.9-1.2 3.5-1.6 1.7-.4 3-1.1 3-1.6s1.1-.9 2.5-.9 2.5-.4 2.5-.9 1.4-1.3 3.2-1.6c3-.7 5.1-1.6 8.8-3.7.8-.4 2.2-1.1 3-1.4 7.3-2.8 7.6-4.4 2-11.8-2.2-2.9-4-5.6-4-6 0-.8-1.2-2.3-5.1-6.6-1.5-1.6-2.8-3.2-3-3.7-.8-1.8-8.5-12.8-9.1-13.1-.5-.2-.8-1-.8-1.8s-.4-1.4-1-1.4c-1.1 0-1.4-5-.2-5 .4 0 3.3-2.5 6.5-5.5s6.4-5.5 7.1-5.5c.7 0 2.3 1.5 3.6 3.2 1.3 1.8 3.2 4.2 4.2 5.3 1 1.1 2.9 3.3 4.4 4.9 1.4 1.6 3.7 4.6 5.1 6.7 1.4 2.2 3 3.9 3.4 3.9.5 0 .9.6.9 1.3 0 .7 1.1 2.4 2.5 3.9s2.5 2.9 2.5 3.2c0 .3 1.2 1.8 2.8 3.4 1.5 1.5 3.8 4.2 5.2 6 1.4 1.7 2.8 3.2 3.3 3.2.6 0 4.7-3.3 8.3-6.8.7-.6 1.5-1.2 1.8-1.2.3 0 2.3-1.7 4.5-3.9 2.1-2.1 4.5-4.3 5.4-4.7.8-.5 4.1-3.2 7.3-6 8.3-7.3 15.6-13.5 17.8-15.3 1-.9 3.7-3.3 6-5.3 2.2-2.1 4.4-3.8 4.8-3.8.3 0 2.5-1.8 4.7-4s4.2-4 4.5-4c.2 0 2.4-1.8 4.8-4.1 2.3-2.2 5.9-5.3 7.8-6.7 1.9-1.5 4.6-3.7 5.9-4.9 1.3-1.3 2.8-2.3 3.2-2.3.5 0 .9-.7.9-1.5s.5-1.5 1-1.5c.6 0 1.8-.8 2.8-1.8 2.8-2.6 7.2-6.2 7.6-6.2.2 0 2.4-2 4.9-4.5 2.6-2.5 5-4.5 5.4-4.5.4 0 3.7-2.7 7.1-6 3.5-3.3 6.6-6 6.9-6 .2 0 1-.6 1.7-1.3.7-.6 3.9-3.5 7.1-6.2 3.3-2.8 7.2-6.2 8.7-7.8 1.6-1.5 3.2-2.7 3.6-2.7.4-.1 2.5-1.9 4.7-4 2.2-2.2 4.6-4 5.3-4 .6 0 1.2-.7 1.2-1.5s.5-1.5 1-1.5c.6 0 2.3-1.2 3.8-2.8 1.5-1.5 5.1-4.5 8-6.7 2.8-2.1 5.2-4.3 5.2-4.7 0-.4.4-.8.9-.8s2.8-1.8 5.2-4c6.2-5.6 7.8-7 8.4-7 .3 0 2.7-2.1 5.3-4.8 2.6-2.6 6.5-6 8.7-7.6 2.2-1.6 5.6-4.7 7.6-6.8 2-2.1 3.9-3.8 4.2-3.8.7 0 3.3-2.1 8.3-6.5 1.2-1.1 4.6-4 7.5-6.5 2.9-2.5 6-5.3 6.8-6.3.9-.9 2.1-1.7 2.8-1.7.7 0 1.8-1 2.4-2.2 1-1.9.8-2.4-1.2-4-1.3-1-2.9-2.2-3.6-2.8-.7-.5-1.6-1-2.2-1-.5 0-1.1-.7-1.5-1.5-.3-.8-1.3-1.5-2.2-1.5-.9 0-2.7-1-3.8-2.3-2.3-2.3-5-4.2-7.6-5.4-.8-.4-1.7-.9-2-1.3-.9-1.1-13.2-9-14-9-.4 0-1-.7-1.4-1.5-.3-.8-1.1-1.5-1.8-1.5-4.9-.2-7-7.2-8.4-28.8-.7-12.3-1.6-12.7-9.3-5.3-2.9 2.8-7.1 6.5-9.4 8.3-2.3 1.8-4.3 3.6-4.5 4-.2.5-1 .8-1.8.8s-1.4.7-1.4 1.5-.5 1.5-1 1.5c-1.2 0-2.4.9-7.1 5.2-1.6 1.6-3.2 2.8-3.5 2.8-.3 0-2.9 2.2-5.7 5-2.8 2.7-5.7 5-6.4 5-.7 0-1.3.3-1.3.7 0 .5-2.8 3-6.2 5.8-8 6.4-10 8.2-15.1 12.7-2.2 2.1-4.4 3.8-4.8 3.8-.4 0-2.3 1.5-4.2 3.3-4 3.7-8.6 7.6-13.1 10.9-1.6 1.3-4.8 4-6.9 6-2.2 2.1-4.3 3.8-4.8 3.8s-.9.4-.9 1c0 .5-1.7 2.1-3.7 3.4-2.1 1.3-6 4.5-8.8 7-2.7 2.6-6.2 5.5-7.7 6.4-1.6.9-2.8 2-2.8 2.4 0 .4-.4.8-.9.8s-2.8 1.8-5.2 4c-6.3 5.7-7.8 7-8.5 7-.3 0-2.1 1.6-4 3.5-1.8 1.9-3.6 3.5-3.9 3.5-.3 0-1.3.8-2.3 1.7-1 1-3.5 3.1-5.7 4.8-2.1 1.6-4.6 3.7-5.4 4.5-.9.8-3.7 3.1-6.1 5-2.5 1.9-5.9 5-7.6 6.7-1.7 1.8-3.4 3.3-3.8 3.3-.7 0-5.4 3.9-9.9 8.2-1.6 1.6-3.3 2.8-3.8 2.8s-.9.4-.9 1c0 .5-.6 1-1.4 1-.8 0-1.6.7-2 1.5-.3.8-1.2 1.5-2.1 1.5-.8 0-1.5.4-1.5 1 0 2.5-3.3.3-11.4-7.5-4.7-4.7-9-8.5-9.4-8.5-.4 0-4.4 2.3-9 5-4.6 2.8-8.7 5-9.3 5-.5 0-.9.4-.9.9s-1.1 1.2-2.5 1.5c-1.4.4-2.5 1.1-2.5 1.6 0 .6-1.1 1-2.4 1-1.3 0-2.6.7-3 1.5-.3.8-1.5 1.5-2.6 1.5s-2 .4-2 .9-.8 1.1-1.7 1.5c-2.1.6-5.1 2.5-7.1 4.3-.7.7-2 1.3-2.8 1.3-.8 0-1.4.3-1.4.7 0 .5-1.9 1.7-4.3 2.8-2.3 1.1-4.4 2.2-4.7 2.6-.7.9-9.2 5.8-11.2 6.5-1 .4-1.8 1-1.8 1.5s-.9.9-1.9.9c-1.1 0-2.1.3-2.3.7-.1.5-2.3 1.8-4.8 3.1-7.2 3.6-8 4.5-8 9 0 2.2.5 4.4 1 4.7.6.3 1 1.7 1 2.9 0 1.8-1 2.7-4.3 4-2.3.9-5 1.6-5.9 1.6-1 0-3.2.6-5 1.4-5.3 2.2-10.3 3.6-12.9 3.6-1.4 0-3.4.7-4.5 1.5-1 .8-3.6 1.5-5.6 1.5-2.1 0-3.8.4-3.8 1 0 .5-2 1-4.4 1-2.5 0-4.8-.5-5.1-1-.3-.6-2.1-1-4-1-1.8 0-4.6-.6-6.2-1.4-1.5-.8-5.5-2-8.8-2.7-3.3-.7-7.1-1.9-8.5-2.6-1.4-.7-3.4-1.3-4.5-1.3s-3.8-.7-6-1.4c-4.1-1.5-5.8-4.7-3.6-6.9.6-.6 1.1-2.9 1.1-5 0-4.1-2.8-7.6-6.2-7.7-1 0-1.8-.3-1.8-.8 0-1-5.8-4.2-7.6-4.2-.8 0-1.4-.4-1.4-.9s-.8-1.1-1.7-1.5c-2-.7-10.5-5.6-11.3-6.5-.6-.7-6.2-3.8-10.7-6-1.8-.8-3.3-1.9-3.3-2.3 0-.4-.6-.8-1.4-.8-.8 0-2.1-.6-2.8-1.3-1.5-1.3-4.9-3.3-13-7.5-2.9-1.5-5.4-3-5.6-3.5-.2-.4-.8-.7-1.3-.7s-3.7-1.7-7.1-3.8c-12.3-7.4-10.5-7.5-19.2 1.2-4.2 4.2-8.1 7.6-8.5 7.6-.5 0-1.1.5-1.3 1.1-.5 1.4-5.1-.8-8.5-4-1.2-1.2-2.4-2.1-2.6-2.1-.3 0-2.2-1.7-4.4-3.8-4.8-4.5-8.1-7.2-8.9-7.2-.3 0-2.5-2-5.1-4.5-2.5-2.5-4.9-4.5-5.3-4.5-.5 0-2.9-2-5.4-4.5-2.6-2.5-4.9-4.5-5.1-4.5-.5 0-4.8-3.5-7.7-6.3-1-.9-2-1.7-2.3-1.7-.3 0-2.1-1.6-3.9-3.5-1.9-1.9-3.7-3.5-4-3.5-.7 0-2.7-1.7-8.5-7.1-2.2-2.2-4.5-3.9-5.1-3.9-.5 0-1-.4-1-.9s-.8-1.2-1.7-1.5c-1-.4-4.7-3.3-8.2-6.5-3.5-3.3-8.5-7.4-11.2-9.3-2.7-1.8-4.9-3.9-4.9-4.6 0-.6-.3-1.2-.7-1.2-.5 0-2-1-3.5-2.3-1.4-1.2-3.6-2.9-4.8-3.7-1.2-.8-3.5-2.6-5-4-5.7-5.2-13.3-11.5-14.8-12.4-.9-.5-2.6-2-3.8-3.3-1.2-1.2-2.4-2.3-2.7-2.3-.4 0-1.9-1.2-3.6-2.8-1.6-1.5-4.2-3.7-5.7-4.9-1.6-1.3-4.4-3.6-6.3-5.3-1.8-1.6-3.7-3-4-3-.4 0-3-2.3-5.8-5-2.8-2.8-5.3-5-5.6-5-.6 0-5.6-4.2-9.9-8.3-1.6-1.5-3.3-2.7-3.8-2.7-.4 0-1-.3-1.2-.8-.1-.4-2.3-2.3-4.8-4.2-2.4-1.9-6.7-5.6-9.3-8.3-7.4-7.2-8.3-6.7-9.1 5zM970 605c0 4.6.6 5.4 5.6 8.8 1 .7 2.7 1.5 3.7 1.8.9.4 1.7 1 1.7 1.5s.5.9 1.1.9c.6 0 1.7.6 2.4 1.2 3.3 3 4.5 3.8 5.4 3.8.5 0 1.1.7 1.5 1.5.3.8 1.3 1.5 2.2 1.5.9 0 2.7 1.1 3.9 2.4 1.2 1.3 3.2 2.7 4.3 3.1 1.2.3 2.2 1.1 2.2 1.6s.7.9 1.5.9c.9 0 1.5.9 1.5 2.5s-.6 2.5-1.5 2.5c-.8 0-1.5.4-1.5.8 0 .5-3.7 4-8.2 7.8-4.5 3.8-9.6 8.2-11.4 9.9-1.8 1.6-4.7 4.1-6.4 5.5-1.7 1.4-4.4 3.5-5.8 4.8-1.5 1.3-4.5 3.7-6.6 5.5-5.9 4.8-12.7 10.8-16.4 14.4-1.8 1.8-3.6 3.3-4 3.3-.4 0-2.8 1.9-5.3 4.3-2.5 2.3-6.4 5.7-8.7 7.5-2.2 1.8-5.3 4.5-6.9 6-4.4 4-9.7 8.2-10.5 8.2-.5 0-.8.7-.8 1.5s-.4 1.5-1 1.5c-.5 0-2.8 1.8-5.1 4s-4.6 4-5.1 4-2.2 1.2-3.7 2.7c-1.6 1.6-5.4 5-8.6 7.8-3.1 2.7-6.3 5.6-7 6.2-.8.7-1.8 1.3-2.4 1.3-.6 0-1.1.7-1.1 1.5s-.4 1.5-.9 1.5c-.4 0-1.9 1-3.3 2.2-1.3 1.3-4.9 4.3-7.9 6.8-3 2.4-5.5 4.8-5.7 5.2-.2.5-.8.8-1.3.8s-2.6 1.7-4.7 3.8c-2.1 2.1-5.5 5.1-7.7 6.7-2.1 1.7-5.8 4.8-8.1 7s-5.5 4.9-7 6c-1.5 1.1-3.6 2.8-4.6 3.7-1 1-2 1.8-2.3 1.8-.2 0-2.2 1.7-4.3 3.7-2.1 2.1-5.3 4.9-7.2 6.3-1.8 1.4-5.4 4.5-8 7-2.6 2.5-6 5.5-7.6 6.7-2.9 2.4-8.4 3.1-8.4 1.2 0-1.3-4.6-7.6-7.7-10.5-1.3-1.2-2.3-2.4-2.3-2.8 0-1-5.1-7.7-7.7-10.2-1.3-1.2-2.3-2.6-2.3-3.2 0-.6-.4-1.2-.9-1.4-1.2-.5-9.4-10.8-11-14.1-1.4-2.6-1.3-2.8 3.5-7.3 2.7-2.5 6.1-5.3 7.7-6.2 1.5-.9 2.7-2 2.7-2.4 0-.4.5-.8 1-.8.6 0 2.4-1.2 4-2.8 5.7-5.3 9.1-8.2 9.7-8.2.3 0 1.3-.8 2.2-1.8.9-1 3.6-3.3 6.1-5.2 2.5-1.9 5.6-4.4 6.9-5.7 1.3-1.3 2.8-2.3 3.2-2.3.5 0 .9-.7.9-1.5s.6-1.5 1.3-1.5c.8 0 2.4-1.1 3.7-2.5 1.3-1.4 2.7-2.5 3.1-2.5.5 0 2.1-1.2 3.7-2.8 1.5-1.5 4.3-3.8 6-5.2 6.9-5.3 9.7-7.6 12.1-10.1 1.4-1.4 4.4-3.8 6.6-5.4 2.2-1.6 5-3.9 6.1-5.2 1.2-1.3 2.4-2.3 2.7-2.3.4 0 2-1.2 3.6-2.8 4.1-3.7 5.9-5.2 6.5-5.2.3 0 2.8-2.3 5.7-5 2.9-2.8 5.6-5 6-5 .4 0 2.5-1.6 4.6-3.5 6.4-5.9 7.6-7 11.8-10.1 2.2-1.6 4.9-3.9 6.1-5.2 1.2-1.2 2.4-2.2 2.7-2.2.6 0 3.2-2.2 9.8-8.3 1.7-1.5 3.4-2.7 3.9-2.7s1-.3 1.2-.8c.2-.4 2.3-2.3 4.8-4.2 2.5-1.9 5.5-4.5 6.7-5.7 1.2-1.3 2.6-2.3 3-2.3.5 0 1.7-1.1 2.7-2.5 1-1.4 2.3-2.5 2.7-2.5.5 0 1.8-.8 2.8-1.8 5.3-4.9 9-8 13.1-11.2 2.5-1.9 4.7-3.8 4.8-4.2.2-.5 1-.8 1.8-.8s1.4-.7 1.4-1.5.4-1.5.9-1.5c.6 0 2.7-1.5 4.7-3.4 3.1-2.9 4-3.2 5.6-2.3 1.3.9 1.8 2.4 1.8 5.7zm-680.2-3c1.8 1.6 3.5 3 3.7 3 .2 0 2.3 1.8 4.6 4 2.4 2.2 4.7 4 5.1 4 .4 0 2.5 1.7 4.6 3.7 2.1 2.1 5.6 5.1 7.7 6.7 2.2 1.6 5 4 6.1 5.3 1.2 1.2 2.6 2.3 3.3 2.3.6 0 1.1.4 1.1.8 0 .5 1.8 2.1 4.1 3.8 2.2 1.6 5.4 4.1 7 5.6 1.6 1.6 3.2 2.8 3.4 2.8.2 0 2.3 1.8 4.7 4 2.4 2.2 4.9 4 5.6 4 .6 0 1.2.7 1.2 1.5s.5 1.5 1.1 1.5c.7 0 2.1 1 3.3 2.2 1.2 1.3 3.9 3.6 6.1 5.2 2.2 1.6 4.7 3.7 5.6 4.5 1.8 1.8 3.2 2.9 9.8 8.1 2.5 1.9 6.2 5.2 8.3 7.2 2.1 2.1 4.2 3.8 4.6 3.8.5 0 1.9 1.1 3.2 2.5 1.3 1.4 2.9 2.5 3.7 2.5.7 0 1.3.7 1.3 1.5s.4 1.5 1 1.5c.5 0 2.6 1.5 4.5 3.4 2 1.9 4.4 3.8 5.5 4.1 1.1.4 2 1.1 2 1.6s.7.9 1.5.9 1.5.5 1.5 1.1c0 1.4 2.5 3.9 3.9 3.9.6 0 1.1.4 1.1.8 0 .5 1.9 2.3 4.3 4 2.3 1.7 6.7 5.3 9.7 8.1 3 2.8 6.3 5.3 7.3 5.6.9.4 1.7 1.1 1.7 1.6s.7.9 1.5.9 1.5.5 1.5 1.1c0 1.4 2.5 3.9 3.9 3.9.6 0 1.1.4 1.1.8 0 .5 2.1 2.3 4.6 4.1 2.5 1.8 5.6 4.4 6.9 5.7 1.3 1.3 2.6 2.4 2.9 2.4.5 0 4.2 3.1 9.6 8.2 1.6 1.6 3.4 2.8 3.9 2.8s1.1.3 1.3.8c.2.4 2.3 2.3 4.8 4.2 2.5 1.9 5.8 4.7 7.4 6.3 2.5 2.4 2.7 3.1 1.8 5.2-1.3 2.7-10 13.8-11.3 14.3-.5.2-.9 1-.9 1.8s-.4 1.4-1 1.4c-.5 0-1 .4-1 1 0 .5-1.3 2.3-3 4-1.6 1.7-3 3.4-3 3.9 0 .4-1.6 2.5-3.5 4.5s-4.2 5-5.2 6.6c-.9 1.7-2.1 3-2.5 3-.4 0-.8.7-.8 1.5 0 2.4-4.8 1.8-8.8-1.3-2-1.5-5.5-4.5-7.7-6.7-2.3-2.2-5.7-5.1-7.5-6.5-1.9-1.4-5-4.2-7.1-6.3-2.1-2-4.2-3.7-4.8-3.7-.6 0-1.1-.4-1.1-1 0-.5-1.2-1.6-2.7-2.4-1.6-.8-5.8-4.4-9.5-8-3.7-3.6-7.1-6.6-7.6-6.6-.4 0-3.4-2.5-6.6-5.5-3.2-3-6-5.5-6.3-5.5-.3 0-2-1.6-3.9-3.5-1.8-1.9-3.6-3.5-4.1-3.5-.4 0-3.4-2.5-6.5-5.5s-6.1-5.5-6.5-5.5c-.4-.1-2.6-1.9-4.8-4-2.2-2.2-4.3-4-4.6-4-.4 0-2.6-1.9-5.1-4.3-2.4-2.3-5.6-5.1-7.3-6.2-1.6-1.1-4-3.2-5.4-4.8-1.4-1.5-3.1-2.7-3.8-2.7-.7 0-1.3-.7-1.3-1.5s-.6-1.5-1.4-1.5c-.8 0-1.6-.3-1.8-.8-.3-.6-6.6-6.2-16.2-14.3-1.6-1.3-4.8-4.3-7.3-6.7-2.4-2.3-4.7-4.2-5.1-4.2-.4 0-3-2.2-5.8-4.8-2.8-2.6-6.6-5.9-8.5-7.3-1.9-1.5-4.3-3.5-5.5-4.5-10.3-9.2-14.8-13-16-13.7-.7-.4-3-2.4-5.1-4.3-2.1-2-5.5-5-7.7-6.8-2.1-1.7-5.6-4.8-7.8-6.9-2.1-2-4.3-3.7-4.8-3.7-1.8 0-1.1-4.7.8-5.4 2.2-.7 4.9-2.5 8.1-5.4 1.4-1.2 3-2.2 3.6-2.2.5 0 2.6-1.4 4.5-3 4.9-4.1 5-4.3 9.3-6.5 2-1.1 3.7-2.3 3.7-2.7 0-.5.5-.8 1-.8 2.6 0 5-3.8 5.1-8.1.1-2.4.4-4.7.6-5.2.9-1.5 4-.6 7.1 2.3zM514 746.9c0 .5 1.1 1.2 2.5 1.5 1.4.4 2.5 1.1 2.5 1.6 0 .6.7 1 1.5 1s1.5.4 1.5 1c0 .5 1.1 1.2 2.5 1.6 1.4.3 2.5 1 2.5 1.4 0 .4 1.1 1.1 2.5 1.4 1.4.4 2.5 1.1 2.5 1.6 0 .6.6 1 1.4 1 .7 0 3 1.1 5 2.5s4.3 2.5 5.1 2.5c1.4 0 2 1.6 1.7 5.1-.1.9-1.9 3.6-4.2 6-2.2 2.4-4 4.9-4 5.6 0 .7-.4 1.3-1 1.3-.5 0-1 .7-1 1.5s-.7 1.5-1.5 1.5-1.5.4-1.5 1c0 1-2.1 3.9-5.8 7.7-2.8 3-5.3 2.4-9.8-2.3-1.7-1.9-3.6-3.4-4.3-3.4-1.7 0-1.3-5 .4-5.6.8-.4 1.5-1.2 1.5-1.8 0-.7 1.1-2.2 2.5-3.4 1.9-1.7 2.5-3.2 2.5-6.2 0-2.2-.4-4-1-4-.5 0-1-.6-1-1.3 0-.6-.6-2.4-1.4-3.8-.7-1.4-1.6-3.7-2-5.2-.3-1.5-1.1-2.7-1.6-2.7-.6 0-1-1.4-1-3 0-1.7-.5-3-1.1-3-.5 0-.7-.5-.4-1 .8-1.2 4.5-1.3 4.5-.1zm228.2.3c-.7.7-1.2 2.1-1.2 3.2 0 1.2-1.4 4.8-3 8.1s-3 6.6-3 7.2c0 .7-.4 1.3-1 1.3-.5 0-1 1.6-1 3.6 0 2.7 1 4.7 4 8.3 3.6 4.3 5.3 9.1 3.2 9.1-.5 0-2.5 1.6-4.5 3.5s-4.4 3.6-5.4 3.7c-3.5.3-5.3-.2-5.3-1.5 0-.7-1.1-2.4-2.5-3.9s-2.5-3.2-2.5-3.8c0-.5-.6-1-1.3-1-.6 0-1.8-1.3-2.4-2.8-.7-1.5-3.1-4.7-5.3-7.1-2.2-2.4-4.1-5.1-4.2-6-.3-3.5.3-5.1 1.7-5.1.8 0 3.1-1.1 5.1-2.5 2-1.4 4.3-2.5 5-2.5.8 0 1.4-.4 1.4-1 0-.5 1.1-1.2 2.5-1.6 1.4-.3 2.5-1 2.5-1.4 0-.4.8-1 1.8-1.4 1.8-.6 5.4-2.7 6.2-3.7.3-.4 1.5-.9 2.8-1.3 1.2-.4 2.2-1.2 2.2-1.7s1.2-.9 2.7-.9c2.1 0 2.4.3 1.5 1.2zm-186.5 44.3c1.9.8 4.5 1.5 5.8 1.5 1.2 0 2.5.3 2.8.6.9 1 10.9 4.3 12.8 4.4.9 0 3 .7 4.5 1.5 1.6.8 4.1 1.5 5.7 1.5 1.5 0 2.7.4 2.7.8 0 .8 6.6 2.6 13.5 3.8 1.7.3 3.9.9 5 1.4 11.4 4.7 20.2 5.3 29.3 2.1 2.9-1 5.5-2.1 5.9-2.5.3-.3 2.1-.6 3.9-.6 1.7 0 4.5-.7 6-1.5 1.6-.8 3.9-1.5 5.1-1.5 1.2 0 2.5-.5 2.8-1 .3-.6 2.1-1 4-1 1.8 0 4-.7 4.9-1.5.8-.8 2.8-1.5 4.5-1.5 1.6 0 3.2-.4 3.5-.9.3-.5 2.3-1.2 4.3-1.6 2.1-.4 4.3-1 4.8-1.5.6-.4 2.4-1 4-1.3 1.7-.3 4.8-1.1 7.1-1.8 3.7-1.1 4.3-1 6.2.9 1.2 1.2 2.2 2.6 2.2 3.1s.3 1.1.8 1.3c1 .5 7.2 9.7 7.2 10.8 0 .6.5 1 1 1 .6 0 1 .7 1 1.5s.6 1.5 1.3 1.5c.6 0 1.8 1.3 2.5 2.9.7 1.6 2.6 4.4 4.2 6.3 1.6 1.8 3 3.7 3 4.2 0 .4 2.9 4.8 6.5 9.7 3.6 4.8 6.5 9.3 6.5 9.8s.5 1.1 1.2 1.3c.6.2.9 1.1.6 2-.6 1.4-2.6 2.5-15.3 8.3-2.7 1.2-8 3.6-11.7 5.3-3.6 1.7-8.5 3.7-10.7 4.4-2.3.7-4.1 1.6-4.1 2 0 .5-.5.8-1.1.8-.6 0-2.5.6-4.2 1.4-1.8.8-3.9 1.7-4.7 2-.8.3-2.2 1-3 1.5-.8.5-3.3 1.7-5.5 2.6-2.2.9-4.8 2-5.7 2.5-1 .6-2.7 1-3.8 1-1.1 0-2 .4-2 .9s-1.3 1.2-3 1.6c-1.6.4-3 1.1-3 1.6s-.8.9-1.7.9c-1 0-4.5 1.4-7.8 3s-6.6 3-7.2 3c-.7 0-1.3.4-1.3 1 0 .5-1 1-2.2 1-1.3 0-3.2.7-4.2 1.5-1.1.8-2.8 1.5-3.8 1.5s-1.8.4-1.8 1c0 .5-.7 1-1.6 1-.9 0-2.8.7-4.4 1.6-2.6 1.6-3 1.6-7.4-.5-2.5-1.1-6.5-3-8.9-4.1-2.4-1.1-5.1-2-6-2-.9 0-1.7-.4-1.7-.9s-1.3-1.2-3-1.6c-1.6-.4-3.2-1.1-3.5-1.6-.4-.5-1.4-.9-2.4-.9s-2.4-.7-3.1-1.5c-.7-.8-2.3-1.5-3.6-1.5-1.3 0-2.4-.4-2.4-.9s-1.3-1.2-3-1.6c-1.6-.4-3-1.1-3-1.6s-.9-.9-2-.9c-2 0-2.7-.3-8.7-3.4-1.7-.9-3.8-1.6-4.7-1.6-.9 0-1.9-.7-2.2-1.5-.4-.8-1.7-1.5-2.9-1.5-1.3 0-2.7-.5-3-1-.3-.6-1.3-1-2.2-1-.9 0-2.4-.6-3.2-1.3-.9-.7-3.4-1.9-5.6-2.6-2.2-.8-7.4-3-11.5-4.9-4.1-1.9-9.5-4.3-12-5.4-2.5-1.1-5.7-2.6-7.2-3.4-1.4-.8-3.3-1.4-4.1-1.4-3.3 0-2.7-4.7 1.1-8.8.7-.8 1.9-2.7 2.7-4.3.9-1.6 2-2.9 2.5-2.9.6 0 1-.5 1-1.1 0-.6 1.1-2.5 2.5-4.3 1.4-1.8 2.5-3.7 2.5-4.2s1-2 2.3-3.4c1.2-1.4 3.3-4.2 4.6-6.3 1.2-2 2.7-3.7 3.2-3.7s.9-.7.9-1.5.5-1.5 1-1.5c.6 0 1-.4 1-1 0-1.1 6.2-10.3 7.3-10.8.4-.2.7-.8.7-1.3 0-1.6 3.4-4.7 5.3-4.8 1-.1 3.4.6 5.4 1.4z"/><path d="M894.4 666.4c-2.7 2.5-5.5 4.6-6.1 4.6-.7 0-1.3.4-1.3 1 0 .5-.7 1-1.5 1s-1.5.7-1.5 1.5-.3 1.5-.8 1.5c-.4 0-2.1 1.2-3.8 2.7-5.7 5.1-8.4 7.3-9 7.3-1.7 0-7.4 10.4-7.4 13.4 0 .8-.4 1.7-.9 2-.4.3-.8 5.4-.9 11.2 0 11.1 1.2 15.4 4.5 15.4 1.5 0 9.5-5.7 10.1-7.2.2-.5 1-.8 1.8-.8s1.4-.6 1.4-1.3c0-1 6.1-5.7 7.5-5.7.3 0 .5 1.3.5 3 0 2.9-4.7 9-7 9-.5 0-1 .7-1 1.5s-.5 1.5-1 1.5c-.6 0-2.3 1.1-3.8 2.5s-3 2.5-3.5 2.5c-.4 0-1.8 1.1-3.1 2.5s-2.8 2.5-3.5 2.5c-1.2 0-1.5 5.7-.5 8.4.5 1.4.9 1.4 3.4-.4 3.6-2.6 8.6-6.8 12.1-10.3 1.6-1.5 3.3-2.7 3.9-2.7.5 0 1-.7 1-1.5s.6-1.5 1.3-1.5c1.8 0 14.7-11.9 14.7-13.5 0-.7.4-1.5 1-1.7 3.1-1.1 5.3-23.7 2.8-30.5-1.5-4.1-5-4.5-8.4-.8-1.3 1.4-2.7 2.5-3.1 2.5-.5 0-2 1.1-3.5 2.5s-3.2 2.5-3.8 2.5c-.5 0-1 .7-1 1.5s-.4 1.5-.9 1.5-1.6.3-2.5.6c-1.3.5-1.6-.1-1.6-2.6 0-2.8 1.8-6 3.4-6 .3 0 2.4-1.8 4.6-4 2.2-2.2 4.3-4 4.8-4 .4 0 1.8-1 3.2-2.3 1.4-1.3 3.8-3.2 5.3-4.2 2.4-1.5 2.8-2.4 2.5-5.4-.5-5.1-2.7-5-8.4.3zM344.8 684.2l-.3 27.3 2.7 2.7c1.5 1.6 2.9 2.8 3.2 2.8.2 0 2.4 1.8 4.7 4 7 6.5 7.9 5.8 7.8-6.1 0-5.6.2-10.3.5-10.6.3-.3 1.2.2 2.1 1.1.9.9 2 1.6 2.4 1.6.4 0 2.2 1.4 4 3.2l3.2 3.2-.2 11.6c-.3 10.8-.2 11.7 1.9 13.8 1.2 1.2 2.6 2.2 3.1 2.2s1.1.3 1.3.7c.5 1.2 8.1 6.9 10.2 7.6 1.6.7 1.8.4 1.2-2.5-.8-4.1-.8-44.5 0-48.7.5-2.5.2-3.5-1.7-5.2-1.3-1.1-3.6-3.1-5.1-4.5-1.5-1.3-3-2.4-3.3-2.4-.3 0-1.8-1.1-3.2-2.4-1.5-1.4-3-2.3-3.5-2-.4.3-.8 4.8-.8 10 0 5.7-.4 9.4-1 9.4-1.6 0-5-2.2-8.3-5.3-3-2.9-3-2.9-2.8-14l.1-11.1-3-2.8c-1.7-1.5-3.4-2.8-3.7-2.8-.3 0-1.6-1.1-2.9-2.5-1.3-1.4-2.6-2.5-2.9-2.5-.4 0-1.3-.7-2.1-1.5-.9-.8-1.9-1.5-2.4-1.5s-1 12.3-1.2 27.2zM581.1 810.9c-.9.6-1.2 7.1-1.1 28.1 0 15.1.5 27.9 1 28.5.5.6 3.2 1.9 5.9 2.9 2.8 1 5.1 2.2 5.1 2.7s1.1.9 2.5.9 2.5.4 2.5.9 1.3 1.2 3 1.6c1.6.4 3.2 1.1 3.5 1.6.4.5 1.9.9 3.4.9 3.5 0 4.1-1.6 4.1-12.1 0-6.1.3-7.8 1.6-8.3 2.5-1 25.8-.7 27.4.4 1.1.7 1.5 3.1 1.5 10.2 0 9 .1 9.3 2.3 9.6 1.3.2 3.8-.4 5.7-1.2 1.8-.9 3.8-1.6 4.4-1.6.6 0 1.1-.5 1.1-1 0-.6.8-1 1.9-1 1 0 2.4-.7 3.1-1.5.7-.8 2.2-1.5 3.4-1.6 1.1 0 3.5-.8 5.1-1.8l3-1.8.5-27.2c.3-15 .2-27.8-.2-28.4-.9-1.5-7.6-1-10.2.8-1.1.8-3.1 1.5-4.3 1.5-1.3 0-3.1.4-4.1.9-.9.5-3.8 1.7-6.5 2.6-5.4 1.9-5.9 3-5.4 11.9.2 3.2.2 6.9-.1 8.3l-.4 2.4-14.9-.2-14.9-.1-.1-4.1c-.1-2.3-.1-6.1.1-8.4.3-6.5-.6-8-5.8-9.8-2.6-.9-5.5-2.1-6.4-2.6-1-.5-2.8-.9-4.1-.9-1.2 0-3.1-.6-4.2-1.3-2.6-1.8-7.8-2.8-9.4-1.8zM419.1 628.7c-1.2 5.7-1.9 10.9-4 28.8-.9 7.5-.8 9.3.5 11.2.8 1.3 1.8 2.3 2.3 2.3.4 0 2.4 1.6 4.4 3.5 2 1.9 4.1 3.5 4.7 3.5.5 0 1 .6 1 1.3 0 .8 1.1 2 2.5 2.7 1.4.7 2.5 1.9 2.5 2.7 0 .7.6 1.3 1.4 1.3.8 0 1.6.3 1.8.8.2.4 2.3 2.3 4.8 4.2 2.4 1.9 5.6 4.6 7.1 6 1.4 1.4 4.5 4.1 6.9 6 2.4 1.9 5.6 4.7 7.2 6.2 1.5 1.6 3.2 2.8 3.8 2.8.5 0 1 .7 1 1.5s.7 1.5 1.5 1.5 1.5.4 1.5 1c0 2 3.9 1 5.8-1.5 1.1-1.4 2.2-2.5 2.5-2.5.3 0 2.4-1.9 4.9-4.3 2.4-2.3 7.4-6.9 11.1-10.2 3.7-3.3 6.7-6.3 6.7-6.7 0-1.1-3.8-4.8-4.9-4.8-.5 0-1.1-.3-1.3-.8-.1-.4-3.4-3.4-7.3-6.7-3.8-3.3-7.1-6.3-7.3-6.8-.2-.4-1-.7-1.8-.7s-1.4-.6-1.4-1.3c0-.7-1.4-2.1-3.2-3.2-1.8-1-4.2-2.9-5.4-4.2-1.2-1.3-2.6-2.3-3.3-2.3-.6 0-1.1-.5-1.1-1.1 0-1.1-2.5-3.9-3.5-3.9-.4 0-1.2-.6-1.9-1.3-.7-.6-2.8-2.3-4.6-3.7-1.8-1.4-5.2-4.3-7.4-6.5-2.3-2.2-5.8-5.3-7.9-6.8-2.1-1.6-5.5-4.6-7.7-6.8-2.1-2.1-4.3-3.9-4.8-3.9-.6 0-1.2-.4-1.4-.9-.1-.4-1.2-1.1-2.4-1.5-1.8-.6-2.2 0-3.3 5.1zM827.6 624.5c-.8.8-1.8 1.5-2.2 1.5-.3 0-2.1 1.5-3.8 3.2-1.7 1.8-4.7 4.6-6.6 6.1-1.9 1.6-6 5-9 7.7-11.7 10.3-13.8 12-14.4 12-1.1 0-3.6 2.7-3.6 3.9 0 .6-.7 1.1-1.5 1.1s-1.5.3-1.5.7c0 .5-2.3 2.4-5 4.3s-5 4.1-5 4.7c0 .7-.6 1.3-1.4 1.3-.8 0-1.6.3-1.8.7-.1.5-3.4 3.5-7.3 6.8-3.8 3.3-7.1 6.3-7.3 6.7-.2.5-.8.8-1.3.8-1.5 0-4.9 3.9-4.9 5.5 0 .8.3 1.5.8 1.5.6 0 6.4 4.9 15.6 13.2 1.7 1.6 3.4 2.8 3.8 2.8.5 0 .8.7.8 1.5s.5 1.5 1.1 1.5c.6 0 2 1.1 3.1 2.5 1.9 2.5 5.8 3.5 5.8 1.5 0-.6.7-1 1.5-1s1.5-.7 1.5-1.5.5-1.5 1-1.5c.6 0 2.8-1.7 4.9-3.8 2.2-2 5.4-4.8 7.2-6.2 1.7-1.4 4.4-3.6 5.8-5 1.5-1.4 4.7-4.1 7.1-6 2.5-1.9 4.7-3.8 4.8-4.2.2-.5 1-.8 1.8-.8s1.4-.5 1.4-1.1c0-1.4 2.5-3.9 3.9-3.9.6 0 1.1-.7 1.1-1.5s.5-1.5 1.1-1.5c.6 0 2.7-1.6 4.7-3.5s4.4-3.7 5.3-4c.9-.3 1.9-1.3 2.1-2.3.7-2.9-2.1-29.3-4.3-39.5-1.3-5.9-2.6-6.9-5.3-4.2zM197.5 701.5c-5.9 5.8-11 10.5-11.6 10.5-.5 0-.9.7-.9 1.5s-.5 1.5-1.1 1.5c-1.4 0-3.9 2.5-3.9 3.9 0 .6-.6 1.1-1.3 1.1-.7 0-2 1.3-2.9 2.8-1.9 3.2-1.4 8.9 2.1 20.7 1.1 3.8 2.1 8.4 2.1 10.1 0 1.6.4 3.4.9 4 1 1 3 8.9 3.8 14.9.3 2.2 1.2 4.9 1.9 6 .8 1.1 1.4 3.6 1.4 5.7 0 3.3.3 3.8 2.4 3.8 1.9 0 2.5-.6 2.9-3.3.2-1.7 1.2-5.7 2.1-8.7.9-3 2.1-7.2 2.5-9.3.5-2.1 1.4-4.4 2-5 .6-.6 1.1-2.4 1.1-3.9 0-1.9.6-3.1 1.8-3.4.9-.3 2.9-1.2 4.4-2 1.4-.8 3.5-1.4 4.6-1.4 1.2 0 2.3-.4 2.6-.9.3-.5 2.6-1.2 5.1-1.5 2.5-.4 4.5-1.1 4.5-1.6 0-.4 1.5-1 3.3-1.3 5-.8 12-2.7 13.2-3.6 1.8-1.5 9.3-2 10.9-.7.8.6 1.6 2.7 1.9 4.6.9 5.9 2.9 13.4 3.8 14.4.5.6.9 2.3.9 3.9 0 1.5.5 3.8 1.2 5 .6 1.2 1.5 3.8 1.9 5.7 1.7 7.6 3 12.5 3.8 13.5.5.5 1.1 2.6 1.4 4.5.3 1.9 1.2 6.2 2.2 9.5.9 3.3 2 7.6 2.4 9.5.4 1.9 1.3 4.5 1.9 5.7.7 1.2 1.2 3.3 1.2 4.7 0 1.4.5 2.8 1 3.1 1.1.7 1.4 4.5.4 4.5-1.2 0-4.3-4.5-4.4-6.3 0-.9-.4-1.7-1-1.7-.5 0-1-.5-1-1.1 0-1.1-1.2-4-5.6-13.4-1.2-2.8-2.6-6-2.9-7.3-.4-1.2-1.1-2.2-1.6-2.2s-.9-1.1-.9-2.4c0-1.3-.3-2.6-.7-2.8-1-.4-4.3-6.6-4.3-8 0-.6-1.2-3.7-2.7-6.9l-2.8-5.9-17-.1c-9.3-.1-17.9 0-19 .1-2.8.3-4.9 2.3-7.1 7-1 2.2-2.2 4-2.6 4-.5 0-.8.9-.8 2s-.7 2.3-1.5 2.6c-.8.4-1.5 1.4-1.5 2.5 0 1-.6 2.2-1.2 2.6-.7.4-2.1 2.5-3 4.6-1.7 3.6-1.8 3.7-3.5 1.9-2-2.1-4-4.9-5-7.2-.4-.8-.9-1.7-1.2-2-.7-.6-8.4-12.1-9-13.3-.8-1.9-4.7-5.3-6.1-5.2-1.1 0-1.7 1.6-2.1 6.1-.3 3.3-.9 6.7-1.4 7.4-.5.7-1.2 4.3-1.6 7.9-1.4 11.6-2.8 20.2-3.5 21.2-.3.6-1.1 3.9-1.6 7.2-.5 3.4-1.1 7.6-1.4 9.4-.6 3 1.1 6.3 3.1 6.3.6 0 2.3 1.3 5.5 4.2 1 .9 4.5 3.3 7.7 5.3 3.2 2.1 6 4.1 6.3 4.4.3.4 2.2 1.7 4.3 3 2 1.2 3.7 2.7 3.7 3.2s.6.9 1.4.9c.8 0 2.1.6 2.8 1.2 2.8 2.7 8.7 6.8 9.7 6.8.6 0 1.1.3 1.1.7 0 .9 6.2 5.3 7.3 5.3 1.6 0 .2-10.5-2.5-18.5-3.2-9.5-4.5-16.5-3.1-16.5.6 0 1.8-1.6 2.9-3.5 1-1.9 2.2-3.5 2.6-3.5.5 0 .8-.7.8-1.5s.4-1.5.9-1.5 1.9-1.6 3.2-3.5c3.5-5.1 5.3-5.3 9.7-.8 2.1 2.1 5.3 4.9 7.2 6.3 1.8 1.4 5.5 4.6 8.3 7.2 2.7 2.7 5.2 4.8 5.6 4.8.3 0 2.7 2 5.3 4.5 2.7 2.5 5.2 4.5 5.8 4.5.5 0 1 .7 1 1.5s.5 1.5 1.1 1.5c.7 0 2.1 1.1 3.3 2.3 1.2 1.3 3 2.8 4 3.4 1.1.6 1.4 1.3.8 1.7-.6.3-1.7-.1-2.5-.9-.9-.8-2.3-1.5-3.3-1.5-.9 0-3.2-1.1-5-2.5-1.8-1.4-3.7-2.5-4.2-2.5s-1.5-.7-2.2-1.5c-.7-.8-2.1-1.5-3.1-1.5-1.1 0-1.9-.5-1.9-1 0-.6-.9-1-2-1s-2.3-.7-2.6-1.5c-.4-.8-1.3-1.5-2.2-1.5-.8 0-2.3-.7-3.3-1.6-2.4-2.2-4.7-2.1-11.4.5-9.7 3.6-9.4 3.2-7.8 13.6.8 5 1.8 10.4 2.4 12.1 1.5 4.9 1.2 11.4-.6 11.4-.8 0-1.5-.5-1.5-1 0-.6-.8-1-1.7-1-1.6 0-18.2-7.7-19.3-8.9-.3-.4-2.1-1.3-4-2.2-1.9-.9-6.1-2.9-9.3-4.4-3.2-1.5-6-2.5-6.3-2.2-.3.3.5 2.2 1.9 4.4 1.3 2.1 2.6 4.5 3 5.3.8 1.7 3 5.3 3.7 6 1 1 3.1 4.5 3.6 6.2.4 1 1 1.8 1.3 1.8.4 0 2.2 2.8 4 6.2 3.8 7.4 5.2 9.7 6.9 11.6.6.7 1.2 1.9 1.2 2.5 0 .7 1.3 2.7 2.9 4.5l2.9 3.3 23.4-.2c36.6-.4 38.3-.7 33.2-6.2-1.3-1.4-2.4-2.8-2.4-3.1 0-1.1-6.4-9.6-7.2-9.6-.4 0-.8-.9-.8-2s-.4-2-1-2c-1.4 0-1.2-4.2.3-6.2.7-.9 3.2-2.4 5.4-3.3 4.7-1.9 9.7-1.7 33.3.9 8 .9 20.1 2.1 27 2.6 6.9.5 14.5 1.3 17 1.9 2.5.6 8.4 1 13.2 1.1 4.8 0 9 .4 9.3 1 .3.5 1.5 1 2.6 1s3.2 1.7 4.9 4.2c4.7 6.4 3.7 11.8-2 11.8-1.4 0-3.5.7-4.6 1.5-1 .8-3.3 1.5-5.1 1.5-1.7 0-3.5.4-3.8 1-.3.5-2.1 1-3.9 1-1.8 0-4.1.7-5.2 1.5-2.1 1.6-9.4 2.1-9.4.6 0-.5-1.3-2.2-2.8-3.8-1.5-1.5-3.6-3.9-4.6-5.3-1.2-1.7-2-2.1-2.3-1.2-.3.7-1.1 1.9-1.9 2.6-.8.8-1.4 2.4-1.4 3.5s-.4 2.2-.9 2.5c-.5.3-1.2 2.2-1.5 4.1-.4 1.9-1.1 3.5-1.6 3.5-.6 0-1 1.1-1 2.5 0 2 .6 2.5 3.8 3 2 .3 5.3 1 7.3 1.5 2 .6 4.8 1 6.3 1 1.4 0 3.4.4 4.4 1 1.7.9 9 2.4 18.7 3.9 2.8.4 6 1.2 7.2 1.9 1.2.7 3.9 1.2 6.1 1.2 2.1 0 4.2.3 4.6.7 1.6 1.6 24.3 5.4 24.7 4.1.4-1.5 2-26.3 2.9-43.8.5-11.8 1.4-25.6 2-30.5.5-5 1-13.1 1-18.2 0-7.9-.2-9.2-1.7-9.5-1-.2-11.5-.2-23.3 0-16.4.3-21.9.8-23.1 1.8-.8.8-2.1 1.4-2.7 1.4-.7 0-1.2.4-1.2.8 0 .5-1.8 1.7-4 2.8-2.2 1-4 2.3-4 2.9 0 1.1-4.6 3.5-6.6 3.5-.6 0-1.4.7-1.8 1.5-.3.8-1.1 1.5-1.8 1.5s-2.5 1.1-4 2.5-3.4 2.5-4.3 2.5c-2.3 0-.3-2.9 8.3-11.7 3.9-4.2 7.2-7.9 7.2-8.3 0-.4.6-1 1.4-1.3 1-.4 1.5-3.6 2-11.9 1.1-20.5 2.3-36.1 3.6-47.5 1.6-12.7 2.2-11.2-7-18.3-2.5-1.9-5.4-4.3-6.5-5.5-2.4-2.3-7.2-6.5-13.5-11.5-2.4-1.9-5.5-4.6-6.9-6-1.4-1.4-4.6-4.1-7.1-6-2.5-1.9-5.9-5-7.6-6.7-1.7-1.8-3.6-3.3-4.3-3.3-.6 0-1.1-.7-1.1-1.5s-.7-1.5-1.5-1.5-1.5-.5-1.5-1c0-.6-.6-1-1.2-1-.7 0-3.9-2.5-7.1-5.5-3.2-3-6.7-6.1-7.8-6.8-1-.8-3.7-3.1-5.9-5.1-2.1-2-4.4-3.6-5-3.6-.5 0-1-.7-1-1.5 0-1.3-3.6-1.5-26.5-1.5h-26.4l-10.6 10.5zM991 692.5c0 .8-.5 1.5-1.1 1.5-.7 0-2.1 1-3.3 2.3-1.1 1.2-3.9 3.6-6.1 5.2-2.2 1.7-4.9 4-6.1 5.2-1.2 1.3-2.4 2.3-2.8 2.3-.4 0-1.9 1.3-3.3 3-1.3 1.6-2.9 3-3.5 3-.6 0-2.1 1.1-3.4 2.5-1.3 1.4-2.6 2.5-3 2.5-.4 0-2.1 1.5-3.8 3.3-1.7 1.7-5.1 4.8-7.6 6.7-2.4 1.9-5.6 4.6-7.1 6-1.4 1.4-4.5 4.1-6.8 6-9 7.4-11.6 9.6-16 13.7-2.5 2.4-4.9 4.3-5.4 4.3-.4 0-2.1 1.3-3.7 2.9-3.4 3.2-3.7 5.7-1.9 15.6.9 5.5 1.9 18.3 3.7 46.9.5 7.4 1.1 11.1 2 11.4.6.2 1.2.8 1.2 1.3 0 .4 3.3 4.2 7.3 8.3 8.5 8.7 10.5 11.6 8.2 11.6-.9 0-2.8-1.1-4.3-2.5s-3.3-2.5-4-2.5c-.7 0-1.5-.7-1.8-1.5-.4-.8-1.2-1.5-2-1.5-1.9 0-4.9-1.9-8.8-5.2-1.7-1.6-3.6-2.8-4.3-2.8-.7 0-1.3-.3-1.3-.8 0-.4-1.5-1.5-3.2-2.4-2.7-1.4-7.2-1.7-25.8-2l-22.5-.3-.3 9c-.2 4.9.2 13.3.8 18.5.6 5.2 1.6 19.2 2.1 31 .8 17.7 2.4 42.4 2.8 43.8.2.8 12.1-.7 18.1-2.3 3.6-.9 8.8-2 11.5-2.4 2.8-.3 5.7-1.1 6.5-1.6.8-.5 3.8-1.3 6.5-1.7 14-2.1 19.5-3.2 19.5-4 0-.4 1.4-.8 3.1-.8 1.8 0 4.8-.4 6.8-1 2-.5 5.3-1.2 7.4-1.5 3.1-.5 3.7-1 3.7-3 0-1.4-.4-2.5-1-2.5-.5 0-1.2-1.6-1.6-3.5-.3-1.9-1-3.8-1.5-4.1-.5-.3-.9-1.5-.9-2.7-.1-1.2-1-3.3-2.1-4.6-1.7-2.1-2.2-2.2-3-1-.5.7-.9 1.8-.9 2.2 0 .5-.4.5-1 .2-.5-.3-1 .1-1 .9s-1.1 2.3-2.5 3.4-2.5 2.5-2.5 3.1c0 1.6-7.2 1.3-9.4-.4-1.1-.8-3.4-1.5-5.2-1.5-1.8 0-3.6-.5-3.9-1-.3-.6-1.8-1-3.3-1-1.5-.1-3.8-.7-5.2-1.5-1.4-.8-3.6-1.4-5-1.5-6 0-6.8-6.4-1.7-12.3 1.8-2 4-3.7 4.9-3.7.9 0 2-.5 2.3-1 .3-.6 4.5-1 9.3-1.1 4.8 0 11-.5 13.7-1 2.8-.6 10.4-1.4 17-1.9s18.3-1.6 26-2.5c25-2.8 30.1-2.9 34.3-.9 2 .9 4.2 2.4 4.9 3.3 1.5 1.9 1.7 6.1.3 6.1-.5 0-1 .9-1 2s-.4 2-.8 2c-.8 0-7.2 8.5-7.2 9.6 0 .3-1.1 1.7-2.4 3.1-2.2 2.4-2.3 2.8-.9 4.2 1.3 1.3 5.9 1.6 29.5 1.9l27.9.4 1.9-2.3c1.1-1.3 2.4-2.9 3-3.6.5-.7 1-1.7 1-2.2 0-.5.6-1.6 1.3-2.3 1.6-1.9 3-4.2 6.8-11.6 1.8-3.4 3.6-6.2 4-6.2.3 0 .9-.8 1.3-1.8.5-1.7 2.6-5.2 3.6-6.2.7-.7 2.9-4.3 3.7-6 .4-.8 1.7-3.2 3-5.2 2.7-4.4 2.8-4.8.8-4.8-.8 0-1.5.4-1.5.9s-1.3 1.2-3 1.6c-1.6.4-3.2 1.1-3.5 1.6-.4.5-1.4.9-2.4.9s-2.4.7-3.1 1.5c-.7.8-2.1 1.5-3 1.5-1 0-2 .3-2.2.7-.1.5-4.3 2.7-9.3 5.1-4.9 2.4-9.8 4.8-10.7 5.3-1 .5-2.2.9-2.8.9-1.3 0-1.3-7.3-.1-11.4.6-1.7 1.6-7.2 2.4-12.1 1.6-10.4 1.6-10.4-7.8-13.7-6-2.2-9.9-2.3-11.5-.3-.7.8-2.1 1.5-3.1 1.5-1.1 0-1.9.7-1.9 1.5s-.8 1.5-1.9 1.5c-2.2 0-4.5 1.2-12.4 6.3-3.1 2-6.4 3.7-7.3 3.7-.8 0-2.2.7-3 1.5-1.8 1.7-3.4 2-3.4.5 0-.6.4-1 .9-1s2.3-1.4 3.9-3c1.7-1.7 3.5-3 4.1-3 .6 0 1.1-.7 1.1-1.5s.5-1.5 1-1.5c.6 0 2.5-1.4 4.3-3.1 1.7-1.7 5.2-4.8 7.7-6.8 2.5-1.9 5.4-4.5 6.5-5.6 1.1-1.1 3.6-3.2 5.5-4.6 1.9-1.5 5.5-4.6 7.9-6.9 3.9-3.7 4.7-4.1 6.7-3.1 1.3.6 2.4 1.6 2.4 2.2 0 .7 1.1 2.2 2.5 3.5 1.4 1.3 2.5 2.8 2.5 3.4 0 .5.5 1 1 1 .6 0 1 .6 1 1.3 0 .7 1.1 2.4 2.5 3.9 2.5 2.7 3.3 7.2 1.5 8.3-.5.3-1 1.8-1 3.3 0 1.5-.7 4-1.5 5.6-.8 1.5-1.5 4.3-1.5 6 0 1.8-.4 3.6-1 4.2-1.1 1.1-1.7 8-.7 9 .7.8 7.7-3.6 7.7-4.9 0-.4.5-.7 1.1-.7 1 0 6.9-4.1 9.7-6.8.7-.6 2-1.2 2.8-1.2.8 0 1.4-.4 1.4-.8s1.8-1.9 4-3.2c2.2-1.4 4-2.8 4-3.3 0-.4.7-.7 1.5-.7s1.5-.3 1.5-.8c0-.4 1.6-1.6 3.5-2.6 1.9-1.1 3.5-2.3 3.5-2.8 0-.4.5-.8 1-.8.6 0 1.9-.8 2.9-1.8 3.3-2.9 5-4.2 5.6-4.2 2 0 3.7-3.3 3.1-6.3-.3-1.8-.9-6-1.4-9.4-.5-3.3-1.3-6.6-1.6-7.2-.7-1-1.9-8.5-3.5-21.1-.5-3.6-1.4-7.8-2-9.3-.6-1.6-1.1-4.8-1.1-7.2 0-3-.5-4.5-1.6-4.9-2-.8-3.4.1-3.4 2 0 .8-.7 1.4-1.5 1.4s-1.5.4-1.5 1c0 .7-4.8 8.2-8.7 13.6-1.4 1.9-3.3 4.9-4 6.3-.3.8-1.5 2.3-2.4 3.2-1.8 1.8-1.9 1.7-3.5-1.6-.9-1.9-2.2-3.9-3-4.6-.8-.6-1.4-1.9-1.4-2.9s-.7-2-1.5-2.4c-.8-.3-1.5-1.5-1.5-2.6s-.3-2-.8-2c-.4 0-1.3-1.3-2-2.9-.7-1.6-2.2-4.1-3.3-5.5l-2-2.6h-19.5c-16.6 0-19.4.2-19.4 1.5 0 .8-.4 1.5-.9 1.5s-1.2 1.3-1.6 3c-.4 1.6-1.1 3.2-1.6 3.5-.5.4-.9 1.5-.9 2.5 0 2-3 8.3-4.2 8.8-.5.2-.8 1.5-.8 2.8 0 1.3-.4 2.4-.9 2.4s-1.3 1-1.6 2.2c-.4 1.3-2.2 5.5-4 9.3-1.8 3.9-3.7 8.3-4 9.8-.4 1.5-1.1 2.7-1.6 2.7s-.9.9-.9 2-.7 2.3-1.5 2.6c-.8.4-1.5 1.2-1.5 2s-.4 1.4-1 1.4c-1.2 0-1.3-3.4-.1-5.8 1.4-2.9 3.3-8.5 4.1-12.7.5-2.2 1.6-6.5 2.5-9.5.9-3 2.1-7.1 2.5-9 .5-1.9 1.6-6 2.5-9 1-3 2-7.1 2.4-9 .4-1.9 1.3-4.5 1.9-5.7.7-1.2 1.2-3.5 1.2-5 0-1.6.4-3.3.9-3.9 1-1 3-8.8 3.8-14.7.8-6 3-6.3 16.5-2.5 2.6.8 5 1.7 5.4 2.1.4.4 2.2.7 4.1.7 1.8 0 3.3.4 3.3 1 0 .5.6 1 1.4 1 1.8 0 11.2 2.8 15.1 4.6 1.7.7 3.8 1.5 4.8 1.8 1.1.3 1.7 1.6 1.7 3.3 0 1.5.7 3.7 1.5 4.7.8 1.1 1.5 3.4 1.5 5.1 0 1.7.4 3.5.9 4 .9 1 2.5 6.1 3.9 13.3.4 1.8 1 3.3 1.5 3.2h2.1c.9 0 1.5-1.7 1.8-5.2.3-2.9 1.1-5.4 1.7-5.6.6-.2 1.1-2.1 1.1-4.3 0-2.2.4-4.7.9-5.7 1.5-3.1 4.1-11.9 4.2-14.3 0-2.6 3.1-14.8 4.1-16.4.3-.6.9-3.4 1.3-6.2.6-5 .5-5.4-2.4-8.4-1.7-1.7-3.1-3.4-3.1-3.8 0-.4-1.1-1.4-2.5-2.1-1.4-.7-2.5-1.9-2.5-2.7 0-.7-.4-1.3-1-1.3-1.3 0-7-5.7-7-7 0-.5-.5-1-1-1-.6 0-3.8-2.8-7.2-6.3l-6.3-6.2-26.7-.3c-23.6-.3-26.8-.1-26.8 1.3z"/><path d="M355.5 777.2c-.2.7-.6 5.1-.8 9.8-.3 4.7-1 12.4-1.7 17.1-.6 4.7-1 11.4-.8 15l.3 6.4 7-.2c3.9-.1 15-.5 24.8-.9l17.7-.6v-2.3c0-1.3.5-2.7 1-3 1.1-.7 1.3-5.4.4-7.9-.3-.8-3.5-3.4-7.1-5.7-3.6-2.4-8.4-6-10.6-8.1-2.3-2.1-4.7-3.8-5.4-3.8-.8 0-1.6-.7-1.9-1.5-.4-.8-1-1.5-1.6-1.5-.5 0-2-1.1-3.4-2.5s-2.9-2.5-3.5-2.5c-.5 0-2-1.1-3.3-2.5-1.3-1.4-2.8-2.5-3.5-2.5-.6 0-1.1-.4-1.1-.8 0-.8-4.3-3.2-5.6-3.2-.2 0-.6.6-.9 1.2zM892.8 777.2c-1.6.5-2.8 1.4-2.8 1.9s-.5.9-1.1.9c-.7 0-2.2 1.1-3.5 2.5-1.3 1.4-2.8 2.5-3.4 2.5-.5 0-2 1.1-3.2 2.5-1.2 1.4-2.7 2.5-3.4 2.5-.6 0-1.4.7-1.8 1.5-.3.8-1.1 1.5-1.9 1.5-.7 0-3.2 1.8-5.6 4-2.3 2.2-4.4 4-4.6 4-.9 0-11.2 7.3-12.2 8.8-1.5 1.9-1.7 7.8-.3 8.7.6.3 1 1.7 1 2.9v2.4l18.3.6c10 .4 21.3.9 25.1 1.2l6.9.6-.6-11.9c-.3-6.5-.8-12.9-1.2-14.3-.3-1.4-.9-7.1-1.2-12.8-.3-5.6-.9-10.4-1.2-10.6-.3-.2-1.8.1-3.3.6zM542.5 904.1c-2.2 1.1-5.3 2.8-7 3.9-1.6 1-3.8 1.9-4.7 1.9-1 .1-1.8.5-1.8 1s-1 1.3-2.2 1.7c-1.2.3-2.8 1.3-3.6 2-.7.8-2 1.4-2.8 1.4-.8 0-1.4.4-1.4 1 0 .5-.6 1-1.4 1-.8 0-2.1.6-2.8 1.2-.7.7-4 2.6-7.3 4.3-3.3 1.6-6.2 3.3-6.5 3.6-.3.4-1.5.9-2.7 1.3-1.3.4-2.3 1.2-2.3 1.7s-.6.9-1.4.9c-.8 0-2.1.6-2.8 1.3-.7.6-3.1 2.1-5.3 3.2-2.2 1.1-4.1 2.3-4.3 2.7-.2.5-1.5.8-2.8.8-1.3 0-2.4.4-2.4.8 0 .5-1.9 1.8-4.2 3.1-2.4 1.2-5.6 3.1-7.3 4.2-1.6 1-3.8 2.2-4.7 2.5-1 .4-1.8 1-1.8 1.5s-.7.9-1.5.9c-1.4 0-5.1 1.9-11 5.8-1.1.6-2.7 1.5-3.5 1.9-.8.4-1.7.9-2 1.2-.3.3-2.6 1.7-5.2 3.1-2.7 1.3-4.8 2.8-4.8 3.2 0 .5-.8.8-1.9.8-3.7 0-4.2 2.2-3.9 17.6l.3 14.9h12c14.9-.1 22.4-1.3 23.9-4 .6-1 4.4-5.2 8.4-9.1 3.9-3.9 7.2-7.4 7.2-7.7 0-.3 3.7-4.3 8.1-8.9 4.5-4.5 9.2-9.7 10.5-11.4 1.3-1.7 7-7.8 12.6-13.6 5.7-5.7 11.8-12.2 13.7-14.4 1.8-2.1 6.7-7.4 10.7-11.6 4.1-4.2 7.4-8.1 7.4-8.6s1.1-1.5 2.5-2.2c1.4-.7 2.5-1.9 2.5-2.6 0-.6.7-1.4 1.5-1.8 1.5-.5 2.1-2.6.8-2.6-.5.1-2.6 1-4.8 2.1zM704.5 903c-.3.6.1 1.3.9 1.6.9.3 1.6 1.2 1.6 1.8 0 .7 1.1 1.9 2.5 2.6 1.4.7 2.5 1.7 2.5 2.2 0 .5 2.8 3.7 6.3 7.2 3.4 3.4 7.8 8.3 9.8 10.7 2.1 2.5 8.6 9.5 14.6 15.6s12.1 12.6 13.5 14.5c1.4 1.8 6.2 7 10.7 11.6 4.4 4.6 8.1 8.6 8.1 8.9 0 .2 3.3 3.7 7.3 7.7 3.9 4 7.7 8.1 8.3 9.2 1.5 2.6 13.2 4.5 25.9 4.2l10-.3v-30.8l-5-2.9c-2.7-1.6-6.1-3.4-7.5-4.1-1.4-.6-2.7-1.4-3-1.7-.9-.9-4.4-3-7-4.1-1.3-.5-2.7-1.3-3-1.7-.9-1.2-4.9-3.2-6.5-3.2-.8 0-1.5-.4-1.5-.9s-.8-1.1-1.7-1.5c-1-.3-3.1-1.5-4.8-2.5-1.6-1.1-4.9-3-7.2-4.2-2.4-1.3-4.3-2.6-4.3-3.1 0-.4-.9-.8-2.1-.8-1.1 0-3.7-1.1-5.7-2.5s-4.2-2.5-4.9-2.5c-.7 0-1.3-.4-1.3-1 0-.5-1.1-1.2-2.5-1.6-1.4-.3-2.5-1-2.5-1.4 0-.5-1-1.2-2.2-1.6-1.3-.4-2.5-.9-2.8-1.3-.3-.3-3.2-2-6.5-3.6-3.3-1.7-6.4-3.6-6.8-4.3-.4-.6-1.7-1.2-2.7-1.2-1.1 0-2-.5-2-1 0-.6-.6-1-1.4-1-.8 0-2.1-.6-2.8-1.3-.7-.6-4-2.5-7.3-4.2-3.3-1.6-6.2-3.3-6.5-3.6-.3-.3-2.3-1.4-4.5-2.4s-4.3-2-4.7-2.2c-.4-.2-.9.1-1.3.7zM553.9 924.8c-6.9 7-14 13.8-15.7 15.2-1.7 1.4-3.1 2.8-3.2 3.1 0 .4-9 9.6-20.1 20.5-11 11-22.1 22.1-24.7 24.8-2.6 2.7-8.4 8.7-13 13.3l-8.3 8.4.6 4.7c.3 2.6 1 7.4 1.5 10.7.5 3.3 1.2 8.5 1.5 11.5.3 3 1.2 6.4 2 7.4 1.3 1.8 1.6 1.8 3.9.2 1.4-.9 4.5-1.6 7-1.6s4.8-.5 5.1-1c.3-.6 2.1-1 3.9-1 3.2 0 6.6-2.5 6.6-4.8 0-.7.4-1.2.9-1.2s1.2-1.1 1.5-2.5c.4-1.4 1.1-2.5 1.6-2.5.6 0 1-1.1 1-2.5s.4-2.5.9-2.5 1.3-1 1.7-2.3c.4-1.2.9-2.4 1.3-2.7.3-.3 1.8-2.8 3.2-5.5 5.5-10.4 9.2-17 10-18 .5-.5.9-1.7.9-2.7 0-1 .7-2.1 1.5-2.4.8-.4 1.5-1.2 1.5-2s1.1-3.2 2.5-5.4 2.5-4.4 2.5-5c0-.5.4-1 .8-1 .9 0 4.2-6.9 4.2-8.7 0-.6.7-1.3 1.5-1.7.8-.3 1.5-1.2 1.5-2.1 0-.8 1.1-3.3 2.5-5.5s2.5-4.4 2.5-5c0-.5.3-1 .8-1 .4 0 2.3-3.3 4.2-7.3 1.9-3.9 4-7.7 4.5-8.3.6-.6 2.4-3.7 4-7 1.7-3.2 3.3-6.1 3.8-6.2.4-.2.7-1.2.7-2.2 0-1 .7-2 1.5-2.4.8-.3 1.5-1.4 1.5-2.5s.5-2.3 1-2.6c1.2-.7 1.4-3.5.3-3.4-.5 0-6.5 5.8-13.4 12.7zM684 913.5c0 .8.5 1.5 1 1.5.6 0 1 .7 1 1.5 0 .9 1 3.2 2.3 5.3 1.2 2 3.1 5.5 4.2 7.7s2.6 4.6 3.2 5.3c.7.7 1.3 1.9 1.3 2.7 0 .7.3 1.5.8 1.7.4.1 2.3 3.6 4.2 7.5 1.9 4 3.8 7.3 4.3 7.3.4 0 .7.5.7 1 0 .6 1.1 2.8 2.5 5s2.5 4.7 2.5 5.5c0 .9.7 1.8 1.5 2.1.8.4 1.5 1.1 1.5 1.7 0 1.8 3.3 8.7 4.2 8.7.4 0 .8.5.8 1 0 .6 1.1 2.8 2.5 5s2.5 4.6 2.5 5.4c0 .8.7 1.6 1.5 2 .8.3 1.5 1.2 1.5 2.1 0 1.4 1.5 4.2 5.7 11 .7 1.1 2.1 3.9 3.2 6.1 1 2.3 2.4 4.5 3 4.8.6.4 1.1 1.6 1.1 2.7 0 1 .4 1.9.8 1.9.9 0 4.2 7 4.2 8.8 0 .7.4 1.2 1 1.2.5 0 1.2 1.1 1.6 2.5.3 1.4 1 2.5 1.5 2.5s.9.6.9 1.3c0 2.3 3.5 4.7 6.8 4.7 1.7 0 3.4.4 3.7 1 .3.5 2.6 1 5.1 1 2.5 0 5.6.7 7 1.6 2.3 1.6 2.6 1.6 3.9-.2.8-1 1.7-3.9 2-6.4.6-5.5 2.4-19.2 3.1-24.1.5-3.5.1-4.1-11.5-16-6.7-6.7-12.1-12.6-12.1-13.1 0-.4-.4-.8-.9-.8-.8 0-41.1-39.9-41.1-40.6 0-.5-6.2-6.4-6.7-6.4-.3 0-6.1-5.6-12.8-12.5-6.8-6.9-12.6-12.5-12.9-12.5-.3 0-.6.7-.6 1.5zM582.3 928.4c-1.8 2.4-3.3 5-3.3 5.9 0 1-.4 1.7-.9 1.7s-1.2.8-1.5 1.7c-.7 2.1-2.2 4.6-5.2 8.8-1.1 1.7-2.4 3.8-2.7 4.7-.4 1-1.1 1.8-1.7 1.8-.5 0-1 .9-1 2s-.4 2-1 2c-.5 0-1 .6-1 1.4 0 .8-.6 2.1-1.2 2.8-.7.7-2.2 2.9-3.2 4.8-1.1 1.9-2.2 3.7-2.5 4-1 .9-3.1 4.4-3.7 6.2-.4 1-1 1.8-1.5 1.8s-.9.6-.9 1.4c0 .8-.6 2.1-1.2 2.8-1.9 2-3.8 5-4.4 7-.4 1-1 1.8-1.5 1.8s-.9.6-.9 1.4c0 .8-.6 2.1-1.2 2.8-1.5 1.7-3.6 4.7-4.5 6.8-1.3 2.9-8.7 14.5-9.5 14.8-.4.2-.8 1.2-.8 2.2 0 .9-.6 2.3-1.4 2.9-.8.7-2.2 2.7-3.1 4.6-.9 1.9-2 3.5-2.5 3.5-.6 0-1 .7-1 1.7 0 .9-1 3-2.3 4.7-1.3 1.7-2.6 3.9-3 4.8-.3 1-1.1 1.8-1.7 1.8-.5 0-1 .7-1 1.5s-.4 1.5-1 1.5-1 3-1 6.9c0 3.9.5 7.3 1 7.6.6.3 1 2.6 1 5.1 0 2.5.6 6 1.4 7.9.8 1.8 1.6 5.8 1.7 8.7.1 2.9.7 5.9 1.2 6.5 1.1 1.5 6.7 1.7 6.7.3 0-.6 1.1-1 2.5-1s2.5-.4 2.5-.8c0-.9 6.9-4.2 8.7-4.2 1.5 0 4.3-3.4 4.3-5.2 0-.9.7-2.9 1.5-4.4.8-1.6 1.5-3.7 1.5-4.6 0-.9.5-2 1-2.3.6-.3 1-2.2 1-4.1 0-1.9.4-3.4 1-3.4.5 0 1.2-1.7 1.5-3.8.3-2 1-4.5 1.5-5.4 1-1.8 2.8-8.1 3.7-13.3.3-1.7.9-3.2 1.2-3.5.7-.5 2.7-7.3 4-13.3.5-2.1 1.4-4.4 2-5 .6-.6 1.1-2.6 1.1-4.4 0-1.8.5-3.3 1-3.3.6 0 1-1 1-2.3 0-1.2.7-3.5 1.5-5.1.8-1.5 1.5-3.9 1.5-5.2 0-1.3.4-3.2.9-4.2 1.4-2.9 3.3-8.6 3.9-11.7.2-1.7 1.1-3.9 1.8-5 .8-1.1 1.4-3.4 1.4-5.2 0-1.8.5-3.3 1-3.3.6 0 1-.9 1-2.1 0-1.2.6-3.5 1.4-5.2.8-1.8 1.7-4.6 1.9-6.2 1.2-6.7 2.9-12.5 3.8-12.5.5 0 .9-1.1.9-2.4 0-1.3.7-4 1.5-5.9 1.6-3.9 1.9-6.7.8-6.7-.5 0-2.3 2-4 4.4zM665.5 927.1c.3 1.8 1 4 1.5 5 .6 1 1 2.9 1 4.3s.4 2.6.9 2.6c.6 0 1.3 2 1.7 4.5.3 2.5 1 4.8 1.5 5.1.5.3.9 1.8.9 3.3 0 1.6.7 4.2 1.5 5.7.8 1.6 1.5 3.9 1.5 5.1 0 1.3.3 2.3.8 2.3.8 0 2.9 7.1 3.9 13 .3 1.9 1.2 4.4 1.9 5.5.8 1.1 1.4 2.9 1.4 4.2 0 1.2.5 2.5 1 2.8.6.3 1 2.4 1 4.6 0 2.1.4 3.9 1 3.9.5 0 1.3 1.8 1.6 4 .4 2.2 1.1 4.3 1.5 4.6.5.3.9 1.7.9 3.2 0 1.5.7 3.6 1.5 4.6.8 1.1 1.5 3.2 1.5 4.7s.4 3 .9 3.4c.6.3 1.3 2.6 1.7 5 .3 2.5 1 4.5 1.5 4.5s.9 1.4.9 3c0 1.7.4 3.8.9 4.8 1.1 2.2 3.7 10.8 4.6 14.9.4 1.8 1.1 3.5 1.6 3.8.5.4.9 1.9.9 3.5s.5 3.2 1 3.5c.6.3 1 1.6 1 2.9 0 1.2.7 3.1 1.5 4.2.8 1 1.5 2.8 1.5 4 0 2.7 2.4 4.7 8.3 6.9 2.6 1 4.7 2.2 4.7 2.6 0 .5 1.1.9 2.4.9 1.4 0 2.8.4 3.1 1 .9 1.4 4.8 1.3 6.3-.2.7-.7 1.2-3.7 1.2-6.7.1-3.1.7-6.7 1.5-8.1.8-1.4 1.4-4.8 1.5-7.5 0-2.8.4-5.5.9-6 .6-.6 1.1-3.5 1.2-6.5.3-5.4-1.1-9.6-3.8-11.3-.7-.4-1.3-1.3-1.3-1.8 0-.6-1.1-2.5-2.5-4.3-1.4-1.8-2.5-4-2.5-4.9 0-1-.4-1.7-.9-1.7s-1.6-1.2-2.4-2.8c-2.8-5.5-5.2-9.7-5.7-10.2-1.2-1.1-9-14.2-9-15 0-.5-.6-1.5-1.2-2.2-1.9-2-3.8-5-4.4-7.1-.4-.9-1-1.7-1.5-1.7s-.9-.5-.9-1c0-.6-1.3-2.9-3-5.2-1.6-2.2-3-4.7-3-5.5 0-.7-.4-1.3-.9-1.3s-1.1-.8-1.5-1.8c-.6-1.8-2.7-5.3-3.7-6.2-.3-.3-1.4-2.1-2.5-4-1-1.9-2.5-4.1-3.1-4.8-.7-.7-1.3-2-1.3-2.8 0-.8-.3-1.4-.8-1.4-.4 0-1.2-.9-1.7-1.9-4.1-8-6-11.1-6.7-11.1-.4 0-.8-.5-.8-1.1 0-.6-1.1-2.5-2.5-4.3-1.4-1.8-2.5-3.7-2.5-4.2 0-1.3-6.4-10.4-7.3-10.4-.4 0-.5 1.4-.2 3.1zM647 938.9c0 3.3.4 6.2.9 6.5.5.3 1.2 4.2 1.6 8.6.4 4.4 1.1 8.3 1.6 8.6.5.3.9 2.9.9 5.9 0 2.9.6 8.6 1.4 12.6.8 4.1 1.9 11.4 2.5 16.4.7 4.9 1.8 12.8 2.6 17.5.9 4.7 1.5 10.1 1.5 12.1s.4 4.9 1 6.5c.9 2.7 1.8 8.9 4 26.9.4 3.8 1.3 8.3 1.9 9.8.6 1.6 1.1 5.5 1.1 8.8 0 3.3.4 6.8 1 7.8 1 2 2.9 15.3 3.7 26.8.2 4 .9 7.3 1.4 7.3.5 0 .9.6.9 1.3 0 .6 2.3 2.3 5.1 3.7 8.2 4 8.9 4.4 8.9 5.2 0 .5 1.1.8 2.4.8 2.4 0 3.7-2.1 5.2-8.3.3-1.5 1-3 1.5-3.3.5-.3.9-1.7.9-3.2 0-1.5 1-5.2 2.1-8.2 1.2-3 2.4-7.1 2.6-9 .3-1.9 1-4 1.5-4.7 1-1.3-.6-7.2-2.9-10.8-.7-1.1-1.3-2.9-1.3-4.2 0-1.2-.4-2.5-1-2.8-.5-.3-1-1.7-1-3.1 0-1.3-.4-2.4-1-2.4-.5 0-1.3-1.8-1.6-4-.4-2.2-1-4-1.5-4s-.9-1.3-.9-2.8c0-1.6-.7-3.7-1.5-4.8-.8-1-1.5-2.6-1.5-3.5 0-.9-.7-3-1.5-4.5-.8-1.6-1.5-3.7-1.5-4.6 0-.9-.4-2-1-2.3-.5-.3-1-1.7-1-3s-.6-3.6-1.4-5.2c-.8-1.5-1.9-4.2-2.6-5.8-.7-1.7-1.8-4.3-2.6-5.8-.8-1.6-1.4-3.7-1.4-4.8 0-1.1-.4-2.7-1-3.7-2.4-4.5-7-17.8-7-20.5 0-.9-.4-1.7-1-1.7-.5 0-1-1-1-2.3 0-1.2-.7-3.1-1.5-4.1-.8-1.1-1.5-3-1.5-4.2 0-1.3-.4-2.5-.9-2.8-.5-.3-1.2-2.2-1.5-4.1-.4-1.9-1.1-3.5-1.6-3.5-.6 0-1-1.1-1-2.4 0-1.3-.6-3.7-1.4-5.3-.8-1.5-2.2-5.5-3.2-8.8-.9-3.3-2-6.4-2.5-7-.5-.5-.9-1.9-.9-3.1 0-1.3-.7-2.9-1.5-3.8-.8-.8-1.5-2.4-1.5-3.5s-.4-2.3-1-2.6c-.6-.4-1 1.6-1 5.4zM603 936.5c0 1.4-.4 2.5-1 2.5-.5 0-1.2 1.2-1.6 2.7-.3 1.6-1.2 4.1-1.9 5.8-.7 1.6-1.9 5-2.5 7.5-.7 2.5-1.8 5.7-2.6 7.2-.8 1.4-1.4 3.8-1.4 5.2 0 1.4-.4 2.6-1 2.6-.5 0-1 .8-1 1.7 0 1-.7 3.1-1.5 4.7-.8 1.5-1.5 3.8-1.5 5.1 0 1.2-.7 2.8-1.5 3.5-.8.7-1.5 2-1.5 3s-.7 3.1-1.5 4.6c-.8 1.6-1.5 3.7-1.5 4.6 0 .9-.4 2-1 2.3-.5.3-1 1.7-1 3.1 0 1.3-.4 3.2-.9 4.2-2.2 4-4.1 8.6-4.1 9.8 0 .7-.7 3-1.6 5.1-.9 2.1-2.1 4.9-2.6 6.3-.6 1.4-1.6 3.8-2.4 5.3-.8 1.6-1.4 3.6-1.4 4.5 0 1.9-3.2 10.7-4.3 11.8-.4.4-.7 1.8-.7 3.1 0 1.4-.7 3.1-1.5 3.9-.8.9-1.5 2.6-1.5 3.9 0 1.3-.4 2.6-.9 2.9-.4.3-1.1 2.4-1.5 4.6-.3 2.2-1.1 4-1.6 4-.6 0-1 .8-1 1.7 0 1.8-2.3 8.9-3.9 12.1-2.1 4.2-3.1 8.6-2.1 9.6.6.6 1 2.1 1 3.4 0 1.4 1.1 5.6 2.5 9.4 1.4 3.8 2.5 8 2.5 9.3 0 1.3.4 2.6.9 2.9.5.3 1.2 1.8 1.5 3.3 1.4 5.8 3 8.3 5.3 8.3 1.3 0 2.3-.4 2.3-.9s.8-1.1 1.8-1.5c2.7-.9 10.7-5.9 12.6-7.8 1.1-1.2 1.6-3.5 1.6-8.2 0-3.6.5-6.8 1-7.1.6-.3 1-3 1-5.8 0-2.9.7-7.9 1.5-11.2.8-3.3 1.4-8.3 1.5-11.2 0-2.8.5-6.4 1.1-8 .6-1.5 1.5-6.2 2-10.3.5-4.1 1.6-12 2.4-17.5.8-5.5 1.9-13.2 2.4-17 .5-3.9 1.4-9 2-11.5.6-2.5 1.1-6.4 1.1-8.7 0-2.3.4-6.3.9-9 1.7-8.5 3.3-18.6 4.2-25.8.4-3.9 1.5-11.1 2.4-16 2.4-13.8 2.9-20.5 1.6-20.5-.6 0-1.1 1.1-1.1 2.5zM623.5 940c-.4 3.3-1.1 6.3-1.6 6.6-.5.3-.9 2.5-.9 4.9 0 2.4-.5 5.6-1.1 7.2-1.2 2.9-2.3 8-3.9 19.2-.5 3.6-1.4 6.9-2 7.5-.5.5-1 3.1-1 5.7s-.4 5-.9 5.3c-.4.3-1.1 3.3-1.4 6.7-.3 3.4-1 6.6-1.6 7.2-.6.6-1.1 3.4-1.1 6.2 0 2.9-.3 5.5-.7 5.9-.8.8-1.2 2.6-1.9 8.6-.3 2.5-.9 5.4-1.4 6.5-1 2.3-2.8 11.5-3.8 19.5-.4 3-1.1 6.1-1.6 6.8-.8 1.3-1.7 6.7-3.4 19.2-.4 3-1.1 6.1-1.6 6.9-.5.7-1.2 4.1-1.7 7.5-1 7.7-3.2 17.8-4.2 19.3-.4.6-.8 4.3-.8 8.1-.1 5.5.3 7.4 1.7 8.9 5 5.1 8.4 9.3 8.4 10.3 0 .5.7 1 1.5 1s1.5.7 1.5 1.5.5 1.5 1.1 1.5c1.4 0 3.9 2.5 3.9 3.9 0 .6.7 1.1 1.5 1.1s1.5.5 1.5 1.1c0 .6 2.9 4 6.4 7.7 3.6 3.7 7.3 7.7 8.4 8.9 1.1 1.3 2.4 2.3 2.9 2.3.6 0 3.1-2.1 5.6-4.7 2.5-2.7 7.1-7.4 10.1-10.6 3.1-3.1 5.6-6 5.6-6.3 0-1 2.8-3.4 3.9-3.4.6 0 1.1-.4 1.1-1 0-.5 2.3-3.3 5-6.1 2.8-2.8 5-5.5 5-6 0-.4.8-1.2 1.7-1.7 2.9-1.7 1.7-14.4-2.8-28.8-.5-1.7-.9-4.7-.9-6.8 0-2-.7-5.3-1.5-7.3-.8-1.9-1.5-5.1-1.5-6.9 0-3.3-.8-7.8-3-16.4-1.1-4.4-1.8-8.1-4-21-.6-3.6-1.5-7.3-2-8.2-.6-1-1-3.3-1-5.2 0-1.8-.7-5.3-1.5-7.6s-1.5-5.9-1.5-7.9-.7-5.4-1.5-7.6c-.8-2.2-1.4-5.9-1.5-8.2 0-2.3-.4-4.5-1-4.8-.5-.3-1-2.6-1-5.1 0-2.5-.5-5.4-1-6.4-.6-1-1.5-4.7-2-8.2-2-11.9-2.7-15.3-3.9-18.1-.6-1.6-1.1-4.8-1.1-7.2 0-2.4-.4-4.6-1-5-.5-.3-1.2-3.2-1.6-6.5-.5-4.8-1-6-2.4-6-1.5 0-1.9 1.2-2.5 6z"/></svg>